<svg width="24" height="24" viewBox="0 0 24 24" fill="none" xmlns="http://www.w3.org/2000/svg">
<path fill-rule="evenodd" clip-rule="evenodd" d="M4.5 8C4.5 3.85786 7.85786 0.5 12 0.5C16.1421 0.5 19.5 3.85786 19.5 8C19.5 12.1421 16.1421 15.5 12 15.5C7.85786 15.5 4.5 12.1421 4.5 8ZM12 1.5C8.41015 1.5 5.5 4.41015 5.5 8C5.5 11.5899 8.41015 14.5 12 14.5C15.5899 14.5 18.5 11.5899 18.5 8C18.5 4.41015 15.5899 1.5 12 1.5Z" fill="#414141"/>
<path fill-rule="evenodd" clip-rule="evenodd" d="M15.7243 13.3843C15.998 13.348 16.2493 13.5404 16.2857 13.8142L17.4957 22.9342C17.5209 23.1245 17.435 23.3125 17.2745 23.4179C17.114 23.5233 16.9074 23.5275 16.7428 23.4287L12 20.583L7.25726 23.4287C7.09262 23.5275 6.88596 23.5233 6.72549 23.4178C6.56502 23.3124 6.47909 23.1244 6.50436 22.9341L7.71437 13.8241C7.75072 13.5504 8.00211 13.3579 8.27584 13.3943C8.54958 13.4307 8.74202 13.682 8.70566 13.9558L7.63223 22.0375L11.7428 19.5712C11.9011 19.4762 12.0989 19.4762 12.2573 19.5712L16.368 22.0376L15.2944 13.9457C15.258 13.672 15.4505 13.4206 15.7243 13.3843Z" fill="#414141"/>
</svg>
