<svg width="24" height="24" viewBox="0 0 24 24" fill="none" xmlns="http://www.w3.org/2000/svg">
<path fill-rule="evenodd" clip-rule="evenodd" d="M3 6.5C2.17157 6.5 1.5 7.17157 1.5 8V16C1.5 16.8284 2.17157 17.5 3 17.5H5C5.27614 17.5 5.5 17.7239 5.5 18C5.5 18.2761 5.27614 18.5 5 18.5H3C1.61929 18.5 0.5 17.3807 0.5 16V8C0.5 6.61929 1.61929 5.5 3 5.5H6.19C6.46614 5.5 6.69 5.72386 6.69 6C6.69 6.27614 6.46614 6.5 6.19 6.5H3ZM14.4986 6C14.4986 5.72386 14.7225 5.5 14.9986 5.5H16.9986C18.3793 5.5 19.4986 6.61929 19.4986 8V16C19.4986 17.3807 18.3793 18.5 16.9986 18.5H13.8086C13.5325 18.5 13.3086 18.2761 13.3086 18C13.3086 17.7239 13.5325 17.5 13.8086 17.5H16.9986C17.827 17.5 18.4986 16.8284 18.4986 16V8C18.4986 7.17157 17.827 6.5 16.9986 6.5H14.9986C14.7225 6.5 14.4986 6.27614 14.4986 6Z" fill="#414141"/>
<path fill-rule="evenodd" clip-rule="evenodd" d="M23 10.5C23.2761 10.5 23.5 10.7239 23.5 11V13C23.5 13.2761 23.2761 13.5 23 13.5C22.7239 13.5 22.5 13.2761 22.5 13V11C22.5 10.7239 22.7239 10.5 23 10.5Z" fill="#414141"/>
<path fill-rule="evenodd" clip-rule="evenodd" d="M11.2774 5.58403C11.5071 5.7372 11.5692 6.04764 11.416 6.2774L7.93426 11.5001H13C13.1844 11.5001 13.3538 11.6015 13.4408 11.7641C13.5278 11.9267 13.5183 12.124 13.416 12.2774L9.41603 18.2774C9.26285 18.5072 8.95241 18.5693 8.72265 18.4161C8.49289 18.2629 8.4308 17.9525 8.58398 17.7227L12.0657 12.5001H7C6.8156 12.5001 6.64617 12.3986 6.55916 12.236C6.47215 12.0734 6.48169 11.8761 6.58398 11.7227L10.584 5.7227C10.7372 5.49294 11.0476 5.43085 11.2774 5.58403Z" fill="#414141"/>
</svg>
