<svg width="24" height="24" viewBox="0 0 24 24" fill="none" xmlns="http://www.w3.org/2000/svg">
<path fill-rule="evenodd" clip-rule="evenodd" d="M12 2.5C8.41015 2.5 5.5 5.41015 5.5 9V14C5.5 14.9793 5.09777 15.8647 4.44949 16.5H19.5505C18.9022 15.8647 18.5 14.9793 18.5 14V9C18.5 5.41015 15.5899 2.5 12 2.5ZM22 16.5C20.6193 16.5 19.5 15.3807 19.5 14V9C19.5 4.85786 16.1421 1.5 12 1.5C7.85786 1.5 4.5 4.85786 4.5 9V14C4.5 15.3807 3.38071 16.5 2 16.5C1.72386 16.5 1.5 16.7239 1.5 17C1.5 17.2761 1.72386 17.5 2 17.5H22V16.5ZM9.83673 20.7504C9.92598 20.5955 10.0912 20.5 10.27 20.5H13.73C13.9088 20.5 14.074 20.5955 14.1633 20.7504C14.2525 20.9054 14.2522 21.0962 14.1625 21.2509C13.7153 22.0219 12.8913 22.4965 12 22.4965C11.1087 22.4965 10.2847 22.0219 9.8375 21.2509C9.74778 21.0962 9.74748 20.9054 9.83673 20.7504Z" fill="#414141"/>
</svg>
