<svg width="24" height="24" viewBox="0 0 24 24" fill="none" xmlns="http://www.w3.org/2000/svg">
<path fill-rule="evenodd" clip-rule="evenodd" d="M9 1.5C9.21522 1.5 9.40628 1.63772 9.47434 1.84189L15 18.4189L17.5257 10.8419C17.5937 10.6377 17.7848 10.5 18 10.5H22C22.2761 10.5 22.5 10.7239 22.5 11C22.5 11.2761 22.2761 11.5 22 11.5H18.3604L15.4743 20.1581C15.4063 20.3623 15.2152 20.5 15 20.5C14.7848 20.5 14.5937 20.3623 14.5257 20.1581L9 3.58114L6.47434 11.1581C6.40628 11.3623 6.21522 11.5 6 11.5H2C1.72386 11.5 1.5 11.2761 1.5 11C1.5 10.7239 1.72386 10.5 2 10.5H5.63962L8.52566 1.84189C8.59372 1.63772 8.78478 1.5 9 1.5Z" fill="#414141"/>
</svg>
