<svg width="24" height="24" viewBox="0 0 24 24" fill="none" xmlns="http://www.w3.org/2000/svg">
<path fill-rule="evenodd" clip-rule="evenodd" d="M4 2.5C3.17157 2.5 2.5 3.17157 2.5 4V14C2.5 14.8284 3.17157 15.5 4 15.5H5C5.27614 15.5 5.5 15.7239 5.5 16C5.5 16.2761 5.27614 16.5 5 16.5H4C2.61929 16.5 1.5 15.3807 1.5 14V4C1.5 2.61929 2.61929 1.5 4 1.5H20C21.3807 1.5 22.5 2.61929 22.5 4V14C22.5 15.3807 21.3807 16.5 20 16.5H19C18.7239 16.5 18.5 16.2761 18.5 16C18.5 15.7239 18.7239 15.5 19 15.5H20C20.8284 15.5 21.5 14.8284 21.5 14V4C21.5 3.17157 20.8284 2.5 20 2.5H4Z" fill="#414141"/>
<path fill-rule="evenodd" clip-rule="evenodd" d="M8.06753 19.4998H15.9325L12 14.7808L8.06753 19.4998ZM12 13.9998L11.6159 13.6797L6.6159 19.6797C6.49169 19.8287 6.46492 20.0362 6.54721 20.2119C6.6295 20.3875 6.806 20.4998 7.00001 20.4998H17C17.194 20.4998 17.3705 20.3875 17.4528 20.2119C17.5351 20.0362 17.5083 19.8287 17.3841 19.6797L12.3841 13.6797L12 13.9998Z" fill="#414141"/>
</svg>
