<svg width="24" height="24" viewBox="0 0 24 24" fill="none" xmlns="http://www.w3.org/2000/svg">
<path fill-rule="evenodd" clip-rule="evenodd" d="M9.8613 4.60089C10.3145 3.85374 11.1249 3.39746 11.9988 3.39746C12.8727 3.39746 13.6831 3.85374 14.1363 4.60089L14.1377 4.60327L22.6119 18.7501C23.056 19.5194 23.0586 20.4666 22.6188 21.2383C22.1789 22.0101 21.3625 22.4904 20.4743 22.5002L20.4688 22.5002L3.5233 22.5002C2.63507 22.4904 1.81872 22.0101 1.37884 21.2383C0.938955 20.4666 0.941607 19.5194 1.3858 18.7502L1.38981 18.7432L9.85987 4.60327L9.8613 4.60089ZM10.717 5.11835C10.7168 5.11874 10.7165 5.11913 10.7163 5.11952L2.24995 19.2534C1.98527 19.7144 1.9843 20.2812 2.24762 20.7431C2.51112 21.2054 2.99978 21.4934 3.53172 21.5002H20.4659C20.9978 21.4934 21.4865 21.2054 21.75 20.7431C22.0133 20.2812 22.0123 19.7144 21.7477 19.2535L13.2813 5.11952C13.2811 5.11913 13.2808 5.11874 13.2806 5.11835C13.0085 4.67075 12.5227 4.39746 11.9988 4.39746C11.4749 4.39746 10.9891 4.67075 10.717 5.11835Z" fill="#414141"/>
<path fill-rule="evenodd" clip-rule="evenodd" d="M12 9.5C12.2761 9.5 12.5 9.72386 12.5 10V14C12.5 14.2761 12.2761 14.5 12 14.5C11.7239 14.5 11.5 14.2761 11.5 14V10C11.5 9.72386 11.7239 9.5 12 9.5Z" fill="#414141"/>
<path d="M13 18C13 18.5523 12.5523 19 12 19C11.4477 19 11 18.5523 11 18C11 17.4477 11.4477 17 12 17C12.5523 17 13 17.4477 13 18Z" fill="#414141"/>
</svg>
