<svg width="24" height="24" viewBox="0 0 24 24" fill="none" xmlns="http://www.w3.org/2000/svg">
<path fill-rule="evenodd" clip-rule="evenodd" d="M7.50645 1.64645C7.60021 1.55268 7.72739 1.5 7.86 1.5H16.14C16.2726 1.5 16.3998 1.55268 16.4936 1.64645L22.3536 7.50645C22.4473 7.60021 22.5 7.72739 22.5 7.86V16.14C22.5 16.2726 22.4473 16.3998 22.3536 16.4936L16.4936 22.3536C16.3998 22.4473 16.2726 22.5 16.14 22.5H7.86C7.72739 22.5 7.60021 22.4473 7.50645 22.3536L1.64645 16.4936C1.55268 16.3998 1.5 16.2726 1.5 16.14V7.86C1.5 7.72739 1.55268 7.60021 1.64645 7.50645L7.50645 1.64645ZM8.06711 2.5L2.5 8.06711V15.9329L8.06711 21.5H15.9329L21.5 15.9329V8.06711L15.9329 2.5H8.06711Z" fill="#414141"/>
<path fill-rule="evenodd" clip-rule="evenodd" d="M12 7.5C12.2761 7.5 12.5 7.72386 12.5 8V12C12.5 12.2761 12.2761 12.5 12 12.5C11.7239 12.5 11.5 12.2761 11.5 12V8C11.5 7.72386 11.7239 7.5 12 7.5Z" fill="#414141"/>
<path d="M13 16C13 16.5523 12.5523 17 12 17C11.4477 17 11 16.5523 11 16C11 15.4477 11.4477 15 12 15C12.5523 15 13 15.4477 13 16Z" fill="#414141"/>
</svg>
