<svg width="24" height="24" viewBox="0 0 24 24" fill="none" xmlns="http://www.w3.org/2000/svg">
<path fill-rule="evenodd" clip-rule="evenodd" d="M5.5 10C5.5 9.72386 5.72386 9.5 6 9.5H18C18.2761 9.5 18.5 9.72386 18.5 10C18.5 10.2761 18.2761 10.5 18 10.5H6C5.72386 10.5 5.5 10.2761 5.5 10Z" fill="#414141"/>
<path fill-rule="evenodd" clip-rule="evenodd" d="M2.5 6C2.5 5.72386 2.72386 5.5 3 5.5H21C21.2761 5.5 21.5 5.72386 21.5 6C21.5 6.27614 21.2761 6.5 21 6.5H3C2.72386 6.5 2.5 6.27614 2.5 6Z" fill="#414141"/>
<path fill-rule="evenodd" clip-rule="evenodd" d="M2.5 14C2.5 13.7239 2.72386 13.5 3 13.5H21C21.2761 13.5 21.5 13.7239 21.5 14C21.5 14.2761 21.2761 14.5 21 14.5H3C2.72386 14.5 2.5 14.2761 2.5 14Z" fill="#414141"/>
<path fill-rule="evenodd" clip-rule="evenodd" d="M5.5 18C5.5 17.7239 5.72386 17.5 6 17.5H18C18.2761 17.5 18.5 17.7239 18.5 18C18.5 18.2761 18.2761 18.5 18 18.5H6C5.72386 18.5 5.5 18.2761 5.5 18Z" fill="#414141"/>
</svg>
