<svg width="24" height="24" viewBox="0 0 24 24" fill="none" xmlns="http://www.w3.org/2000/svg">
<path fill-rule="evenodd" clip-rule="evenodd" d="M8.5 5C8.5 3.067 10.067 1.5 12 1.5C13.933 1.5 15.5 3.067 15.5 5C15.5 6.933 13.933 8.5 12 8.5C10.067 8.5 8.5 6.933 8.5 5ZM12 2.5C10.6193 2.5 9.5 3.61929 9.5 5C9.5 6.38071 10.6193 7.5 12 7.5C13.3807 7.5 14.5 6.38071 14.5 5C14.5 3.61929 13.3807 2.5 12 2.5Z" fill="#414141"/>
<path fill-rule="evenodd" clip-rule="evenodd" d="M12 7.5C12.2761 7.5 12.5 7.72386 12.5 8V22C12.5 22.2761 12.2761 22.5 12 22.5C11.7239 22.5 11.5 22.2761 11.5 22V8C11.5 7.72386 11.7239 7.5 12 7.5Z" fill="#414141"/>
<path fill-rule="evenodd" clip-rule="evenodd" d="M1.64645 11.6464C1.74021 11.5527 1.86739 11.5 2 11.5H5C5.27614 11.5 5.5 11.7239 5.5 12C5.5 12.2761 5.27614 12.5 5 12.5H2.51293C2.77294 17.5143 6.92101 21.5 12 21.5C17.079 21.5 21.2271 17.5143 21.4871 12.5H19C18.7239 12.5 18.5 12.2761 18.5 12C18.5 11.7239 18.7239 11.5 19 11.5H22C22.2761 11.5 22.5 11.7239 22.5 12C22.5 17.799 17.799 22.5 12 22.5C6.20101 22.5 1.5 17.799 1.5 12C1.5 11.8674 1.55268 11.7402 1.64645 11.6464Z" fill="#414141"/>
</svg>
