<svg width="24" height="24" viewBox="0 0 24 24" fill="none" xmlns="http://www.w3.org/2000/svg">
<path fill-rule="evenodd" clip-rule="evenodd" d="M1.5 12C1.5 6.20101 6.20101 1.5 12 1.5C17.799 1.5 22.5 6.20101 22.5 12C22.5 17.799 17.799 22.5 12 22.5C6.20101 22.5 1.5 17.799 1.5 12ZM12 2.5C6.75329 2.5 2.5 6.75329 2.5 12C2.5 17.2467 6.75329 21.5 12 21.5C17.2467 21.5 21.5 17.2467 21.5 12C21.5 6.75329 17.2467 2.5 12 2.5Z" fill="#414141"/>
<path fill-rule="evenodd" clip-rule="evenodd" d="M14.0586 7.56709C14.2978 7.429 14.6036 7.51091 14.7417 7.75005L20.4817 17.69C20.6198 17.9292 20.5378 18.235 20.2987 18.3731C20.0596 18.5112 19.7538 18.4293 19.6157 18.1901L13.8757 8.25012C13.7376 8.01099 13.8195 7.70518 14.0586 7.56709Z" fill="#414141"/>
<path fill-rule="evenodd" clip-rule="evenodd" d="M9.19141 8C9.19141 7.72386 9.41526 7.5 9.69141 7.5H21.1714C21.4475 7.5 21.6714 7.72386 21.6714 8C21.6714 8.27614 21.4475 8.5 21.1714 8.5H9.69141C9.41526 8.5 9.19141 8.27614 9.19141 8Z" fill="#414141"/>
<path fill-rule="evenodd" clip-rule="evenodd" d="M13.369 1.62715C13.6082 1.76524 13.6901 2.07104 13.552 2.31018L7.81198 12.2502C7.67389 12.4893 7.36809 12.5712 7.12895 12.4331C6.88982 12.295 6.80791 11.9892 6.946 11.7501L12.686 1.8101C12.8241 1.57097 13.1299 1.48906 13.369 1.62715Z" fill="#414141"/>
<path fill-rule="evenodd" clip-rule="evenodd" d="M3.69927 5.62715C3.9384 5.48906 4.2442 5.57097 4.38229 5.8101L10.1223 15.7501C10.2604 15.9892 10.1785 16.295 9.93934 16.4331C9.7002 16.5712 9.3944 16.4893 9.25631 16.2502L3.51631 6.31018C3.37822 6.07104 3.46013 5.76524 3.69927 5.62715Z" fill="#414141"/>
<path fill-rule="evenodd" clip-rule="evenodd" d="M2.32812 16C2.32812 15.7239 2.55198 15.5 2.82812 15.5H14.3081C14.5843 15.5 14.8081 15.7239 14.8081 16C14.8081 16.2761 14.5843 16.5 14.3081 16.5H2.82812C2.55198 16.5 2.32812 16.2761 2.32812 16Z" fill="#414141"/>
<path fill-rule="evenodd" clip-rule="evenodd" d="M16.869 11.5671C17.1082 11.7052 17.1901 12.011 17.052 12.2501L11.312 22.1901C11.1739 22.4293 10.8681 22.5112 10.629 22.3731C10.3898 22.235 10.3079 21.9292 10.446 21.69L16.186 11.75C16.3241 11.5109 16.6299 11.429 16.869 11.5671Z" fill="#414141"/>
</svg>
