<svg width="24" height="24" viewBox="0 0 24 24" fill="none" xmlns="http://www.w3.org/2000/svg">
<path fill-rule="evenodd" clip-rule="evenodd" d="M5.64645 5.64645C5.84171 5.45118 6.15829 5.45118 6.35355 5.64645L18.3536 17.6464C18.5488 17.8417 18.5488 18.1583 18.3536 18.3536C18.1583 18.5488 17.8417 18.5488 17.6464 18.3536L5.64645 6.35355C5.45118 6.15829 5.45118 5.84171 5.64645 5.64645Z" fill="#414141"/>
<path fill-rule="evenodd" clip-rule="evenodd" d="M18 8.5C18.2761 8.5 18.5 8.72386 18.5 9V18C18.5 18.2761 18.2761 18.5 18 18.5H9C8.72386 18.5 8.5 18.2761 8.5 18C8.5 17.7239 8.72386 17.5 9 17.5H17.5V9C17.5 8.72386 17.7239 8.5 18 8.5Z" fill="#414141"/>
</svg>
