<svg width="24" height="24" viewBox="0 0 24 24" fill="none" xmlns="http://www.w3.org/2000/svg">
<path fill-rule="evenodd" clip-rule="evenodd" d="M12 3.5C12.2761 3.5 12.5 3.72386 12.5 4V20C12.5 20.2761 12.2761 20.5 12 20.5C11.7239 20.5 11.5 20.2761 11.5 20V4C11.5 3.72386 11.7239 3.5 12 3.5Z" fill="#414141"/>
<path fill-rule="evenodd" clip-rule="evenodd" d="M5.64645 13.6464C5.84171 13.4512 6.15829 13.4512 6.35355 13.6464L12 19.2929L17.6464 13.6464C17.8417 13.4512 18.1583 13.4512 18.3536 13.6464C18.5488 13.8417 18.5488 14.1583 18.3536 14.3536L12.3536 20.3536C12.1583 20.5488 11.8417 20.5488 11.6464 20.3536L5.64645 14.3536C5.45118 14.1583 5.45118 13.8417 5.64645 13.6464Z" fill="#414141"/>
</svg>
