<svg width="24" height="24" viewBox="0 0 24 24" fill="none" xmlns="http://www.w3.org/2000/svg">
<path fill-rule="evenodd" clip-rule="evenodd" d="M18.3536 5.64645C18.5488 5.84171 18.5488 6.15829 18.3536 6.35355L6.35355 18.3536C6.15829 18.5488 5.84171 18.5488 5.64645 18.3536C5.45118 18.1583 5.45118 17.8417 5.64645 17.6464L17.6464 5.64645C17.8417 5.45118 18.1583 5.45118 18.3536 5.64645Z" fill="#414141"/>
<path fill-rule="evenodd" clip-rule="evenodd" d="M6 8.5C6.27614 8.5 6.5 8.72386 6.5 9V17.5H15C15.2761 17.5 15.5 17.7239 15.5 18C15.5 18.2761 15.2761 18.5 15 18.5H6C5.72386 18.5 5.5 18.2761 5.5 18V9C5.5 8.72386 5.72386 8.5 6 8.5Z" fill="#414141"/>
</svg>
