<svg width="24" height="24" viewBox="0 0 24 24" fill="none" xmlns="http://www.w3.org/2000/svg">
<path fill-rule="evenodd" clip-rule="evenodd" d="M3.5 12C3.5 11.7239 3.72386 11.5 4 11.5H20C20.2761 11.5 20.5 11.7239 20.5 12C20.5 12.2761 20.2761 12.5 20 12.5H4C3.72386 12.5 3.5 12.2761 3.5 12Z" fill="#414141"/>
<path fill-rule="evenodd" clip-rule="evenodd" d="M13.6464 5.64645C13.8417 5.45118 14.1583 5.45118 14.3536 5.64645L20.3536 11.6464C20.5488 11.8417 20.5488 12.1583 20.3536 12.3536L14.3536 18.3536C14.1583 18.5488 13.8417 18.5488 13.6464 18.3536C13.4512 18.1583 13.4512 17.8417 13.6464 17.6464L19.2929 12L13.6464 6.35355C13.4512 6.15829 13.4512 5.84171 13.6464 5.64645Z" fill="#414141"/>
</svg>
