<svg width="24" height="24" viewBox="0 0 24 24" fill="none" xmlns="http://www.w3.org/2000/svg">
<path fill-rule="evenodd" clip-rule="evenodd" d="M12 3.5C12.2761 3.5 12.5 3.72386 12.5 4V20C12.5 20.2761 12.2761 20.5 12 20.5C11.7239 20.5 11.5 20.2761 11.5 20V4C11.5 3.72386 11.7239 3.5 12 3.5Z" fill="#414141"/>
<path fill-rule="evenodd" clip-rule="evenodd" d="M11.6464 3.64645C11.8417 3.45118 12.1583 3.45118 12.3536 3.64645L18.3536 9.64645C18.5488 9.84171 18.5488 10.1583 18.3536 10.3536C18.1583 10.5488 17.8417 10.5488 17.6464 10.3536L12 4.70711L6.35355 10.3536C6.15829 10.5488 5.84171 10.5488 5.64645 10.3536C5.45118 10.1583 5.45118 9.84171 5.64645 9.64645L11.6464 3.64645Z" fill="#414141"/>
</svg>
