<svg width="24" height="24" viewBox="0 0 24 24" fill="none" xmlns="http://www.w3.org/2000/svg">
<path fill-rule="evenodd" clip-rule="evenodd" d="M12.5391 3.52099C12.4582 3.47708 12.3255 3.44456 12.0972 3.4902C11.8731 3.53502 11.7219 3.62362 11.6137 3.73544C11.5027 3.85027 11.4115 4.01641 11.3542 4.25264C11.2359 4.73994 11.2806 5.44732 11.5001 6.33282C11.6896 7.0972 11.9981 7.95129 12.393 8.84015C12.6675 7.76632 12.858 6.77064 12.9389 5.92125C13.031 4.95442 12.9722 4.256 12.7976 3.84962C12.7153 3.65813 12.6222 3.56604 12.5391 3.52099ZM13.0543 10.2083C13.503 8.67444 13.8196 7.22178 13.9344 6.01607C14.0298 5.01414 13.9949 4.10319 13.7164 3.45488C13.5721 3.11903 13.3488 2.82245 13.0158 2.64191C12.6808 2.46024 12.2979 2.43027 11.9011 2.50962C11.5002 2.58981 11.1593 2.76685 10.8949 3.04029C10.6333 3.31072 10.4716 3.64947 10.3824 4.01677C10.2077 4.73653 10.2958 5.63073 10.5295 6.5734C10.8115 7.71114 11.3275 9.00404 11.9814 10.3066C11.7068 11.2093 11.3859 12.1427 11.0319 13.0719C10.6319 14.122 10.1927 15.1587 9.73511 16.1318C8.20636 16.7648 6.81077 17.5076 5.78863 18.2906C5.02936 18.8721 4.41743 19.5198 4.15298 20.2123C4.01691 20.5686 3.96976 20.9457 4.05312 21.3259C4.13636 21.7055 4.34115 22.0493 4.64557 22.3537C4.9203 22.6284 5.25845 22.7757 5.63451 22.7701C5.99163 22.7647 6.3318 22.6225 6.63859 22.4233C7.24616 22.0288 7.86934 21.3142 8.47299 20.4405C9.14141 19.473 9.82429 18.2532 10.471 16.9124C11.0954 16.6643 11.7437 16.4338 12.3995 16.2268C13.3856 15.9154 14.3747 15.6613 15.3107 15.48C16.1292 16.4805 16.968 17.3264 17.7545 17.8907C18.4446 18.3861 19.1863 18.7318 19.8846 18.6596C20.6576 18.5796 21.1863 18.0197 21.4735 17.1582C21.6172 16.7272 21.6662 16.3157 21.5971 15.9343C21.5266 15.5456 21.3387 15.2196 21.0627 14.9624C20.5326 14.4684 19.7094 14.2538 18.8166 14.1888C17.9225 14.1238 16.8584 14.2026 15.7214 14.3903C15.2352 13.763 14.7538 13.0761 14.296 12.3567C13.849 11.6543 13.4297 10.9291 13.0543 10.2083ZM12.6391 11.5389C12.4314 12.1667 12.2056 12.7999 11.9664 13.4279C11.6846 14.1676 11.3826 14.904 11.067 15.6197C11.4086 15.4979 11.7532 15.3822 12.0984 15.2732C12.9388 15.0078 13.7925 14.7791 14.6249 14.5997C14.2205 14.0558 13.8266 13.4817 13.4523 12.8935C13.1706 12.4508 12.8981 11.9971 12.6391 11.5389ZM16.4589 15.291C17.1082 16.0389 17.7493 16.6562 18.3375 17.0783C18.9755 17.5361 19.4603 17.6982 19.7816 17.6649C20.0281 17.6394 20.3119 17.4806 20.5248 16.842C20.6311 16.523 20.6445 16.286 20.6131 16.1127C20.583 15.9468 20.5072 15.8117 20.3809 15.6939C20.1062 15.4379 19.5701 15.2463 18.7441 15.1862C18.0866 15.1384 17.3083 15.1779 16.4589 15.291ZM9.04042 17.5321C8.01031 18.0189 7.09789 18.5473 6.39672 19.0844C5.68726 19.6279 5.25236 20.1365 5.08718 20.569C5.00844 20.7752 4.99507 20.9528 5.02992 21.1117C5.06489 21.2712 5.15702 21.4509 5.35266 21.6466C5.45293 21.7468 5.53666 21.7714 5.61958 21.7702C5.72145 21.7686 5.87738 21.7253 6.09402 21.5846C6.53333 21.2994 7.06641 20.7171 7.65026 19.8721C8.10816 19.2093 8.57813 18.4135 9.04042 17.5321Z" fill="#414141"/>
</svg>
