<svg width="24" height="24" viewBox="0 0 24 24" fill="none" xmlns="http://www.w3.org/2000/svg">
<path fill-rule="evenodd" clip-rule="evenodd" d="M18.149 3.29758C16.6151 4.12781 14.8541 5.55581 13.3671 7.38432L13.3669 7.38457C11.8572 9.23863 10.8158 10.8957 10.3129 12.2006C10.0611 12.8539 9.95695 13.3871 9.97455 13.7956C9.99162 14.1917 10.1199 14.447 10.3222 14.6159C10.5323 14.7913 10.875 14.9075 11.3739 14.8916C11.8701 14.8759 12.4817 14.7292 13.1693 14.4274C14.5429 13.8246 16.1542 12.6313 17.6386 10.8084C19.1451 8.95843 20.3315 7.07099 20.9755 5.52922C21.2987 4.75548 21.4726 4.09828 21.4985 3.59204C21.5246 3.08173 21.3992 2.81444 21.2367 2.67881C21.0661 2.53639 20.7318 2.44427 20.1628 2.53695C19.6078 2.62734 18.9177 2.88156 18.149 3.29758ZM20.002 1.54996C20.69 1.43791 21.3806 1.49635 21.8775 1.91108C22.3825 2.3326 22.5311 2.97905 22.4972 3.64306C22.4631 4.31115 22.2431 5.08887 21.8982 5.91464C21.206 7.5719 19.9595 9.54189 18.414 11.4398C16.8465 13.3647 15.1131 14.6665 13.5712 15.3431C12.8011 15.6811 12.0623 15.8703 11.4056 15.8911C10.7517 15.9119 10.139 15.7655 9.68148 15.3837C9.2163 14.9954 9.00178 14.4489 8.97548 13.8386C8.94971 13.2408 9.10157 12.5629 9.37982 11.8409C9.93704 10.3951 11.0519 8.64382 12.5915 6.75314C14.1539 4.83196 16.0142 3.31595 17.6731 2.41814C18.5008 1.97012 19.2999 1.66431 20.002 1.54996Z" fill="#414141"/>
<path fill-rule="evenodd" clip-rule="evenodd" d="M6.47467 14.0478C7.67897 13.4812 9.16958 13.4628 10.3537 14.6468C11.1743 15.4675 11.6128 16.3811 11.72 17.3017C11.8269 18.2191 11.6008 19.1079 11.1526 19.8769C10.2624 21.4042 8.47369 22.5001 6.50001 22.5001C5.44924 22.5001 4.75923 22.3673 4.06432 22.0894C3.64617 21.9221 3.21207 21.6938 2.70111 21.425C2.41961 21.2769 2.11477 21.1165 1.77641 20.9474C1.58927 20.8538 1.48017 20.6536 1.503 20.4456C1.52582 20.2376 1.67574 20.0658 1.87872 20.0151C2.78976 19.7873 3.14987 19.4757 3.37543 19.0697C3.50137 18.843 3.59818 18.5624 3.69642 18.1921C3.75257 17.9805 3.80295 17.766 3.85881 17.5281C3.90499 17.3315 3.95491 17.1189 4.01494 16.8788C4.3067 15.7117 5.29757 14.6016 6.47467 14.0478ZM6.90039 14.9526C5.95246 15.3986 5.19333 16.2883 4.98509 17.1213C4.93392 17.3259 4.88526 17.5324 4.83831 17.7316C4.77757 17.9892 4.7197 18.2348 4.66298 18.4486C4.5581 18.8439 4.43616 19.2195 4.2496 19.5554C4.01006 19.9865 3.68406 20.3168 3.22661 20.5709C3.22931 20.5723 3.232 20.5738 3.23468 20.5752C3.70364 20.8224 4.06228 21.0115 4.43571 21.1609C4.9908 21.3829 5.55079 21.5001 6.50001 21.5001C8.11471 21.5001 9.57598 20.596 10.2887 19.3733C10.6419 18.7674 10.8055 18.0938 10.7267 17.4174C10.6483 16.7444 10.3258 16.0332 9.64659 15.354C8.83057 14.538 7.82112 14.5194 6.90039 14.9526Z" fill="#414141"/>
<path fill-rule="evenodd" clip-rule="evenodd" d="M1.50016 5.88895C1.49571 5.43926 1.58668 4.99375 1.76708 4.58181C1.94576 4.17382 2.20812 3.80796 2.53714 3.50789L3.52721 2.51882C4.08629 1.98638 4.79229 1.63393 5.55381 1.50682C5.58746 1.50121 5.6216 1.49905 5.65569 1.50038C6.53637 1.53485 7.37188 1.89872 7.99693 2.51972L10.8384 5.13191C11.0417 5.3188 11.055 5.6351 10.8681 5.83839C10.6812 6.04168 10.3649 6.05498 10.1616 5.86809L7.31274 3.24909C7.3076 3.24437 7.30257 3.23954 7.29764 3.23461C6.86177 2.79889 6.28166 2.53865 5.66762 2.50213C5.12471 2.60286 4.6222 2.85868 4.22111 3.23912L3.23551 4.22373C3.22966 4.22957 3.22368 4.23526 3.21755 4.2408C2.98893 4.44761 2.80677 4.70057 2.6831 4.98296C2.5608 5.26223 2.49845 5.564 2.50003 5.86878C2.53491 6.49921 2.79682 7.0958 3.23746 7.54821L6.85268 11.1456C7.04842 11.3404 7.04921 11.6569 6.85443 11.8527C6.65965 12.0484 6.34307 12.0492 6.14732 11.8544L2.52437 8.24937C1.9098 7.62003 1.54589 6.78812 1.50079 5.90963C1.50044 5.90274 1.50022 5.89585 1.50016 5.88895Z" fill="#414141"/>
<path fill-rule="evenodd" clip-rule="evenodd" d="M13.6392 18.6538C13.8304 18.4546 14.1469 18.448 14.3462 18.6392L17.2389 21.4146L21.4929 21.4908L21.433 17.2256L18.6411 14.3482C18.4489 14.15 18.4536 13.8334 18.6518 13.6411C18.85 13.4489 19.1666 13.4536 19.3589 13.6518L22.289 16.6718C22.3778 16.7634 22.4283 16.8854 22.4301 17.013L22.5001 21.993C22.502 22.1283 22.4489 22.2587 22.353 22.3542C22.2571 22.4498 22.1265 22.5023 21.9912 22.4999L17.0252 22.4109C16.8993 22.4087 16.7788 22.359 16.688 22.2718L13.6538 19.3608C13.4546 19.1696 13.448 18.8531 13.6392 18.6538Z" fill="#414141"/>
<path fill-rule="evenodd" clip-rule="evenodd" d="M18.8202 18.5849C19.4449 18.068 20.2342 17.7909 21.046 17.8047C21.3221 17.8094 21.5498 17.5894 21.5545 17.3133C21.5592 17.0372 21.3392 16.8095 21.0631 16.8048C19.9915 16.7866 18.95 17.1601 18.1343 17.8552L18.0966 17.8873L18.0659 17.9262C17.3225 18.8691 16.8236 19.9811 16.6133 21.1632C16.5649 21.4351 16.7461 21.6947 17.018 21.743C17.2899 21.7914 17.5495 21.6102 17.5978 21.3383C17.7763 20.3348 18.1959 19.39 18.8202 18.5849Z" fill="#414141"/>
</svg>
