<svg width="24" height="24" viewBox="0 0 24 24" fill="none" xmlns="http://www.w3.org/2000/svg">
<path fill-rule="evenodd" clip-rule="evenodd" d="M21 17.5C21.2761 17.5 21.5 17.7239 21.5 18L21.5 22C21.5 22.2761 21.2761 22.5 21 22.5L3 22.5C2.72386 22.5 2.5 22.2761 2.5 22L2.5 18C2.5 17.7239 2.72386 17.5 3 17.5L21 17.5ZM20.5 18.5L3.5 18.5L3.5 21.5L20.5 21.5L20.5 18.5Z" fill="#414141"/>
<path fill-rule="evenodd" clip-rule="evenodd" d="M16 9.5C16.2761 9.5 16.5 9.72386 16.5 10L16.5 14C16.5 14.2761 16.2761 14.5 16 14.5L3 14.5C2.72386 14.5 2.5 14.2761 2.5 14L2.5 10C2.5 9.72386 2.72386 9.5 3 9.5L16 9.5ZM15.5 10.5L3.5 10.5L3.5 13.5L15.5 13.5L15.5 10.5Z" fill="#414141"/>
<path fill-rule="evenodd" clip-rule="evenodd" d="M11 1.5C11.2761 1.5 11.5 1.72386 11.5 2L11.5 6C11.5 6.27614 11.2761 6.5 11 6.5L3 6.5C2.72386 6.5 2.5 6.27614 2.5 6L2.5 2C2.5 1.72386 2.72386 1.5 3 1.5L11 1.5ZM10.5 2.5L3.5 2.5L3.5 5.5L10.5 5.5L10.5 2.5Z" fill="#414141"/>
</svg>
