<svg width="24" height="24" viewBox="0 0 24 24" fill="none" xmlns="http://www.w3.org/2000/svg">
<path fill-rule="evenodd" clip-rule="evenodd" d="M7.5 12C7.5 9.51472 9.51472 7.5 12 7.5C14.4853 7.5 16.5 9.51472 16.5 12C16.5 14.4853 14.4853 16.5 12 16.5C9.51472 16.5 7.5 14.4853 7.5 12ZM12 8.5C10.067 8.5 8.5 10.067 8.5 12C8.5 13.933 10.067 15.5 12 15.5C13.933 15.5 15.5 13.933 15.5 12C15.5 10.067 13.933 8.5 12 8.5Z" fill="#414141"/>
<path fill-rule="evenodd" clip-rule="evenodd" d="M2.58554 7.35229C4.74563 2.97701 9.63512 0.66637 14.3869 1.77529C19.1387 2.88422 22.5003 7.12043 22.5006 11.9999V12.9999C22.5006 14.9329 20.9336 16.4999 19.0006 16.4999C17.0676 16.4999 15.5006 14.9329 15.5006 12.9999V11.9999C15.5006 11.7238 15.7245 11.4999 16.0006 11.4999C16.2768 11.4999 16.5006 11.7238 16.5006 11.9999V12.9999C16.5006 14.3806 17.6199 15.4999 19.0006 15.4999C20.3813 15.4999 21.5006 14.3806 21.5006 12.9999V11.9999C21.5006 11.9999 21.5006 12 21.5006 11.9999C21.5003 7.58522 18.4588 3.75243 14.1596 2.74913C9.86041 1.74582 5.43658 3.8364 3.48222 7.79498C1.52785 11.7536 2.55805 16.5368 5.96872 19.3399C9.37939 22.143 14.2716 22.2271 17.7766 19.5429C17.9959 19.375 18.3097 19.4167 18.4776 19.6359C18.6455 19.8552 18.6039 20.169 18.3846 20.3369C14.5106 23.3036 9.10347 23.2106 5.33378 20.1125C1.5641 17.0143 0.425454 11.7276 2.58554 7.35229Z" fill="#414141"/>
</svg>
