<svg width="24" height="24" viewBox="0 0 24 24" fill="none" xmlns="http://www.w3.org/2000/svg">
<path fill-rule="evenodd" clip-rule="evenodd" d="M0.5 8C0.5 6.61929 1.61929 5.5 3 5.5H17C18.3807 5.5 19.5 6.61929 19.5 8V16C19.5 17.3807 18.3807 18.5 17 18.5H3C1.61929 18.5 0.5 17.3807 0.5 16V8ZM3 6.5C2.17157 6.5 1.5 7.17157 1.5 8V16C1.5 16.8284 2.17157 17.5 3 17.5H17C17.8284 17.5 18.5 16.8284 18.5 16V8C18.5 7.17157 17.8284 6.5 17 6.5H3Z" fill="#414141"/>
<path fill-rule="evenodd" clip-rule="evenodd" d="M23 10.5C23.2761 10.5 23.5 10.7239 23.5 11V13C23.5 13.2761 23.2761 13.5 23 13.5C22.7239 13.5 22.5 13.2761 22.5 13V11C22.5 10.7239 22.7239 10.5 23 10.5Z" fill="#414141"/>
</svg>
