<svg width="24" height="24" viewBox="0 0 24 24" fill="none" xmlns="http://www.w3.org/2000/svg">
<path fill-rule="evenodd" clip-rule="evenodd" d="M15.2778 3.38436C13.2821 2.21831 10.8173 2.19975 8.80431 3.33562C8.56381 3.47132 8.25884 3.38637 8.12313 3.14587C7.98743 2.90537 8.07238 2.6004 8.31288 2.4647C10.6356 1.15408 13.4796 1.17549 15.7823 2.52094C18.085 3.86639 19.5 6.33346 19.4986 9.00041L18.9986 9.00016H19.4986V9.00041V13.0002C19.4986 13.2763 19.2747 13.5002 18.9986 13.5002C18.7225 13.5002 18.4986 13.2763 18.4986 13.0002V9.00016L18.4986 8.9999C18.4998 6.68854 17.2734 4.55042 15.2778 3.38436ZM6.00937 5.33587C6.25474 5.46255 6.35096 5.76416 6.22429 6.00953C5.74707 6.93388 5.49869 7.95926 5.5 8.99953L5.5 9.00016L5.5 14.0002C5.5 14.9795 5.09777 15.8649 4.44949 16.5002H17C17.2761 16.5002 17.5 16.724 17.5 17.0002C17.5 17.2763 17.2761 17.5002 17 17.5002H2C1.72386 17.5002 1.5 17.2763 1.5 17.0002C1.5 16.724 1.72386 16.5002 2 16.5002C3.38071 16.5002 4.5 15.3809 4.5 14.0002V9.0004M10.0191 20.5677C10.258 20.4291 10.5639 20.5104 10.7025 20.7493C10.9708 21.2119 11.4652 21.4966 12 21.4966C12.5348 21.4966 13.0292 21.2119 13.2975 20.7493C13.4361 20.5104 13.742 20.4291 13.9809 20.5677C14.2197 20.7062 14.3011 21.0122 14.1625 21.251C13.7153 22.022 12.8913 22.4966 12 22.4966C11.1087 22.4966 10.2847 22.022 9.8375 21.251C9.69894 21.0122 9.78025 20.7062 10.0191 20.5677Z" fill="#414141"/>
<path fill-rule="evenodd" clip-rule="evenodd" d="M0.646447 0.646447C0.841709 0.451184 1.15829 0.451184 1.35355 0.646447L23.3536 22.6464C23.5488 22.8417 23.5488 23.1583 23.3536 23.3536C23.1583 23.5488 22.8417 23.5488 22.6464 23.3536L0.646447 1.35355C0.451184 1.15829 0.451184 0.841709 0.646447 0.646447Z" fill="#414141"/>
</svg>
