<svg width="24" height="24" viewBox="0 0 24 24" fill="none" xmlns="http://www.w3.org/2000/svg">
<path fill-rule="evenodd" clip-rule="evenodd" d="M11.8087 0.538075C11.9955 0.460684 12.2106 0.503462 12.3536 0.646461L17.8536 6.14646C18.0488 6.34172 18.0488 6.65831 17.8536 6.85357L12.7071 12L17.8536 17.1465C18.0488 17.3417 18.0488 17.6583 17.8536 17.8536L12.3536 23.3536C12.2106 23.4966 11.9955 23.5393 11.8087 23.462C11.6218 23.3846 11.5 23.2022 11.5 23V13.2071L6.85355 17.8536C6.65829 18.0488 6.34171 18.0488 6.14645 17.8536C5.95118 17.6583 5.95118 17.3417 6.14645 17.1465L11.2929 12L6.14645 6.85357C5.95118 6.65831 5.95118 6.34172 6.14645 6.14646C6.34171 5.9512 6.65829 5.9512 6.85355 6.14646L11.5 10.7929V1.00001C11.5 0.797783 11.6218 0.615465 11.8087 0.538075ZM12.5 13.2071L16.7929 17.5L12.5 21.7929V13.2071ZM12.5 10.7929V2.20712L16.7929 6.50001L12.5 10.7929Z" fill="#414141"/>
</svg>
