<svg width="24" height="24" viewBox="0 0 24 24" fill="none" xmlns="http://www.w3.org/2000/svg">
<path fill-rule="evenodd" clip-rule="evenodd" d="M4.5 4C4.5 3.72386 4.72386 3.5 5 3.5H13C15.4853 3.5 17.5 5.51472 17.5 8C17.5 10.4853 15.4853 12.5 13 12.5H5C4.72386 12.5 4.5 12.2761 4.5 12V4ZM5.5 4.5V11.5H13C14.933 11.5 16.5 9.933 16.5 8C16.5 6.067 14.933 4.5 13 4.5H5.5Z" fill="#414141"/>
<path fill-rule="evenodd" clip-rule="evenodd" d="M4.5 12C4.5 11.7239 4.72386 11.5 5 11.5H14C16.4853 11.5 18.5 13.5147 18.5 16C18.5 18.4853 16.4853 20.5 14 20.5H5C4.72386 20.5 4.5 20.2761 4.5 20V12ZM5.5 12.5V19.5H14C15.933 19.5 17.5 17.933 17.5 16C17.5 14.067 15.933 12.5 14 12.5H5.5Z" fill="#414141"/>
</svg>
