<svg width="24" height="24" viewBox="0 0 24 24" fill="none" xmlns="http://www.w3.org/2000/svg">
<path fill-rule="evenodd" clip-rule="evenodd" d="M7 3.5C6.17157 3.5 5.5 4.17157 5.5 5V20.0284L11.7094 15.5931C11.8832 15.469 12.1168 15.469 12.2906 15.5931L18.5 20.0284V5C18.5 4.17157 17.8284 3.5 17 3.5H7ZM4.5 5C4.5 3.61929 5.61929 2.5 7 2.5H17C18.3807 2.5 19.5 3.61929 19.5 5V21C19.5 21.1873 19.3953 21.3589 19.2288 21.4446C19.0623 21.5303 18.8618 21.5157 18.7094 21.4069L12 16.6145L5.29062 21.4069C5.13821 21.5157 4.93774 21.5303 4.77121 21.4446C4.60467 21.3589 4.5 21.1873 4.5 21V5Z" fill="#414141"/>
</svg>
