<svg width="24" height="24" viewBox="0 0 24 24" fill="none" xmlns="http://www.w3.org/2000/svg">
<path fill-rule="evenodd" clip-rule="evenodd" d="M6.5 17.5C5.39543 17.5 4.5 18.3954 4.5 19.5C4.5 19.7761 4.27614 20 4 20C3.72386 20 3.5 19.7761 3.5 19.5C3.5 17.8431 4.84315 16.5 6.5 16.5H20C20.2761 16.5 20.5 16.7239 20.5 17C20.5 17.2761 20.2761 17.5 20 17.5H6.5Z" fill="#414141"/>
<path fill-rule="evenodd" clip-rule="evenodd" d="M6.5 2.5C5.39543 2.5 4.5 3.39543 4.5 4.5V19.5C4.5 20.6046 5.39543 21.5 6.5 21.5H19.5V2.5H6.5ZM3.5 4.5C3.5 2.84315 4.84315 1.5 6.5 1.5H20C20.2761 1.5 20.5 1.72386 20.5 2V22C20.5 22.2761 20.2761 22.5 20 22.5H6.5C4.84315 22.5 3.5 21.1569 3.5 19.5V4.5Z" fill="#414141"/>
</svg>
