<svg width="24" height="24" viewBox="0 0 24 24" fill="none" xmlns="http://www.w3.org/2000/svg">
<path fill-rule="evenodd" clip-rule="evenodd" d="M1.5 9C1.5 7.61929 2.61929 6.5 4 6.5H20C21.3807 6.5 22.5 7.61929 22.5 9V19C22.5 20.3807 21.3807 21.5 20 21.5H4C2.61929 21.5 1.5 20.3807 1.5 19V9ZM4 7.5C3.17157 7.5 2.5 8.17157 2.5 9V19C2.5 19.8284 3.17157 20.5 4 20.5H20C20.8284 20.5 21.5 19.8284 21.5 19V9C21.5 8.17157 20.8284 7.5 20 7.5H4Z" fill="#414141"/>
<path fill-rule="evenodd" clip-rule="evenodd" d="M7.5 5C7.5 3.61929 8.61929 2.5 10 2.5H14C15.3807 2.5 16.5 3.61929 16.5 5V21C16.5 21.2761 16.2761 21.5 16 21.5C15.7239 21.5 15.5 21.2761 15.5 21V5C15.5 4.17157 14.8284 3.5 14 3.5H10C9.17157 3.5 8.5 4.17157 8.5 5V21C8.5 21.2761 8.27614 21.5 8 21.5C7.72386 21.5 7.5 21.2761 7.5 21V5Z" fill="#414141"/>
</svg>
