<svg width="24" height="24" viewBox="0 0 24 24" fill="none" xmlns="http://www.w3.org/2000/svg">
<path fill-rule="evenodd" clip-rule="evenodd" d="M8.58397 2.72265C8.67671 2.58355 8.83282 2.5 9 2.5H15C15.1672 2.5 15.3233 2.58355 15.416 2.72265L17.2676 5.5H21C22.3807 5.5 23.5 6.61929 23.5 8V19C23.5 20.3807 22.3807 21.5 21 21.5H3C1.61929 21.5 0.5 20.3807 0.5 19V8C0.5 6.61929 1.61929 5.5 3 5.5H6.73241L8.58397 2.72265ZM9.26759 3.5L7.41603 6.27735C7.32329 6.41645 7.16718 6.5 7 6.5H3C2.17157 6.5 1.5 7.17157 1.5 8V19C1.5 19.8284 2.17157 20.5 3 20.5H21C21.8284 20.5 22.5 19.8284 22.5 19V8C22.5 7.17157 21.8284 6.5 21 6.5H17C16.8328 6.5 16.6767 6.41645 16.584 6.27735L14.7324 3.5H9.26759Z" fill="#414141"/>
<path fill-rule="evenodd" clip-rule="evenodd" d="M7.5 13C7.5 10.5147 9.51472 8.5 12 8.5C14.4853 8.5 16.5 10.5147 16.5 13C16.5 15.4853 14.4853 17.5 12 17.5C9.51472 17.5 7.5 15.4853 7.5 13ZM12 9.5C10.067 9.5 8.5 11.067 8.5 13C8.5 14.933 10.067 16.5 12 16.5C13.933 16.5 15.5 14.933 15.5 13C15.5 11.067 13.933 9.5 12 9.5Z" fill="#414141"/>
</svg>
