<svg width="24" height="24" viewBox="0 0 24 24" fill="none" xmlns="http://www.w3.org/2000/svg">
<path fill-rule="evenodd" clip-rule="evenodd" d="M0.646447 0.646447C0.841709 0.451184 1.15829 0.451184 1.35355 0.646447L23.3536 22.6464C23.5488 22.8417 23.5488 23.1583 23.3536 23.3536C23.1583 23.5488 22.8417 23.5488 22.6464 23.3536L0.646447 1.35355C0.451184 1.15829 0.451184 0.841709 0.646447 0.646447Z" fill="#414141"/>
<path fill-rule="evenodd" clip-rule="evenodd" d="M8.5 3C8.5 2.72386 8.72386 2.5 9 2.5H15C15.1672 2.5 15.3233 2.58355 15.416 2.72265L17.2676 5.5H21C22.3807 5.5 23.5 6.61929 23.5 8V17.34C23.5 17.6161 23.2761 17.84 23 17.84C22.7239 17.84 22.5 17.6161 22.5 17.34V8C22.5 7.17157 21.8284 6.5 21 6.5H17C16.8328 6.5 16.6767 6.41645 16.584 6.27735L14.7324 3.5H9C8.72386 3.5 8.5 3.27614 8.5 3ZM3 6.5C2.17157 6.5 1.5 7.17157 1.5 8V19C1.5 19.8284 2.17157 20.5 3 20.5H21C21.2761 20.5 21.5 20.7239 21.5 21C21.5 21.2761 21.2761 21.5 21 21.5H3C1.61929 21.5 0.5 20.3807 0.5 19V8C0.5 6.61929 1.61929 5.5 3 5.5H6C6.27614 5.5 6.5 5.72386 6.5 6C6.5 6.27614 6.27614 6.5 6 6.5H3ZM10.1344 9.43761C10.2904 9.66551 10.232 9.97667 10.0042 10.1326C8.84359 10.9267 8.27101 12.3384 8.55043 13.7166C8.82985 15.0948 9.90699 16.1719 11.2852 16.4513C12.6634 16.7308 14.075 16.1582 14.8692 14.9976C15.0251 14.7697 15.3363 14.7114 15.5642 14.8673C15.792 15.0233 15.8504 15.3344 15.6944 15.5623C14.6734 17.0545 12.8585 17.7906 11.0865 17.4314C9.31452 17.0721 7.92962 15.6872 7.57037 13.9153C7.21112 12.1433 7.94729 10.3283 9.43944 9.30733C9.66734 9.15139 9.9785 9.20972 10.1344 9.43761Z" fill="#414141"/>
</svg>
