<svg width="24" height="24" viewBox="0 0 24 24" fill="none" xmlns="http://www.w3.org/2000/svg">
<path fill-rule="evenodd" clip-rule="evenodd" d="M4.0001 4.5C3.17167 4.5 2.5001 5.17157 2.5001 6V8C2.5001 8.27614 2.27624 8.5 2.0001 8.5C1.72396 8.5 1.5001 8.27614 1.5001 8V6C1.5001 4.61929 2.61939 3.5 4.0001 3.5H20.0001C21.3808 3.5 22.5001 4.61929 22.5001 6V18C22.5001 19.3807 21.3808 20.5 20.0001 20.5H14.0001C13.724 20.5 13.5001 20.2761 13.5001 20C13.5001 19.7239 13.724 19.5 14.0001 19.5H20.0001C20.8285 19.5 21.5001 18.8284 21.5001 18V6C21.5001 5.17157 20.8285 4.5 20.0001 4.5H4.0001ZM1.50316 11.9947C1.53369 11.7203 1.78092 11.5225 2.05537 11.5531C6.4706 12.0441 9.95597 15.5295 10.447 19.9447C10.4776 20.2192 10.2798 20.4664 10.0054 20.4969C9.73092 20.5275 9.48369 20.3297 9.45316 20.0553C9.01379 16.1048 5.8953 12.9863 1.94483 12.5469C1.67038 12.5164 1.47264 12.2692 1.50316 11.9947ZM1.51018 16.0001C1.56536 15.7295 1.82944 15.5549 2.10001 15.6101C4.26073 16.0508 5.94935 17.7394 6.39001 19.9001C6.4452 20.1707 6.27059 20.4347 6.00001 20.4899C5.72944 20.5451 5.46536 20.3705 5.41018 20.0999C5.04964 18.3321 3.66804 16.9505 1.90018 16.5899C1.62961 16.5347 1.455 16.2707 1.51018 16.0001Z" fill="#414141"/>
</svg>
