<svg width="24" height="24" viewBox="0 0 24 24" fill="none" xmlns="http://www.w3.org/2000/svg">
<path fill-rule="evenodd" clip-rule="evenodd" d="M14.8666 4.31663C11.0235 2.60428 6.51196 3.62361 3.77842 6.82185C1.04488 10.0201 0.74055 14.6354 3.03047 18.1648C5.32038 21.6943 9.65905 23.2972 13.6936 22.1043C17.7282 20.9114 20.4977 17.2069 20.5001 12.9996V12.0699C20.5001 11.7938 20.7239 11.5699 21.0001 11.5699C21.2762 11.5699 21.5001 11.7938 21.5001 12.0699V12.9999C21.4974 17.65 18.4365 21.7448 13.9772 23.0633C9.51789 24.3818 4.72252 22.6101 2.19156 18.7091C-0.339398 14.8081 -0.00303388 9.70702 3.01825 6.17212C6.03953 2.63723 11.026 1.5106 15.2736 3.4032C15.5258 3.51559 15.6392 3.81118 15.5268 4.06341C15.4144 4.31565 15.1188 4.42902 14.8666 4.31663Z" fill="#414141"/>
<path fill-rule="evenodd" clip-rule="evenodd" d="M22.3536 3.64645C22.5488 3.84171 22.5488 4.15829 22.3536 4.35355L11.3536 15.3536C11.1583 15.5488 10.8417 15.5488 10.6464 15.3536L7.64645 12.3536C7.45118 12.1583 7.45118 11.8417 7.64645 11.6464C7.84171 11.4512 8.15829 11.4512 8.35355 11.6464L11 14.2929L21.6464 3.64645C21.8417 3.45118 22.1583 3.45118 22.3536 3.64645Z" fill="#414141"/>
</svg>
