<svg width="24" height="24" viewBox="0 0 24 24" fill="none" xmlns="http://www.w3.org/2000/svg">
<path fill-rule="evenodd" clip-rule="evenodd" d="M22.3536 2.64645C22.5488 2.84171 22.5488 3.15829 22.3536 3.35355L11.3536 14.3536C11.1583 14.5488 10.8417 14.5488 10.6464 14.3536L7.64645 11.3536C7.45118 11.1583 7.45118 10.8417 7.64645 10.6464C7.84171 10.4512 8.15829 10.4512 8.35355 10.6464L11 13.2929L21.6464 2.64645C21.8417 2.45118 22.1583 2.45118 22.3536 2.64645Z" fill="#414141"/>
<path fill-rule="evenodd" clip-rule="evenodd" d="M4 3.5C3.17157 3.5 2.5 4.17157 2.5 5V19C2.5 19.8284 3.17157 20.5 4 20.5H18C18.8284 20.5 19.5 19.8284 19.5 19V12C19.5 11.7239 19.7239 11.5 20 11.5C20.2761 11.5 20.5 11.7239 20.5 12V19C20.5 20.3807 19.3807 21.5 18 21.5H4C2.61929 21.5 1.5 20.3807 1.5 19V5C1.5 3.61929 2.61929 2.5 4 2.5H15C15.2761 2.5 15.5 2.72386 15.5 3C15.5 3.27614 15.2761 3.5 15 3.5H4Z" fill="#414141"/>
</svg>
