<svg width="24" height="24" viewBox="0 0 24 24" fill="none" xmlns="http://www.w3.org/2000/svg">
<path fill-rule="evenodd" clip-rule="evenodd" d="M11.6464 5.64645C11.8417 5.45118 12.1583 5.45118 12.3536 5.64645L17.3536 10.6464C17.5488 10.8417 17.5488 11.1583 17.3536 11.3536C17.1583 11.5488 16.8417 11.5488 16.6464 11.3536L12 6.70711L7.35355 11.3536C7.15829 11.5488 6.84171 11.5488 6.64645 11.3536C6.45118 11.1583 6.45118 10.8417 6.64645 10.6464L11.6464 5.64645Z" fill="#414141"/>
<path fill-rule="evenodd" clip-rule="evenodd" d="M11.6464 12.6464C11.8417 12.4512 12.1583 12.4512 12.3536 12.6464L17.3536 17.6464C17.5488 17.8417 17.5488 18.1583 17.3536 18.3536C17.1583 18.5488 16.8417 18.5488 16.6464 18.3536L12 13.7071L7.35355 18.3536C7.15829 18.5488 6.84171 18.5488 6.64645 18.3536C6.45118 18.1583 6.45118 17.8417 6.64645 17.6464L11.6464 12.6464Z" fill="#414141"/>
</svg>
