<svg width="24" height="24" viewBox="0 0 24 24" fill="none" xmlns="http://www.w3.org/2000/svg">
<path fill-rule="evenodd" clip-rule="evenodd" d="M6.64645 12.6464C6.84171 12.4512 7.15829 12.4512 7.35355 12.6464L12 17.2929L16.6464 12.6464C16.8417 12.4512 17.1583 12.4512 17.3536 12.6464C17.5488 12.8417 17.5488 13.1583 17.3536 13.3536L12.3536 18.3536C12.1583 18.5488 11.8417 18.5488 11.6464 18.3536L6.64645 13.3536C6.45118 13.1583 6.45118 12.8417 6.64645 12.6464Z" fill="#414141"/>
<path fill-rule="evenodd" clip-rule="evenodd" d="M6.64645 5.64645C6.84171 5.45118 7.15829 5.45118 7.35355 5.64645L12 10.2929L16.6464 5.64645C16.8417 5.45118 17.1583 5.45118 17.3536 5.64645C17.5488 5.84171 17.5488 6.15829 17.3536 6.35355L12.3536 11.3536C12.1583 11.5488 11.8417 11.5488 11.6464 11.3536L6.64645 6.35355C6.45118 6.15829 6.45118 5.84171 6.64645 5.64645Z" fill="#414141"/>
</svg>
