<svg width="24" height="24" viewBox="0 0 24 24" fill="none" xmlns="http://www.w3.org/2000/svg">
<path fill-rule="evenodd" clip-rule="evenodd" d="M1.5 12C1.5 6.20101 6.20101 1.5 12 1.5C17.799 1.5 22.5 6.20101 22.5 12C22.5 17.799 17.799 22.5 12 22.5C6.20101 22.5 1.5 17.799 1.5 12ZM12 2.5C6.75329 2.5 2.5 6.75329 2.5 12C2.5 17.2467 6.75329 21.5 12 21.5C17.2467 21.5 21.5 17.2467 21.5 12C21.5 6.75329 17.2467 2.5 12 2.5Z" fill="#414141"/>
<path fill-rule="evenodd" clip-rule="evenodd" d="M7.5 12C7.5 9.51472 9.51472 7.5 12 7.5C14.4853 7.5 16.5 9.51472 16.5 12C16.5 14.4853 14.4853 16.5 12 16.5C9.51472 16.5 7.5 14.4853 7.5 12ZM12 8.5C10.067 8.5 8.5 10.067 8.5 12C8.5 13.933 10.067 15.5 12 15.5C13.933 15.5 15.5 13.933 15.5 12C15.5 10.067 13.933 8.5 12 8.5Z" fill="#414141"/>
<path fill-rule="evenodd" clip-rule="evenodd" d="M11.5 8C11.5 7.72386 11.7239 7.5 12 7.5H21.17C21.4461 7.5 21.67 7.72386 21.67 8C21.67 8.27614 21.4461 8.5 21.17 8.5H12C11.7239 8.5 11.5 8.27614 11.5 8Z" fill="#414141"/>
<path fill-rule="evenodd" clip-rule="evenodd" d="M3.69906 5.62727C3.93813 5.48906 4.24397 5.57083 4.38218 5.8099L8.97218 13.7499C9.11038 13.989 9.02861 14.2948 8.78954 14.433C8.55047 14.5712 8.24463 14.4895 8.10643 14.2504L3.51643 6.31038C3.37822 6.07131 3.45999 5.76547 3.69906 5.62727Z" fill="#414141"/>
<path fill-rule="evenodd" clip-rule="evenodd" d="M15.7088 13.567C15.948 13.7049 16.0301 14.0107 15.8921 14.2499L11.3121 22.1899C11.1741 22.4291 10.8684 22.5112 10.6292 22.3732C10.39 22.2352 10.3079 21.9295 10.4459 21.6903L15.0259 13.7503C15.1639 13.5111 15.4696 13.429 15.7088 13.567Z" fill="#414141"/>
</svg>
