<svg width="24" height="24" viewBox="0 0 24 24" fill="none" xmlns="http://www.w3.org/2000/svg">
<path fill-rule="evenodd" clip-rule="evenodd" d="M6 4.5C5.17157 4.5 4.5 5.17157 4.5 6V20C4.5 20.8284 5.17157 21.5 6 21.5H18C18.8284 21.5 19.5 20.8284 19.5 20V6C19.5 5.17157 18.8284 4.5 18 4.5H16C15.7239 4.5 15.5 4.27614 15.5 4C15.5 3.72386 15.7239 3.5 16 3.5H18C19.3807 3.5 20.5 4.61929 20.5 6V20C20.5 21.3807 19.3807 22.5 18 22.5H6C4.61929 22.5 3.5 21.3807 3.5 20V6C3.5 4.61929 4.61929 3.5 6 3.5H8C8.27614 3.5 8.5 3.72386 8.5 4C8.5 4.27614 8.27614 4.5 8 4.5H6Z" fill="#414141"/>
<path fill-rule="evenodd" clip-rule="evenodd" d="M7.5 3C7.5 2.17157 8.17157 1.5 9 1.5H15C15.8284 1.5 16.5 2.17157 16.5 3V5C16.5 5.82843 15.8284 6.5 15 6.5H9C8.17157 6.5 7.5 5.82843 7.5 5V3ZM9 2.5C8.72386 2.5 8.5 2.72386 8.5 3V5C8.5 5.27614 8.72386 5.5 9 5.5H15C15.2761 5.5 15.5 5.27614 15.5 5V3C15.5 2.72386 15.2761 2.5 15 2.5H9Z" fill="#414141"/>
</svg>
