<svg width="24" height="24" viewBox="0 0 24 24" fill="none" xmlns="http://www.w3.org/2000/svg">
<path fill-rule="evenodd" clip-rule="evenodd" d="M5.56729 4.75815C5.70091 4.99981 5.61333 5.30403 5.37167 5.43766C2.3587 7.10362 0.866966 10.607 1.75407 13.9336C2.64117 17.2602 5.67924 19.5556 9.12167 19.5002L9.12972 19.5L18.1291 19.5001C18.6509 19.4995 19.1686 19.4081 19.6591 19.2301C19.9187 19.1359 20.2055 19.2699 20.2997 19.5295C20.3939 19.7891 20.2599 20.0759 20.0003 20.1701C19.4008 20.3877 18.7681 20.4993 18.1303 20.5001H9.13369C5.23396 20.5611 1.79286 17.9601 0.787831 14.1913C-0.217549 10.4211 1.47309 6.45062 4.88778 4.56253C5.12944 4.42891 5.43366 4.51649 5.56729 4.75815Z" fill="#414141"/>
<path d="M1 1L23 23" stroke="#414141" stroke-linecap="round" stroke-linejoin="round"/>
<path fill-rule="evenodd" clip-rule="evenodd" d="M9 4C9 3.72386 9.22386 3.5 9.5 3.5C11.5728 3.5 15.9831 4.70709 17.3846 9.50765C19.101 9.57581 20.934 10.104 22.1564 11.262C22.8224 11.893 23.302 12.7078 23.4698 13.7147C23.6367 14.7164 23.4894 15.8728 22.9642 17.1857C22.8617 17.4421 22.5707 17.5668 22.3143 17.4642C22.0579 17.3617 21.9332 17.0707 22.0358 16.8143C22.5106 15.6272 22.6133 14.6586 22.4834 13.8791C22.3543 13.1047 21.9901 12.482 21.4686 11.988C20.4079 10.9831 18.678 10.5 17 10.5C16.7706 10.5 16.5706 10.3439 16.5149 10.1213C15.3924 5.6311 11.3748 4.5 9.5 4.5C9.22386 4.5 9 4.27614 9 4Z" fill="#414141"/>
</svg>
