<svg width="25" height="24" viewBox="0 0 25 24" fill="none" xmlns="http://www.w3.org/2000/svg">
<path fill-rule="evenodd" clip-rule="evenodd" d="M8 12.5C8.27614 12.5 8.5 12.7239 8.5 13V21C8.5 21.2761 8.27614 21.5 8 21.5C7.72386 21.5 7.5 21.2761 7.5 21V13C7.5 12.7239 7.72386 12.5 8 12.5ZM16 12.5C16.2761 12.5 16.5 12.7239 16.5 13V21C16.5 21.2761 16.2761 21.5 16 21.5C15.7239 21.5 15.5 21.2761 15.5 21V13C15.5 12.7239 15.7239 12.5 16 12.5ZM12 14.5C12.2761 14.5 12.5 14.7239 12.5 15V23C12.5 23.2761 12.2761 23.5 12 23.5C11.7239 23.5 11.5 23.2761 11.5 23V15C11.5 14.7239 11.7239 14.5 12 14.5Z" fill="#414141"/>
<path fill-rule="evenodd" clip-rule="evenodd" d="M9 1.5C4.85786 1.5 1.5 4.85786 1.5 9C1.5 11.3683 2.5971 13.4799 4.31274 14.8552C4.52819 15.028 4.56284 15.3426 4.39012 15.5581C4.21741 15.7736 3.90272 15.8082 3.68726 15.6355C1.74505 14.0786 0.5 11.6845 0.5 9C0.5 4.30558 4.30558 0.5 9 0.5C12.933 0.5 16.2412 3.17074 17.2117 6.79741C17.7728 6.60458 18.3746 6.5 19 6.5C22.0376 6.5 24.5 8.96243 24.5 12C24.5 15.0376 22.0376 17.5 19 17.5C18.7239 17.5 18.5 17.2761 18.5 17C18.5 16.7239 18.7239 16.5 19 16.5C21.4853 16.5 23.5 14.4853 23.5 12C23.5 9.51472 21.4853 7.5 19 7.5C18.3085 7.5 17.6548 7.65561 17.0708 7.93324C16.931 7.99968 16.7683 7.99765 16.6303 7.92776C16.4922 7.85786 16.3943 7.72797 16.3651 7.576C15.7001 4.11483 12.6549 1.5 9 1.5Z" fill="#414141"/>
</svg>
