<svg width="24" height="24" viewBox="0 0 24 24" fill="none" xmlns="http://www.w3.org/2000/svg">
<path fill-rule="evenodd" clip-rule="evenodd" d="M0.763076 6.87526C1.73233 3.1227 5.11727 0.500977 8.99298 0.500977C12.7383 0.500977 16.0252 2.94921 17.1169 6.5003L17.9983 6.5003C17.9984 6.5003 17.9981 6.5003 17.9983 6.5003C20.8237 6.49771 23.192 8.63638 23.476 11.4476C23.7599 14.2589 21.8674 16.828 19.0983 17.3903C18.8276 17.4452 18.5637 17.2704 18.5088 16.9998C18.4538 16.7292 18.6287 16.4653 18.8993 16.4103C21.1649 15.9502 22.7134 13.8482 22.481 11.5481C22.2487 9.24787 20.3112 7.49797 17.9993 7.5003L16.7388 7.5003C16.5108 7.5003 16.3117 7.34608 16.2547 7.12534C15.3994 3.81426 12.4127 1.50098 8.99298 1.50098C5.57324 1.50098 2.58652 3.81426 1.7313 7.12534C0.876074 10.4364 2.36892 13.9067 5.36091 15.5628C5.60251 15.6966 5.68996 16.0008 5.55623 16.2424C5.4225 16.484 5.11823 16.5715 4.87663 16.4378C1.48572 14.5608 -0.20618 10.6278 0.763076 6.87526Z" fill="#414141"/>
<path fill-rule="evenodd" clip-rule="evenodd" d="M13.2774 10.584C13.5071 10.7372 13.5692 11.0476 13.416 11.2774L9.93426 16.5001H15C15.1844 16.5001 15.3538 16.6015 15.4408 16.7641C15.5278 16.9267 15.5183 17.124 15.416 17.2774L11.416 23.2774C11.2628 23.5072 10.9524 23.5693 10.7227 23.4161C10.4929 23.2629 10.4308 22.9525 10.584 22.7227L14.0657 17.5001H9C8.8156 17.5001 8.64617 17.3986 8.55916 17.236C8.47215 17.0734 8.48169 16.8761 8.58398 16.7227L12.584 10.7227C12.7372 10.4929 13.0476 10.4309 13.2774 10.584Z" fill="#414141"/>
</svg>
