<svg width="24" height="24" viewBox="0 0 24 24" fill="none" xmlns="http://www.w3.org/2000/svg">
<path fill-rule="evenodd" clip-rule="evenodd" d="M16.4044 11.3739C16.1283 11.2341 15.9325 10.9743 15.8741 10.6703C15.2535 7.4402 12.4106 5 9 5C5.13401 5 2 8.13401 2 12C2 15.866 5.13401 19 9 19H19C21.2091 19 23 17.2091 23 15C23 12.7909 21.2091 11 19 11C18.3844 11 17.8038 11.1384 17.2854 11.3848C17.0059 11.5177 16.6806 11.5136 16.4044 11.3739ZM16.6013 9.49897C15.5512 6.30557 12.5448 4 9 4C4.58172 4 1 7.58172 1 12C1 16.4183 4.58172 20 9 20H19C21.7614 20 24 17.7614 24 15C24 12.2386 21.7614 10 19 10C18.5892 10 18.19 10.0495 17.808 10.143C17.4765 10.224 17.158 10.3382 16.8561 10.4817C16.7916 10.1462 16.7062 9.81814 16.6013 9.49897Z" fill="#414141"/>
</svg>
