<svg width="24" height="24" viewBox="0 0 24 24" fill="none" xmlns="http://www.w3.org/2000/svg">
<path fill-rule="evenodd" clip-rule="evenodd" d="M8 18.5C8.27614 18.5 8.5 18.7239 8.5 19V21C8.5 21.2761 8.27614 21.5 8 21.5C7.72386 21.5 7.5 21.2761 7.5 21V19C7.5 18.7239 7.72386 18.5 8 18.5Z" fill="#414141"/>
<path fill-rule="evenodd" clip-rule="evenodd" d="M8 12.5C8.27614 12.5 8.5 12.7239 8.5 13V15C8.5 15.2761 8.27614 15.5 8 15.5C7.72386 15.5 7.5 15.2761 7.5 15V13C7.5 12.7239 7.72386 12.5 8 12.5Z" fill="#414141"/>
<path fill-rule="evenodd" clip-rule="evenodd" d="M16 18.5C16.2761 18.5 16.5 18.7239 16.5 19V21C16.5 21.2761 16.2761 21.5 16 21.5C15.7239 21.5 15.5 21.2761 15.5 21V19C15.5 18.7239 15.7239 18.5 16 18.5Z" fill="#414141"/>
<path fill-rule="evenodd" clip-rule="evenodd" d="M16 12.5C16.2761 12.5 16.5 12.7239 16.5 13V15C16.5 15.2761 16.2761 15.5 16 15.5C15.7239 15.5 15.5 15.2761 15.5 15V13C15.5 12.7239 15.7239 12.5 16 12.5Z" fill="#414141"/>
<path fill-rule="evenodd" clip-rule="evenodd" d="M12 20.5C12.2761 20.5 12.5 20.7239 12.5 21V23C12.5 23.2761 12.2761 23.5 12 23.5C11.7239 23.5 11.5 23.2761 11.5 23V21C11.5 20.7239 11.7239 20.5 12 20.5Z" fill="#414141"/>
<path fill-rule="evenodd" clip-rule="evenodd" d="M12 14.5C12.2761 14.5 12.5 14.7239 12.5 15V17C12.5 17.2761 12.2761 17.5 12 17.5C11.7239 17.5 11.5 17.2761 11.5 17V15C11.5 14.7239 11.7239 14.5 12 14.5Z" fill="#414141"/>
<path fill-rule="evenodd" clip-rule="evenodd" d="M1.05331 5.96428C2.37432 2.50954 5.77774 0.305595 9.47058 0.513541C13.0332 0.714155 16.0762 3.11515 17.1167 6.49981H17.9986C20.6005 6.50287 22.8449 8.3288 23.3766 10.8758C23.9084 13.4228 22.5825 15.994 20.1992 17.0378C19.9462 17.1486 19.6514 17.0333 19.5406 16.7804C19.4298 16.5274 19.5451 16.2326 19.798 16.1218C21.748 15.2678 22.8328 13.1641 22.3977 11.0802C21.9627 8.99638 20.1271 7.5025 17.9984 7.49981C17.9983 7.49981 17.9985 7.49981 17.9984 7.49981H16.7386C16.5106 7.49981 16.3115 7.34558 16.2545 7.12483C15.4385 3.96494 12.6727 1.69544 9.41436 1.51196C6.15597 1.32848 3.15295 3.27313 1.98736 6.32144C0.821767 9.36974 1.76119 12.8219 4.31072 14.8592C4.52645 15.0316 4.56158 15.3462 4.3892 15.5619C4.21681 15.7777 3.90218 15.8128 3.68646 15.6404C0.796991 13.3315 -0.26769 9.41903 1.05331 5.96428Z" fill="#414141"/>
</svg>
