<svg width="24" height="24" viewBox="0 0 24 24" fill="none" xmlns="http://www.w3.org/2000/svg">
<path fill-rule="evenodd" clip-rule="evenodd" d="M2.5 8.77113V15.2284L12 21.4034L21.5 15.2284V8.77113L12 2.59613L2.5 8.77113ZM12 1.99979L11.7275 1.58057L1.72751 8.08057C1.58561 8.1728 1.5 8.33055 1.5 8.49979V15.4998C1.5 15.669 1.58561 15.8268 1.72751 15.919L11.7275 22.419C11.8932 22.5267 12.1068 22.5267 12.2725 22.419L22.2725 15.919C22.4144 15.8268 22.5 15.669 22.5 15.4998V8.49979C22.5 8.33055 22.4144 8.1728 22.2725 8.08057L12.2725 1.58057L12 1.99979Z" fill="#414141"/>
<path fill-rule="evenodd" clip-rule="evenodd" d="M12 15C12.2761 15 12.5 15.2239 12.5 15.5V22C12.5 22.2761 12.2761 22.5 12 22.5C11.7239 22.5 11.5 22.2761 11.5 22V15.5C11.5 15.2239 11.7239 15 12 15Z" fill="#414141"/>
<path fill-rule="evenodd" clip-rule="evenodd" d="M1.59043 8.21331C1.74878 7.98709 2.06055 7.93207 2.28677 8.09043L12 14.8897L21.7133 8.09043C21.9395 7.93207 22.2513 7.98709 22.4097 8.21331C22.568 8.43954 22.513 8.7513 22.2868 8.90966L12.2868 15.9097C12.1146 16.0302 11.8855 16.0302 11.7133 15.9097L1.71331 8.90966C1.48709 8.7513 1.43207 8.43954 1.59043 8.21331Z" fill="#414141"/>
<path fill-rule="evenodd" clip-rule="evenodd" d="M11.7133 8.09038C11.8855 7.96987 12.1146 7.96987 12.2868 8.09038L22.2868 15.0904C22.513 15.2487 22.568 15.5605 22.4097 15.7867C22.2513 16.013 21.9395 16.068 21.7133 15.9096L12 9.11033L2.28677 15.9096C2.06055 16.068 1.74878 16.013 1.59043 15.7867C1.43207 15.5605 1.48709 15.2487 1.71331 15.0904L11.7133 8.09038Z" fill="#414141"/>
<path fill-rule="evenodd" clip-rule="evenodd" d="M12 1.5C12.2761 1.5 12.5 1.72386 12.5 2V8.5C12.5 8.77614 12.2761 9 12 9C11.7239 9 11.5 8.77614 11.5 8.5V2C11.5 1.72386 11.7239 1.5 12 1.5Z" fill="#414141"/>
</svg>
