<svg width="24" height="24" viewBox="0 0 24 24" fill="none" xmlns="http://www.w3.org/2000/svg">
<path fill-rule="evenodd" clip-rule="evenodd" d="M3.7967 4.62893C5.22497 2.72458 7.23627 1.5 9.5 1.5C11.7637 1.5 13.775 2.72458 15.2033 4.62893C16.6315 6.53313 17.5 9.14085 17.5 12C17.5 14.8591 16.6315 17.4669 15.2033 19.3711C13.775 21.2754 11.7637 22.5 9.5 22.5C7.23627 22.5 5.22497 21.2754 3.7967 19.3711C2.36855 17.4669 1.5 14.8591 1.5 12C1.5 9.14085 2.36855 6.53313 3.7967 4.62893ZM4.5967 5.22893C3.31039 6.94402 2.5 9.3363 2.5 12C2.5 14.6637 3.31039 17.056 4.5967 18.7711C5.8829 20.486 7.6216 21.5 9.5 21.5C11.3784 21.5 13.1171 20.486 14.4033 18.7711C15.6896 17.056 16.5 14.6637 16.5 12C16.5 9.3363 15.6896 6.94402 14.4033 5.22893C13.1171 3.514 11.3784 2.5 9.5 2.5C7.6216 2.5 5.8829 3.514 4.5967 5.22893Z" fill="#414141"/>
<path fill-rule="evenodd" clip-rule="evenodd" d="M9 2C9 1.72386 9.22386 1.5 9.5 1.5H14.5C16.7637 1.5 18.775 2.72458 20.2033 4.62893C21.6315 6.53313 22.5 9.14085 22.5 12C22.5 14.8591 21.6315 17.4669 20.2033 19.3711C18.775 21.2754 16.7637 22.5 14.5 22.5H9.5C9.22386 22.5 9 22.2761 9 22C9 21.7239 9.22386 21.5 9.5 21.5H14.5C16.3784 21.5 18.1171 20.486 19.4033 18.7711C20.6896 17.056 21.5 14.6637 21.5 12C21.5 9.3363 20.6896 6.94402 19.4033 5.22893C18.1171 3.514 16.3784 2.5 14.5 2.5H9.5C9.22386 2.5 9 2.27614 9 2Z" fill="#414141"/>
</svg>
