<svg width="24" height="24" viewBox="0 0 24 24" fill="none" xmlns="http://www.w3.org/2000/svg">
<path fill-rule="evenodd" clip-rule="evenodd" d="M2.5 6C2.5 4.067 4.067 2.5 6 2.5C7.933 2.5 9.5 4.067 9.5 6V8.5H14.5V6C14.5 4.067 16.067 2.5 18 2.5C19.933 2.5 21.5 4.067 21.5 6C21.5 7.933 19.933 9.5 18 9.5H15.5V14.5H18C19.933 14.5 21.5 16.067 21.5 18C21.5 19.933 19.933 21.5 18 21.5C16.067 21.5 14.5 19.933 14.5 18V15.5H9.5V18C9.5 19.933 7.933 21.5 6 21.5C4.067 21.5 2.5 19.933 2.5 18C2.5 16.067 4.067 14.5 6 14.5H8.5V9.5H6C4.067 9.5 2.5 7.933 2.5 6ZM8.5 8.5V6C8.5 4.61929 7.38071 3.5 6 3.5C4.61929 3.5 3.5 4.61929 3.5 6C3.5 7.38071 4.61929 8.5 6 8.5H8.5ZM9.5 9.5V14.5H14.5V9.5H9.5ZM8.5 15.5H6C4.61929 15.5 3.5 16.6193 3.5 18C3.5 19.3807 4.61929 20.5 6 20.5C7.38071 20.5 8.5 19.3807 8.5 18V15.5ZM15.5 15.5V18C15.5 19.3807 16.6193 20.5 18 20.5C19.3807 20.5 20.5 19.3807 20.5 18C20.5 16.6193 19.3807 15.5 18 15.5H15.5ZM15.5 8.5H18C19.3807 8.5 20.5 7.38071 20.5 6C20.5 4.61929 19.3807 3.5 18 3.5C16.6193 3.5 15.5 4.61929 15.5 6V8.5Z" fill="#414141"/>
</svg>
