<svg width="24" height="24" viewBox="0 0 24 24" fill="none" xmlns="http://www.w3.org/2000/svg">
<path fill-rule="evenodd" clip-rule="evenodd" d="M1.5 12C1.5 6.20101 6.20101 1.5 12 1.5C17.799 1.5 22.5 6.20101 22.5 12C22.5 17.799 17.799 22.5 12 22.5C6.20101 22.5 1.5 17.799 1.5 12ZM12 2.5C6.75329 2.5 2.5 6.75329 2.5 12C2.5 17.2467 6.75329 21.5 12 21.5C17.2467 21.5 21.5 17.2467 21.5 12C21.5 6.75329 17.2467 2.5 12 2.5Z" fill="#414141"/>
<path fill-rule="evenodd" clip-rule="evenodd" d="M16.5953 7.40623C16.7292 7.54014 16.776 7.73823 16.7161 7.91789L14.5961 14.2779C14.5463 14.4272 14.4291 14.5444 14.2798 14.5941L7.91985 16.7141C7.74018 16.774 7.5421 16.7272 7.40818 16.5933C7.27426 16.4594 7.2275 16.2613 7.28739 16.0817L9.40739 9.72167C9.45716 9.57236 9.57432 9.4552 9.72362 9.40544L16.0836 7.28544C16.2633 7.22555 16.4614 7.27231 16.5953 7.40623ZM10.277 10.2751L8.5523 15.4492L13.7264 13.7245L15.4512 8.55035L10.277 10.2751Z" fill="#414141"/>
</svg>
