<svg width="24" height="24" viewBox="0 0 24 24" fill="none" xmlns="http://www.w3.org/2000/svg">
<path fill-rule="evenodd" clip-rule="evenodd" d="M8.5 11C8.5 9.61929 9.61929 8.5 11 8.5H20C21.3807 8.5 22.5 9.61929 22.5 11V20C22.5 21.3807 21.3807 22.5 20 22.5H11C9.61929 22.5 8.5 21.3807 8.5 20V11ZM11 9.5C10.1716 9.5 9.5 10.1716 9.5 11V20C9.5 20.8284 10.1716 21.5 11 21.5H20C20.8284 21.5 21.5 20.8284 21.5 20V11C21.5 10.1716 20.8284 9.5 20 9.5H11Z" fill="#414141"/>
<path fill-rule="evenodd" clip-rule="evenodd" d="M4 2.5C3.17157 2.5 2.5 3.17157 2.5 4V13C2.5 13.8284 3.17157 14.5 4 14.5H5C5.27614 14.5 5.5 14.7239 5.5 15C5.5 15.2761 5.27614 15.5 5 15.5H4C2.61929 15.5 1.5 14.3807 1.5 13V4C1.5 2.61929 2.61929 1.5 4 1.5H13C14.3807 1.5 15.5 2.61929 15.5 4V5C15.5 5.27614 15.2761 5.5 15 5.5C14.7239 5.5 14.5 5.27614 14.5 5V4C14.5 3.17157 13.8284 2.5 13 2.5H4Z" fill="#414141"/>
</svg>
