<svg width="24" height="24" viewBox="0 0 24 24" fill="none" xmlns="http://www.w3.org/2000/svg">
<path fill-rule="evenodd" clip-rule="evenodd" d="M9.64645 14.6464C9.84171 14.4512 10.1583 14.4512 10.3536 14.6464L15 19.2929L19.6464 14.6464C19.8417 14.4512 20.1583 14.4512 20.3536 14.6464C20.5488 14.8417 20.5488 15.1583 20.3536 15.3536L15.3536 20.3536C15.1583 20.5488 14.8417 20.5488 14.6464 20.3536L9.64645 15.3536C9.45118 15.1583 9.45118 14.8417 9.64645 14.6464Z" fill="#414141"/>
<path fill-rule="evenodd" clip-rule="evenodd" d="M3.5 4C3.5 3.72386 3.72386 3.5 4 3.5H11C13.4853 3.5 15.5 5.51472 15.5 8V20C15.5 20.2761 15.2761 20.5 15 20.5C14.7239 20.5 14.5 20.2761 14.5 20V8C14.5 6.067 12.933 4.5 11 4.5H4C3.72386 4.5 3.5 4.27614 3.5 4Z" fill="#414141"/>
</svg>
