<svg width="24" height="24" viewBox="0 0 24 24" fill="none" xmlns="http://www.w3.org/2000/svg">
<path fill-rule="evenodd" clip-rule="evenodd" d="M3.64645 14.6464C3.84171 14.4512 4.15829 14.4512 4.35355 14.6464L9 19.2929L13.6464 14.6464C13.8417 14.4512 14.1583 14.4512 14.3536 14.6464C14.5488 14.8417 14.5488 15.1583 14.3536 15.3536L9.35355 20.3536C9.15829 20.5488 8.84171 20.5488 8.64645 20.3536L3.64645 15.3536C3.45118 15.1583 3.45118 14.8417 3.64645 14.6464Z" fill="#414141"/>
<path fill-rule="evenodd" clip-rule="evenodd" d="M8.5 8C8.5 5.51472 10.5147 3.5 13 3.5H20C20.2761 3.5 20.5 3.72386 20.5 4C20.5 4.27614 20.2761 4.5 20 4.5H13C11.067 4.5 9.5 6.067 9.5 8V20C9.5 20.2761 9.27614 20.5 9 20.5C8.72386 20.5 8.5 20.2761 8.5 20V8Z" fill="#414141"/>
</svg>
