<svg width="24" height="24" viewBox="0 0 24 24" fill="none" xmlns="http://www.w3.org/2000/svg">
<path fill-rule="evenodd" clip-rule="evenodd" d="M14.6464 3.64645C14.8417 3.45118 15.1583 3.45118 15.3536 3.64645L20.3536 8.64645C20.5488 8.84171 20.5488 9.15829 20.3536 9.35355C20.1583 9.54882 19.8417 9.54882 19.6464 9.35355L15 4.70711L10.3536 9.35355C10.1583 9.54882 9.84171 9.54882 9.64645 9.35355C9.45118 9.15829 9.45118 8.84171 9.64645 8.64645L14.6464 3.64645Z" fill="#414141"/>
<path fill-rule="evenodd" clip-rule="evenodd" d="M15 3.5C15.2761 3.5 15.5 3.72386 15.5 4V16C15.5 18.4853 13.4853 20.5 11 20.5H4C3.72386 20.5 3.5 20.2761 3.5 20C3.5 19.7239 3.72386 19.5 4 19.5H11C12.933 19.5 14.5 17.933 14.5 16V4C14.5 3.72386 14.7239 3.5 15 3.5Z" fill="#414141"/>
</svg>
