<svg width="24" height="24" viewBox="0 0 24 24" fill="none" xmlns="http://www.w3.org/2000/svg">
<path fill-rule="evenodd" clip-rule="evenodd" d="M14.6464 3.64645C14.8417 3.45118 15.1583 3.45118 15.3536 3.64645L20.3536 8.64645C20.5488 8.84171 20.5488 9.15829 20.3536 9.35355L15.3536 14.3536C15.1583 14.5488 14.8417 14.5488 14.6464 14.3536C14.4512 14.1583 14.4512 13.8417 14.6464 13.6464L19.2929 9L14.6464 4.35355C14.4512 4.15829 14.4512 3.84171 14.6464 3.64645Z" fill="#414141"/>
<path fill-rule="evenodd" clip-rule="evenodd" d="M8 9.5C6.067 9.5 4.5 11.067 4.5 13V20C4.5 20.2761 4.27614 20.5 4 20.5C3.72386 20.5 3.5 20.2761 3.5 20V13C3.5 10.5147 5.51472 8.5 8 8.5H20C20.2761 8.5 20.5 8.72386 20.5 9C20.5 9.27614 20.2761 9.5 20 9.5H8Z" fill="#414141"/>
</svg>
