<svg width="24" height="24" viewBox="0 0 24 24" fill="none" xmlns="http://www.w3.org/2000/svg">
<path fill-rule="evenodd" clip-rule="evenodd" d="M9.35355 3.64645C9.54882 3.84171 9.54882 4.15829 9.35355 4.35355L4.70711 9L9.35355 13.6464C9.54882 13.8417 9.54882 14.1583 9.35355 14.3536C9.15829 14.5488 8.84171 14.5488 8.64645 14.3536L3.64645 9.35355C3.45118 9.15829 3.45118 8.84171 3.64645 8.64645L8.64645 3.64645C8.84171 3.45118 9.15829 3.45118 9.35355 3.64645Z" fill="#414141"/>
<path fill-rule="evenodd" clip-rule="evenodd" d="M3.5 9C3.5 8.72386 3.72386 8.5 4 8.5H16C18.4853 8.5 20.5 10.5147 20.5 13V20C20.5 20.2761 20.2761 20.5 20 20.5C19.7239 20.5 19.5 20.2761 19.5 20V13C19.5 11.067 17.933 9.5 16 9.5H4C3.72386 9.5 3.5 9.27614 3.5 9Z" fill="#414141"/>
</svg>
