<svg width="24" height="24" viewBox="0 0 24 24" fill="none" xmlns="http://www.w3.org/2000/svg">
<path fill-rule="evenodd" clip-rule="evenodd" d="M9.35355 9.64645C9.54882 9.84171 9.54882 10.1583 9.35355 10.3536L4.70711 15L9.35355 19.6464C9.54882 19.8417 9.54882 20.1583 9.35355 20.3536C9.15829 20.5488 8.84171 20.5488 8.64645 20.3536L3.64645 15.3536C3.45118 15.1583 3.45118 14.8417 3.64645 14.6464L8.64645 9.64645C8.84171 9.45118 9.15829 9.45118 9.35355 9.64645Z" fill="#414141"/>
<path fill-rule="evenodd" clip-rule="evenodd" d="M20 3.5C20.2761 3.5 20.5 3.72386 20.5 4V11C20.5 13.4853 18.4853 15.5 16 15.5H4C3.72386 15.5 3.5 15.2761 3.5 15C3.5 14.7239 3.72386 14.5 4 14.5H16C17.933 14.5 19.5 12.933 19.5 11V4C19.5 3.72386 19.7239 3.5 20 3.5Z" fill="#414141"/>
</svg>
