<svg width="24" height="24" viewBox="0 0 24 24" fill="none" xmlns="http://www.w3.org/2000/svg">
<path fill-rule="evenodd" clip-rule="evenodd" d="M14.6464 9.64645C14.8417 9.45118 15.1583 9.45118 15.3536 9.64645L20.3536 14.6464C20.5488 14.8417 20.5488 15.1583 20.3536 15.3536L15.3536 20.3536C15.1583 20.5488 14.8417 20.5488 14.6464 20.3536C14.4512 20.1583 14.4512 19.8417 14.6464 19.6464L19.2929 15L14.6464 10.3536C14.4512 10.1583 14.4512 9.84171 14.6464 9.64645Z" fill="#414141"/>
<path fill-rule="evenodd" clip-rule="evenodd" d="M4 3.5C4.27614 3.5 4.5 3.72386 4.5 4V11C4.5 12.933 6.067 14.5 8 14.5H20C20.2761 14.5 20.5 14.7239 20.5 15C20.5 15.2761 20.2761 15.5 20 15.5H8C5.51472 15.5 3.5 13.4853 3.5 11V4C3.5 3.72386 3.72386 3.5 4 3.5Z" fill="#414141"/>
</svg>
