<svg width="24" height="24" viewBox="0 0 24 24" fill="none" xmlns="http://www.w3.org/2000/svg">
<path fill-rule="evenodd" clip-rule="evenodd" d="M8.64645 3.64645C8.84171 3.45118 9.15829 3.45118 9.35355 3.64645L14.3536 8.64645C14.5488 8.84171 14.5488 9.15829 14.3536 9.35355C14.1583 9.54882 13.8417 9.54882 13.6464 9.35355L9 4.70711L4.35355 9.35355C4.15829 9.54882 3.84171 9.54882 3.64645 9.35355C3.45118 9.15829 3.45118 8.84171 3.64645 8.64645L8.64645 3.64645Z" fill="#414141"/>
<path fill-rule="evenodd" clip-rule="evenodd" d="M9 3.5C9.27614 3.5 9.5 3.72386 9.5 4V16C9.5 17.933 11.067 19.5 13 19.5H20C20.2761 19.5 20.5 19.7239 20.5 20C20.5 20.2761 20.2761 20.5 20 20.5H13C10.5147 20.5 8.5 18.4853 8.5 16V4C8.5 3.72386 8.72386 3.5 9 3.5Z" fill="#414141"/>
</svg>
