<svg width="24" height="24" viewBox="0 0 24 24" fill="none" xmlns="http://www.w3.org/2000/svg">
<path fill-rule="evenodd" clip-rule="evenodd" d="M3.5 6C3.5 4.61929 4.61929 3.5 6 3.5H18C19.3807 3.5 20.5 4.61929 20.5 6V18C20.5 19.3807 19.3807 20.5 18 20.5H6C4.61929 20.5 3.5 19.3807 3.5 18V6ZM6 4.5C5.17157 4.5 4.5 5.17157 4.5 6V18C4.5 18.8284 5.17157 19.5 6 19.5H18C18.8284 19.5 19.5 18.8284 19.5 18V6C19.5 5.17157 18.8284 4.5 18 4.5H6Z" fill="#414141"/>
<path fill-rule="evenodd" clip-rule="evenodd" d="M8.5 9C8.5 8.72386 8.72386 8.5 9 8.5H15C15.2761 8.5 15.5 8.72386 15.5 9V15C15.5 15.2761 15.2761 15.5 15 15.5H9C8.72386 15.5 8.5 15.2761 8.5 15V9ZM9.5 9.5V14.5H14.5V9.5H9.5Z" fill="#414141"/>
<path fill-rule="evenodd" clip-rule="evenodd" d="M9 0.5C9.27614 0.5 9.5 0.723858 9.5 1V4C9.5 4.27614 9.27614 4.5 9 4.5C8.72386 4.5 8.5 4.27614 8.5 4V1C8.5 0.723858 8.72386 0.5 9 0.5Z" fill="#414141"/>
<path fill-rule="evenodd" clip-rule="evenodd" d="M15 0.5C15.2761 0.5 15.5 0.723858 15.5 1V4C15.5 4.27614 15.2761 4.5 15 4.5C14.7239 4.5 14.5 4.27614 14.5 4V1C14.5 0.723858 14.7239 0.5 15 0.5Z" fill="#414141"/>
<path fill-rule="evenodd" clip-rule="evenodd" d="M9 19.5C9.27614 19.5 9.5 19.7239 9.5 20V23C9.5 23.2761 9.27614 23.5 9 23.5C8.72386 23.5 8.5 23.2761 8.5 23V20C8.5 19.7239 8.72386 19.5 9 19.5Z" fill="#414141"/>
<path fill-rule="evenodd" clip-rule="evenodd" d="M15 19.5C15.2761 19.5 15.5 19.7239 15.5 20V23C15.5 23.2761 15.2761 23.5 15 23.5C14.7239 23.5 14.5 23.2761 14.5 23V20C14.5 19.7239 14.7239 19.5 15 19.5Z" fill="#414141"/>
<path fill-rule="evenodd" clip-rule="evenodd" d="M19.5 9C19.5 8.72386 19.7239 8.5 20 8.5H23C23.2761 8.5 23.5 8.72386 23.5 9C23.5 9.27614 23.2761 9.5 23 9.5H20C19.7239 9.5 19.5 9.27614 19.5 9Z" fill="#414141"/>
<path fill-rule="evenodd" clip-rule="evenodd" d="M19.5 14C19.5 13.7239 19.7239 13.5 20 13.5H23C23.2761 13.5 23.5 13.7239 23.5 14C23.5 14.2761 23.2761 14.5 23 14.5H20C19.7239 14.5 19.5 14.2761 19.5 14Z" fill="#414141"/>
<path fill-rule="evenodd" clip-rule="evenodd" d="M0.5 9C0.5 8.72386 0.723858 8.5 1 8.5H4C4.27614 8.5 4.5 8.72386 4.5 9C4.5 9.27614 4.27614 9.5 4 9.5H1C0.723858 9.5 0.5 9.27614 0.5 9Z" fill="#414141"/>
<path fill-rule="evenodd" clip-rule="evenodd" d="M0.5 14C0.5 13.7239 0.723858 13.5 1 13.5H4C4.27614 13.5 4.5 13.7239 4.5 14C4.5 14.2761 4.27614 14.5 4 14.5H1C0.723858 14.5 0.5 14.2761 0.5 14Z" fill="#414141"/>
</svg>
