<svg width="24" height="24" viewBox="0 0 24 24" fill="none" xmlns="http://www.w3.org/2000/svg">
<path fill-rule="evenodd" clip-rule="evenodd" d="M6.13433 0.500019C6.41047 0.502412 6.63237 0.728202 6.62998 1.00433L6.5 16.002C6.50109 16.8295 7.17224 17.5 8 17.5H23C23.2761 17.5 23.5 17.7239 23.5 18C23.5 18.2761 23.2761 18.5 23 18.5H8C6.61929 18.5 5.5 17.3807 5.5 16V15.9957H5.50002L5.63002 0.995667C5.63241 0.719535 5.8582 0.497626 6.13433 0.500019Z" fill="#414141"/>
<path fill-rule="evenodd" clip-rule="evenodd" d="M16 5.5C17.3807 5.50002 18.5 6.61931 18.5 8.00002V23C18.5 23.2762 18.2761 23.5 18 23.5C17.7239 23.5 17.5 23.2762 17.5 23V8.00002C17.5 7.17226 16.8295 6.50111 16.002 6.50002L1.00433 6.63C0.728202 6.63239 0.502412 6.41048 0.500019 6.13435C0.497626 5.85822 0.719535 5.63243 0.995667 5.63004L16 5.5Z" fill="#414141"/>
</svg>
