<svg width="24" height="24" viewBox="0 0 24 24" fill="none" xmlns="http://www.w3.org/2000/svg">
<path fill-rule="evenodd" clip-rule="evenodd" d="M1.5 12C1.5 6.20101 6.20101 1.5 12 1.5C17.799 1.5 22.5 6.20101 22.5 12C22.5 17.799 17.799 22.5 12 22.5C6.20101 22.5 1.5 17.799 1.5 12ZM12 2.5C6.75329 2.5 2.5 6.75329 2.5 12C2.5 17.2467 6.75329 21.5 12 21.5C17.2467 21.5 21.5 17.2467 21.5 12C21.5 6.75329 17.2467 2.5 12 2.5Z" fill="#414141"/>
<path fill-rule="evenodd" clip-rule="evenodd" d="M17.5 12C17.5 11.7239 17.7239 11.5 18 11.5H22C22.2761 11.5 22.5 11.7239 22.5 12C22.5 12.2761 22.2761 12.5 22 12.5H18C17.7239 12.5 17.5 12.2761 17.5 12Z" fill="#414141"/>
<path fill-rule="evenodd" clip-rule="evenodd" d="M1.5 12C1.5 11.7239 1.72386 11.5 2 11.5H6C6.27614 11.5 6.5 11.7239 6.5 12C6.5 12.2761 6.27614 12.5 6 12.5H2C1.72386 12.5 1.5 12.2761 1.5 12Z" fill="#414141"/>
<path fill-rule="evenodd" clip-rule="evenodd" d="M12 1.5C12.2761 1.5 12.5 1.72386 12.5 2V6C12.5 6.27614 12.2761 6.5 12 6.5C11.7239 6.5 11.5 6.27614 11.5 6V2C11.5 1.72386 11.7239 1.5 12 1.5Z" fill="#414141"/>
<path fill-rule="evenodd" clip-rule="evenodd" d="M12 17.5C12.2761 17.5 12.5 17.7239 12.5 18V22C12.5 22.2761 12.2761 22.5 12 22.5C11.7239 22.5 11.5 22.2761 11.5 22V18C11.5 17.7239 11.7239 17.5 12 17.5Z" fill="#414141"/>
</svg>
