<svg width="24" height="24" viewBox="0 0 24 24" fill="none" xmlns="http://www.w3.org/2000/svg">
<path fill-rule="evenodd" clip-rule="evenodd" d="M7.62371 3.67075C7.71866 3.56224 7.85582 3.5 8 3.5H21C22.3807 3.5 23.5 4.61929 23.5 6V18C23.5 19.3807 22.3807 20.5 21 20.5H8C7.85582 20.5 7.71866 20.4378 7.62371 20.3293L0.623712 12.3293C0.458763 12.1407 0.458763 11.8593 0.623712 11.6707L7.62371 3.67075ZM8.22688 4.5L1.66438 12L8.22688 19.5H21C21.8284 19.5 22.5 18.8284 22.5 18V6C22.5 5.17157 21.8284 4.5 21 4.5H8.22688Z" fill="#414141"/>
<path fill-rule="evenodd" clip-rule="evenodd" d="M18.3536 8.64645C18.5488 8.84171 18.5488 9.15829 18.3536 9.35355L12.3536 15.3536C12.1583 15.5488 11.8417 15.5488 11.6464 15.3536C11.4512 15.1583 11.4512 14.8417 11.6464 14.6464L17.6464 8.64645C17.8417 8.45118 18.1583 8.45118 18.3536 8.64645Z" fill="#414141"/>
<path fill-rule="evenodd" clip-rule="evenodd" d="M11.6464 8.64645C11.8417 8.45118 12.1583 8.45118 12.3536 8.64645L18.3536 14.6464C18.5488 14.8417 18.5488 15.1583 18.3536 15.3536C18.1583 15.5488 17.8417 15.5488 17.6464 15.3536L11.6464 9.35355C11.4512 9.15829 11.4512 8.84171 11.6464 8.64645Z" fill="#414141"/>
</svg>
