<svg width="24" height="24" viewBox="0 0 24 24" fill="none" xmlns="http://www.w3.org/2000/svg">
<path fill-rule="evenodd" clip-rule="evenodd" d="M21 6.5C21.2761 6.5 21.5 6.27614 21.5 6L21.5 2C21.5 1.72386 21.2761 1.5 21 1.5L3 1.5C2.72386 1.5 2.5 1.72386 2.5 2L2.5 6C2.5 6.27614 2.72386 6.5 3 6.5L21 6.5ZM20.5 5.5L3.5 5.5L3.5 2.5L20.5 2.5L20.5 5.5Z" fill="#414141"/>
<path fill-rule="evenodd" clip-rule="evenodd" d="M16 14.5C16.2761 14.5 16.5 14.2761 16.5 14L16.5 10C16.5 9.72386 16.2761 9.5 16 9.5L3 9.5C2.72386 9.5 2.5 9.72386 2.5 10L2.5 14C2.5 14.2761 2.72386 14.5 3 14.5L16 14.5ZM15.5 13.5L3.5 13.5L3.5 10.5L15.5 10.5L15.5 13.5Z" fill="#414141"/>
<path fill-rule="evenodd" clip-rule="evenodd" d="M11 22.5C11.2761 22.5 11.5 22.2761 11.5 22L11.5 18C11.5 17.7239 11.2761 17.5 11 17.5L3 17.5C2.72386 17.5 2.5 17.7239 2.5 18L2.5 22C2.5 22.2761 2.72386 22.5 3 22.5L11 22.5ZM10.5 21.5L3.5 21.5L3.5 18.5L10.5 18.5L10.5 21.5Z" fill="#414141"/>
</svg>
