<svg width="24" height="24" viewBox="0 0 24 24" fill="none" xmlns="http://www.w3.org/2000/svg">
<path fill-rule="evenodd" clip-rule="evenodd" d="M3 16.5C3.27614 16.5 3.5 16.7239 3.5 17V20C3.5 20.8284 4.17157 21.5 5 21.5H19C19.8284 21.5 20.5 20.8284 20.5 20V17C20.5 16.7239 20.7239 16.5 21 16.5C21.2761 16.5 21.5 16.7239 21.5 17V20C21.5 21.3807 20.3807 22.5 19 22.5H5C3.61929 22.5 2.5 21.3807 2.5 20V17C2.5 16.7239 2.72386 16.5 3 16.5Z" fill="#414141"/>
<path fill-rule="evenodd" clip-rule="evenodd" d="M7.64645 11.6464C7.84171 11.4512 8.15829 11.4512 8.35355 11.6464L12 15.2929L15.6464 11.6464C15.8417 11.4512 16.1583 11.4512 16.3536 11.6464C16.5488 11.8417 16.5488 12.1583 16.3536 12.3536L12.3536 16.3536C12.1583 16.5488 11.8417 16.5488 11.6464 16.3536L7.64645 12.3536C7.45118 12.1583 7.45118 11.8417 7.64645 11.6464Z" fill="#414141"/>
<path fill-rule="evenodd" clip-rule="evenodd" d="M12 1.5C12.2761 1.5 12.5 1.72386 12.5 2V16C12.5 16.2761 12.2761 16.5 12 16.5C11.7239 16.5 11.5 16.2761 11.5 16V2C11.5 1.72386 11.7239 1.5 12 1.5Z" fill="#414141"/>
</svg>
