<svg width="25" height="24" viewBox="0 0 25 24" fill="none" xmlns="http://www.w3.org/2000/svg">
<path fill-rule="evenodd" clip-rule="evenodd" d="M7.64645 17.6464C7.84171 17.4512 8.15829 17.4512 8.35355 17.6464L12 21.2929L15.6464 17.6464C15.8417 17.4512 16.1583 17.4512 16.3536 17.6464C16.5488 17.8417 16.5488 18.1583 16.3536 18.3536L12.3536 22.3536C12.1583 22.5488 11.8417 22.5488 11.6464 22.3536L7.64645 18.3536C7.45118 18.1583 7.45118 17.8417 7.64645 17.6464Z" fill="#414141"/>
<path fill-rule="evenodd" clip-rule="evenodd" d="M12 12.5C12.2761 12.5 12.5 12.7239 12.5 13V22C12.5 22.2761 12.2761 22.5 12 22.5C11.7239 22.5 11.5 22.2761 11.5 22V13C11.5 12.7239 11.7239 12.5 12 12.5Z" fill="#414141"/>
<path fill-rule="evenodd" clip-rule="evenodd" d="M9 4.5C4.85786 4.5 1.5 7.85786 1.5 12C1.5 14.3683 2.5971 16.4799 4.31274 17.8552C4.52819 18.028 4.56284 18.3426 4.39012 18.5581C4.21741 18.7736 3.90272 18.8082 3.68726 18.6355C1.74505 17.0786 0.5 14.6845 0.5 12C0.5 7.30558 4.30558 3.5 9 3.5C12.933 3.5 16.2412 6.17074 17.2117 9.79741C17.7728 9.60458 18.3746 9.5 19 9.5C22.0376 9.5 24.5 11.9624 24.5 15C24.5 18.0376 22.0376 20.5 19 20.5C18.7239 20.5 18.5 20.2761 18.5 20C18.5 19.7239 18.7239 19.5 19 19.5C21.4853 19.5 23.5 17.4853 23.5 15C23.5 12.5147 21.4853 10.5 19 10.5C18.3085 10.5 17.6548 10.6556 17.0708 10.9332C16.931 10.9997 16.7683 10.9977 16.6303 10.9278C16.4922 10.8579 16.3943 10.728 16.3651 10.576C15.7001 7.11483 12.6549 4.5 9 4.5Z" fill="#414141"/>
</svg>
