<svg width="24" height="24" viewBox="0 0 24 24" fill="none" xmlns="http://www.w3.org/2000/svg">
<path fill-rule="evenodd" clip-rule="evenodd" d="M5.5 12C5.5 10.6193 6.61929 9.5 8 9.5C9.38071 9.5 10.5 10.6193 10.5 12C10.5 13.3807 9.38071 14.5 8 14.5C6.61929 14.5 5.5 13.3807 5.5 12ZM8 10.5C7.17157 10.5 6.5 11.1716 6.5 12C6.5 12.8284 7.17157 13.5 8 13.5C8.82843 13.5 9.5 12.8284 9.5 12C9.5 11.1716 8.82843 10.5 8 10.5Z" fill="#414141"/>
<path fill-rule="evenodd" clip-rule="evenodd" d="M5.5 4C5.5 2.61929 6.61929 1.5 8 1.5C9.38071 1.5 10.5 2.61929 10.5 4C10.5 5.38071 9.38071 6.5 8 6.5C6.61929 6.5 5.5 5.38071 5.5 4ZM8 2.5C7.17157 2.5 6.5 3.17157 6.5 4C6.5 4.82843 7.17157 5.5 8 5.5C8.82843 5.5 9.5 4.82843 9.5 4C9.5 3.17157 8.82843 2.5 8 2.5Z" fill="#414141"/>
<path fill-rule="evenodd" clip-rule="evenodd" d="M5.5 20C5.5 18.6193 6.61929 17.5 8 17.5C9.38071 17.5 10.5 18.6193 10.5 20C10.5 21.3807 9.38071 22.5 8 22.5C6.61929 22.5 5.5 21.3807 5.5 20ZM8 18.5C7.17157 18.5 6.5 19.1716 6.5 20C6.5 20.8284 7.17157 21.5 8 21.5C8.82843 21.5 9.5 20.8284 9.5 20C9.5 19.1716 8.82843 18.5 8 18.5Z" fill="#414141"/>
<path fill-rule="evenodd" clip-rule="evenodd" d="M13.5 12C13.5 10.6193 14.6193 9.5 16 9.5C17.3807 9.5 18.5 10.6193 18.5 12C18.5 13.3807 17.3807 14.5 16 14.5C14.6193 14.5 13.5 13.3807 13.5 12ZM16 10.5C15.1716 10.5 14.5 11.1716 14.5 12C14.5 12.8284 15.1716 13.5 16 13.5C16.8284 13.5 17.5 12.8284 17.5 12C17.5 11.1716 16.8284 10.5 16 10.5Z" fill="#414141"/>
<path fill-rule="evenodd" clip-rule="evenodd" d="M13.5 4C13.5 2.61929 14.6193 1.5 16 1.5C17.3807 1.5 18.5 2.61929 18.5 4C18.5 5.38071 17.3807 6.5 16 6.5C14.6193 6.5 13.5 5.38071 13.5 4ZM16 2.5C15.1716 2.5 14.5 3.17157 14.5 4C14.5 4.82843 15.1716 5.5 16 5.5C16.8284 5.5 17.5 4.82843 17.5 4C17.5 3.17157 16.8284 2.5 16 2.5Z" fill="#414141"/>
<path fill-rule="evenodd" clip-rule="evenodd" d="M13.5 20C13.5 18.6193 14.6193 17.5 16 17.5C17.3807 17.5 18.5 18.6193 18.5 20C18.5 21.3807 17.3807 22.5 16 22.5C14.6193 22.5 13.5 21.3807 13.5 20ZM16 18.5C15.1716 18.5 14.5 19.1716 14.5 20C14.5 20.8284 15.1716 21.5 16 21.5C16.8284 21.5 17.5 20.8284 17.5 20C17.5 19.1716 16.8284 18.5 16 18.5Z" fill="#414141"/>
</svg>
