<svg width="24" height="24" viewBox="0 0 24 24" fill="none" xmlns="http://www.w3.org/2000/svg">
<path fill-rule="evenodd" clip-rule="evenodd" d="M10.9989 2.18994C11.1316 2.18988 11.2589 2.24257 11.3527 2.33639L17.0126 7.99627C17.0126 7.99631 17.0126 7.99623 17.0126 7.99627C19.4446 10.4268 20.173 14.0833 18.8577 17.2602C17.5424 20.4371 14.4426 22.5086 11.0042 22.5086C7.56572 22.5086 4.46596 20.4371 3.15065 17.2602C1.83533 14.0833 2.56358 10.4268 4.99572 7.99627L10.6453 2.3367C10.739 2.2428 10.8662 2.19 10.9989 2.18994ZM10.9995 3.39736L5.70302 8.70318C3.55702 10.8478 2.91402 14.0745 4.07459 16.8776C5.23516 19.6808 7.97024 21.5086 11.0042 21.5086C14.0381 21.5086 16.7732 19.6808 17.9337 16.8776C19.0943 14.0745 18.4517 10.8482 16.3057 8.70361L10.9995 3.39736Z" fill="#414141"/>
</svg>
