<svg width="24" height="24" viewBox="0 0 24 24" fill="none" xmlns="http://www.w3.org/2000/svg">
<path fill-rule="evenodd" clip-rule="evenodd" d="M5 3.5C4.17157 3.5 3.5 4.17157 3.5 5V19C3.5 19.8284 4.17157 20.5 5 20.5H19C19.8284 20.5 20.5 19.8284 20.5 19V13.66C20.5 13.3839 20.7239 13.16 21 13.16C21.2761 13.16 21.5 13.3839 21.5 13.66V19C21.5 20.3807 20.3807 21.5 19 21.5H5C3.61929 21.5 2.5 20.3807 2.5 19V5C2.5 3.61929 3.61929 2.5 5 2.5H10.34C10.6161 2.5 10.84 2.72386 10.84 3C10.84 3.27614 10.6161 3.5 10.34 3.5H5Z" fill="#414141"/>
<path fill-rule="evenodd" clip-rule="evenodd" d="M17.6464 1.64645C17.8417 1.45118 18.1583 1.45118 18.3536 1.64645L22.3536 5.64645C22.5488 5.84171 22.5488 6.15829 22.3536 6.35355L12.3536 16.3536C12.2598 16.4473 12.1326 16.5 12 16.5H8C7.72386 16.5 7.5 16.2761 7.5 16V12C7.5 11.8674 7.55268 11.7402 7.64645 11.6464L17.6464 1.64645ZM8.5 12.2071V15.5H11.7929L21.2929 6L18 2.70711L8.5 12.2071Z" fill="#414141"/>
</svg>
