<svg width="24" height="24" viewBox="0 0 24 24" fill="none" xmlns="http://www.w3.org/2000/svg">
<path fill-rule="evenodd" clip-rule="evenodd" d="M5 6.5C4.17157 6.5 3.5 7.17157 3.5 8V19C3.5 19.8284 4.17157 20.5 5 20.5H16C16.8284 20.5 17.5 19.8284 17.5 19V13C17.5 12.7239 17.7239 12.5 18 12.5C18.2761 12.5 18.5 12.7239 18.5 13V19C18.5 20.3807 17.3807 21.5 16 21.5H5C3.61929 21.5 2.5 20.3807 2.5 19V8C2.5 6.61929 3.61929 5.5 5 5.5H11C11.2761 5.5 11.5 5.72386 11.5 6C11.5 6.27614 11.2761 6.5 11 6.5H5Z" fill="#414141"/>
<path fill-rule="evenodd" clip-rule="evenodd" d="M14.5 3C14.5 2.72386 14.7239 2.5 15 2.5H21C21.2761 2.5 21.5 2.72386 21.5 3V9C21.5 9.27614 21.2761 9.5 21 9.5C20.7239 9.5 20.5 9.27614 20.5 9V3.5H15C14.7239 3.5 14.5 3.27614 14.5 3Z" fill="#414141"/>
<path fill-rule="evenodd" clip-rule="evenodd" d="M21.3536 2.64645C21.5488 2.84171 21.5488 3.15829 21.3536 3.35355L10.3536 14.3536C10.1583 14.5488 9.84171 14.5488 9.64645 14.3536C9.45118 14.1583 9.45118 13.8417 9.64645 13.6464L20.6464 2.64645C20.8417 2.45118 21.1583 2.45118 21.3536 2.64645Z" fill="#414141"/>
</svg>
