<svg width="24" height="24" viewBox="0 0 24 24" fill="none" xmlns="http://www.w3.org/2000/svg">
<path fill-rule="evenodd" clip-rule="evenodd" d="M8.5 7C8.5 3.96243 10.9624 1.5 14 1.5H17C17.2761 1.5 17.5 1.72386 17.5 2V6C17.5 6.27614 17.2761 6.5 17 6.5H14C13.7239 6.5 13.5 6.72386 13.5 7V9.5H17C17.154 9.5 17.2993 9.57094 17.3941 9.69229C17.4889 9.81365 17.5224 9.9719 17.4851 10.1213L16.4851 14.1213C16.4294 14.3439 16.2294 14.5 16 14.5H13.5V22C13.5 22.2761 13.2761 22.5 13 22.5H9C8.72386 22.5 8.5 22.2761 8.5 22V14.5H6C5.72386 14.5 5.5 14.2761 5.5 14V10C5.5 9.72386 5.72386 9.5 6 9.5H8.5V7ZM14 2.5C11.5147 2.5 9.5 4.51472 9.5 7V10C9.5 10.2761 9.27614 10.5 9 10.5H6.5V13.5H9C9.27614 13.5 9.5 13.7239 9.5 14V21.5H12.5V14C12.5 13.7239 12.7239 13.5 13 13.5H15.6096L16.3596 10.5H13C12.7239 10.5 12.5 10.2761 12.5 10V7C12.5 6.17157 13.1716 5.5 14 5.5H16.5V2.5H14Z" fill="#414141"/>
</svg>
