<svg width="24" height="24" viewBox="0 0 24 24" fill="none" xmlns="http://www.w3.org/2000/svg">
<path fill-rule="evenodd" clip-rule="evenodd" d="M12.7803 4.55085C12.9519 4.46694 13.1562 4.48809 13.307 4.60533L22.307 11.6053C22.4288 11.7001 22.5 11.8457 22.5 12C22.5 12.1543 22.4288 12.3 22.307 12.3947L13.307 19.3947C13.1562 19.5119 12.9519 19.5331 12.7803 19.4492C12.6088 19.3653 12.5 19.191 12.5 19V5C12.5 4.80904 12.6088 4.63475 12.7803 4.55085ZM13.5 6.02232V17.9777L21.1856 12L13.5 6.02232Z" fill="#414141"/>
<path fill-rule="evenodd" clip-rule="evenodd" d="M1.78032 4.55085C1.95187 4.46694 2.15623 4.48809 2.30697 4.60533L11.307 11.6053C11.4288 11.7001 11.5 11.8457 11.5 12C11.5 12.1543 11.4288 12.3 11.307 12.3947L2.30697 19.3947C2.15623 19.5119 1.95187 19.5331 1.78032 19.4492C1.60878 19.3653 1.5 19.191 1.5 19V5C1.5 4.80904 1.60878 4.63475 1.78032 4.55085ZM2.5 6.02232V17.9777L10.1856 12L2.5 6.02232Z" fill="#414141"/>
</svg>
