<svg width="24" height="24" viewBox="0 0 24 24" fill="none" xmlns="http://www.w3.org/2000/svg">
<path fill-rule="evenodd" clip-rule="evenodd" d="M11.3964 4.39648C13.9362 1.85677 18.0538 1.85677 20.5936 4.39648C23.1333 6.93619 23.1333 11.0539 20.5936 13.5936L13.8541 20.3531C13.7603 20.4472 13.6329 20.5 13.5 20.5H5C4.72386 20.5 4.5 20.2762 4.5 20V11.5C4.5 11.3674 4.55268 11.2403 4.64645 11.1465L11.3964 4.39648ZM19.8864 5.10359C17.7373 2.9544 14.2527 2.9544 12.1036 5.10359L5.5 11.7071V19.5H13.2925L19.8859 12.887C22.0351 10.7378 22.0356 7.25278 19.8864 5.10359Z" fill="#414141"/>
<path fill-rule="evenodd" clip-rule="evenodd" d="M16.3536 8.64645C16.5488 8.84171 16.5488 9.15829 16.3536 9.35355L2.35355 23.3536C2.15829 23.5488 1.84171 23.5488 1.64645 23.3536C1.45118 23.1583 1.45118 22.8417 1.64645 22.6464L15.6464 8.64645C15.8417 8.45118 16.1583 8.45118 16.3536 8.64645Z" fill="#414141"/>
<path fill-rule="evenodd" clip-rule="evenodd" d="M8.5 16C8.5 15.7239 8.72386 15.5 9 15.5H17C17.2761 15.5 17.5 15.7239 17.5 16C17.5 16.2761 17.2761 16.5 17 16.5H9C8.72386 16.5 8.5 16.2761 8.5 16Z" fill="#414141"/>
</svg>
