<svg width="24" height="24" viewBox="0 0 24 24" fill="none" xmlns="http://www.w3.org/2000/svg">
<path fill-rule="evenodd" clip-rule="evenodd" d="M17.5 2C17.5 1.72386 17.7239 1.5 18 1.5H22C22.2761 1.5 22.5 1.72386 22.5 2V18.7742C22.5 18.8673 22.474 18.9585 22.425 19.0377L20.425 22.2635C20.3338 22.4105 20.173 22.5 20 22.5C19.827 22.5 19.6662 22.4105 19.575 22.2635L17.575 19.0377C17.526 18.9585 17.5 18.8673 17.5 18.7742V2ZM18.5 2.5V18.6318L20 21.0511L21.5 18.6318V2.5H18.5Z" fill="#414141"/>
<path fill-rule="evenodd" clip-rule="evenodd" d="M1.5 4C1.5 2.61929 2.61929 1.5 4 1.5H8C8.13261 1.5 8.25979 1.55268 8.35355 1.64645L15.3536 8.64645C15.4473 8.74021 15.5 8.86739 15.5 9V20C15.5 21.3807 14.3807 22.5 13 22.5H4C2.61929 22.5 1.5 21.3807 1.5 20V4ZM4 2.5C3.17157 2.5 2.5 3.17157 2.5 4V20C2.5 20.8284 3.17157 21.5 4 21.5H13C13.8284 21.5 14.5 20.8284 14.5 20V9.20711L7.79289 2.5H4Z" fill="#414141"/>
<path fill-rule="evenodd" clip-rule="evenodd" d="M8 1.5C8.27614 1.5 8.5 1.72386 8.5 2V8.5H15C15.2761 8.5 15.5 8.72386 15.5 9C15.5 9.27614 15.2761 9.5 15 9.5H8C7.72386 9.5 7.5 9.27614 7.5 9V2C7.5 1.72386 7.72386 1.5 8 1.5Z" fill="#414141"/>
<path fill-rule="evenodd" clip-rule="evenodd" d="M4.5 14C4.5 13.7239 4.72386 13.5 5 13.5H9C9.27614 13.5 9.5 13.7239 9.5 14C9.5 14.2761 9.27614 14.5 9 14.5H5C4.72386 14.5 4.5 14.2761 4.5 14Z" fill="#414141"/>
<path fill-rule="evenodd" clip-rule="evenodd" d="M4.5 18C4.5 17.7239 4.72386 17.5 5 17.5H12C12.2761 17.5 12.5 17.7239 12.5 18C12.5 18.2761 12.2761 18.5 12 18.5H5C4.72386 18.5 4.5 18.2761 4.5 18Z" fill="#414141"/>
</svg>
