<svg width="24" height="24" viewBox="0 0 24 24" fill="none" xmlns="http://www.w3.org/2000/svg">
<path fill-rule="evenodd" clip-rule="evenodd" d="M1.5 4.18C1.5 2.69988 2.69988 1.5 4.18 1.5H19.82C21.3001 1.5 22.5 2.69988 22.5 4.18V19.82C22.5 21.3001 21.3001 22.5 19.82 22.5H4.18C2.69988 22.5 1.5 21.3001 1.5 19.82V4.18ZM4.18 2.5C3.25216 2.5 2.5 3.25216 2.5 4.18V19.82C2.5 20.7478 3.25216 21.5 4.18 21.5H19.82C20.7478 21.5 21.5 20.7478 21.5 19.82V4.18C21.5 3.25216 20.7478 2.5 19.82 2.5H4.18Z" fill="#414141"/>
<path fill-rule="evenodd" clip-rule="evenodd" d="M7 1.5C7.27614 1.5 7.5 1.72386 7.5 2V22C7.5 22.2761 7.27614 22.5 7 22.5C6.72386 22.5 6.5 22.2761 6.5 22V2C6.5 1.72386 6.72386 1.5 7 1.5Z" fill="#414141"/>
<path fill-rule="evenodd" clip-rule="evenodd" d="M17 1.5C17.2761 1.5 17.5 1.72386 17.5 2V22C17.5 22.2761 17.2761 22.5 17 22.5C16.7239 22.5 16.5 22.2761 16.5 22V2C16.5 1.72386 16.7239 1.5 17 1.5Z" fill="#414141"/>
<path fill-rule="evenodd" clip-rule="evenodd" d="M1.5 12C1.5 11.7239 1.72386 11.5 2 11.5H22C22.2761 11.5 22.5 11.7239 22.5 12C22.5 12.2761 22.2761 12.5 22 12.5H2C1.72386 12.5 1.5 12.2761 1.5 12Z" fill="#414141"/>
<path fill-rule="evenodd" clip-rule="evenodd" d="M1.5 7C1.5 6.72386 1.72386 6.5 2 6.5H7C7.27614 6.5 7.5 6.72386 7.5 7C7.5 7.27614 7.27614 7.5 7 7.5H2C1.72386 7.5 1.5 7.27614 1.5 7Z" fill="#414141"/>
<path fill-rule="evenodd" clip-rule="evenodd" d="M1.5 17C1.5 16.7239 1.72386 16.5 2 16.5H7C7.27614 16.5 7.5 16.7239 7.5 17C7.5 17.2761 7.27614 17.5 7 17.5H2C1.72386 17.5 1.5 17.2761 1.5 17Z" fill="#414141"/>
<path fill-rule="evenodd" clip-rule="evenodd" d="M16.5 17C16.5 16.7239 16.7239 16.5 17 16.5H22C22.2761 16.5 22.5 16.7239 22.5 17C22.5 17.2761 22.2761 17.5 22 17.5H17C16.7239 17.5 16.5 17.2761 16.5 17Z" fill="#414141"/>
<path fill-rule="evenodd" clip-rule="evenodd" d="M16.5 7C16.5 6.72386 16.7239 6.5 17 6.5H22C22.2761 6.5 22.5 6.72386 22.5 7C22.5 7.27614 22.2761 7.5 22 7.5H17C16.7239 7.5 16.5 7.27614 16.5 7Z" fill="#414141"/>
</svg>
