<svg width="24" height="24" viewBox="0 0 24 24" fill="none" xmlns="http://www.w3.org/2000/svg">
<path fill-rule="evenodd" clip-rule="evenodd" d="M1.54645 2.78956C1.62838 2.61298 1.80534 2.5 2.00001 2.5H22C22.1947 2.5 22.3716 2.61298 22.4536 2.78956C22.5355 2.96614 22.5075 3.17422 22.3818 3.32286L14.5 12.6431V21C14.5 21.1733 14.4103 21.3342 14.2629 21.4253C14.1155 21.5164 13.9314 21.5247 13.7764 21.4472L9.7764 19.4472C9.60701 19.3625 9.50001 19.1894 9.50001 19V12.6431L1.61822 3.32286C1.49252 3.17422 1.46452 2.96614 1.54645 2.78956ZM3.07766 3.5L10.3818 12.1371C10.4581 12.2274 10.5 12.3418 10.5 12.46V18.691L13.5 20.191V12.46C13.5 12.3418 13.5419 12.2274 13.6182 12.1371L20.9224 3.5H3.07766Z" fill="#414141"/>
</svg>
