<svg width="24" height="24" viewBox="0 0 24 24" fill="none" xmlns="http://www.w3.org/2000/svg">
<path fill-rule="evenodd" clip-rule="evenodd" d="M4.5 4.50022C4.77614 4.50022 5 4.72407 5 5.00022V22.0002C5 22.2764 4.77614 22.5002 4.5 22.5002C4.22386 22.5002 4 22.2764 4 22.0002V5.00022C4 4.72407 4.22386 4.50022 4.5 4.50022Z" fill="#414141"/>
<path fill-rule="evenodd" clip-rule="evenodd" d="M19 14.3072V4.44322L18.2806 4.71299C16.8217 5.26007 15.222 5.30478 13.7348 4.84004L9.31095 3.45758C8.43392 3.18351 7.49833 3.15641 6.6069 3.37927L5 3.78099L5 13.7194L6.12183 13.439C7.36982 13.127 8.67966 13.1649 9.9075 13.5486L14.3314 14.9311C15.3936 15.263 16.5363 15.2311 17.5784 14.8403L19 14.3072ZM4.75746 2.81085C4.3123 2.92214 4 3.32213 4 3.78099V13.7194C4 14.37 4.61139 14.8474 5.24254 14.6896L6.36436 14.4091C7.43407 14.1417 8.55679 14.1742 9.60923 14.5031L14.0331 15.8856C15.3078 16.2839 16.679 16.2456 17.9295 15.7767L19.3511 15.2435C19.7414 15.0972 20 14.7241 20 14.3072V4.44322C20 3.74501 19.3026 3.26173 18.6489 3.50689L17.9295 3.77666C16.679 4.24559 15.3078 4.28391 14.0331 3.88556L9.60923 2.5031C8.55679 2.17421 7.43407 2.1417 6.36437 2.40913L4.75746 2.81085Z" fill="#414141"/>
</svg>
