<svg width="24" height="24" viewBox="0 0 24 24" fill="none" xmlns="http://www.w3.org/2000/svg">
<path fill-rule="evenodd" clip-rule="evenodd" d="M4 3.5C3.17157 3.5 2.5 4.17157 2.5 5V19C2.5 19.8284 3.17157 20.5 4 20.5H20C20.8284 20.5 21.5 19.8284 21.5 19V8C21.5 7.17157 20.8284 6.5 20 6.5H11C10.8328 6.5 10.6767 6.41645 10.584 6.27735L8.73241 3.5H4ZM1.5 5C1.5 3.61929 2.61929 2.5 4 2.5H9C9.16718 2.5 9.32329 2.58355 9.41603 2.72265L11.2676 5.5H20C21.3807 5.5 22.5 6.61929 22.5 8V19C22.5 20.3807 21.3807 21.5 20 21.5H4C2.61929 21.5 1.5 20.3807 1.5 19V5Z" fill="#414141"/>
</svg>
