<svg width="24" height="24" viewBox="0 0 24 24" fill="none" xmlns="http://www.w3.org/2000/svg">
<path fill-rule="evenodd" clip-rule="evenodd" d="M3.5 9C3.5 8.72386 3.72386 8.5 4 8.5H20C20.2761 8.5 20.5 8.72386 20.5 9C20.5 9.27614 20.2761 9.5 20 9.5H4C3.72386 9.5 3.5 9.27614 3.5 9Z" fill="#414141"/>
<path fill-rule="evenodd" clip-rule="evenodd" d="M3.5 15C3.5 14.7239 3.72386 14.5 4 14.5H20C20.2761 14.5 20.5 14.7239 20.5 15C20.5 15.2761 20.2761 15.5 20 15.5H4C3.72386 15.5 3.5 15.2761 3.5 15Z" fill="#414141"/>
<path fill-rule="evenodd" clip-rule="evenodd" d="M10.0553 2.5031C10.3297 2.5336 10.5275 2.78081 10.497 3.05526L8.49699 21.0553C8.46649 21.3297 8.21928 21.5275 7.94483 21.497C7.67037 21.4665 7.47261 21.2193 7.5031 20.9448L9.5031 2.94483C9.5336 2.67037 9.78081 2.47261 10.0553 2.5031Z" fill="#414141"/>
<path fill-rule="evenodd" clip-rule="evenodd" d="M16.0553 2.5031C16.3297 2.5336 16.5275 2.78081 16.497 3.05526L14.497 21.0553C14.4665 21.3297 14.2193 21.5275 13.9448 21.497C13.6704 21.4665 13.4726 21.2193 13.5031 20.9448L15.5031 2.94483C15.5336 2.67037 15.7808 2.47261 16.0553 2.5031Z" fill="#414141"/>
</svg>
