<svg width="24" height="24" viewBox="0 0 24 24" fill="none" xmlns="http://www.w3.org/2000/svg">
<path fill-rule="evenodd" clip-rule="evenodd" d="M12 3.5C7.30558 3.5 3.5 7.30558 3.5 12V18C3.5 18.2761 3.27614 18.5 3 18.5C2.72386 18.5 2.5 18.2761 2.5 18V12C2.5 6.75329 6.75329 2.5 12 2.5C17.2467 2.5 21.5 6.75329 21.5 12V18C21.5 18.2761 21.2761 18.5 21 18.5C20.7239 18.5 20.5 18.2761 20.5 18V12C20.5 7.30558 16.6944 3.5 12 3.5Z" fill="#414141"/>
<path fill-rule="evenodd" clip-rule="evenodd" d="M2.5 14C2.5 13.7239 2.72386 13.5 3 13.5H6C7.38071 13.5 8.5 14.6193 8.5 16V19C8.5 20.3807 7.38071 21.5 6 21.5H5C3.61929 21.5 2.5 20.3807 2.5 19V14ZM3.5 14.5V19C3.5 19.8284 4.17157 20.5 5 20.5H6C6.82843 20.5 7.5 19.8284 7.5 19V16C7.5 15.1716 6.82843 14.5 6 14.5H3.5ZM18 14.5C17.1716 14.5 16.5 15.1716 16.5 16V19C16.5 19.8284 17.1716 20.5 18 20.5H19C19.8284 20.5 20.5 19.8284 20.5 19V14.5H18ZM15.5 16C15.5 14.6193 16.6193 13.5 18 13.5H21C21.2761 13.5 21.5 13.7239 21.5 14V19C21.5 20.3807 20.3807 21.5 19 21.5H18C16.6193 21.5 15.5 20.3807 15.5 19V16Z" fill="#414141"/>
</svg>
