<svg width="24" height="24" viewBox="0 0 24 24" fill="none" xmlns="http://www.w3.org/2000/svg">
<path fill-rule="evenodd" clip-rule="evenodd" d="M7.1309 7.8682C6.93563 7.67294 6.93563 7.35636 7.1309 7.1611L11.3735 2.91845C11.5688 2.72319 11.8854 2.72319 12.0806 2.91845L16.3233 7.16109C16.5185 7.35636 16.5185 7.67294 16.3233 7.8682C16.128 8.06346 15.8114 8.06346 15.6162 7.8682L11.7271 3.97911L7.838 7.8682C7.64274 8.06346 7.32616 8.06346 7.1309 7.8682Z" fill="#414141"/>
<path fill-rule="evenodd" clip-rule="evenodd" d="M7.1309 16.1318C7.32616 15.9365 7.64274 15.9365 7.838 16.1318L11.7271 20.0209L15.6162 16.1318C15.8114 15.9365 16.128 15.9365 16.3233 16.1318C16.5185 16.3271 16.5185 16.6436 16.3233 16.8389L12.0806 21.0815C11.8854 21.2768 11.5688 21.2768 11.3735 21.0815L7.1309 16.8389C6.93563 16.6436 6.93563 16.3271 7.1309 16.1318Z" fill="#414141"/>
<path fill-rule="evenodd" clip-rule="evenodd" d="M11.7272 3.32857C12.0033 3.32857 12.2272 3.55243 12.2272 3.82857L12.2272 20.7281C12.2272 21.0042 12.0033 21.2281 11.7272 21.2281C11.451 21.2281 11.2272 21.0042 11.2272 20.7281L11.2272 3.82857C11.2272 3.55243 11.451 3.32857 11.7272 3.32857Z" fill="#414141"/>
</svg>
