<svg width="24" height="24" viewBox="0 0 24 24" fill="none" xmlns="http://www.w3.org/2000/svg">
<path fill-rule="evenodd" clip-rule="evenodd" d="M12.3426 7.53143C11.1411 7.32534 9.96618 8.01588 9.56165 9.16584C9.47001 9.42633 9.18455 9.56322 8.92406 9.47158C8.66356 9.37995 8.52668 9.09449 8.61831 8.83399C9.18466 7.22405 10.8296 6.2573 12.5117 6.54583C14.1937 6.83433 15.4224 8.29383 15.42 10.0004C15.4198 11.2656 14.4774 12.1459 13.6973 12.6659C13.292 12.9362 12.8903 13.1367 12.5918 13.2693C12.4419 13.336 12.3162 13.3863 12.2269 13.4203C12.1822 13.4373 12.1464 13.4503 12.1212 13.4593L12.0913 13.4698L12.0825 13.4728L12.0798 13.4737L12.0788 13.474C12.0786 13.4741 12.0781 13.4743 11.92 12.9999L12.0788 13.474C11.8168 13.5613 11.533 13.42 11.4456 13.158C11.3584 12.8962 11.4997 12.6132 11.7614 12.5257C11.7616 12.5257 11.7613 12.5258 11.7614 12.5257M11.7614 12.5257L11.7659 12.5242L11.7862 12.5171C11.8048 12.5104 11.8336 12.5 11.8709 12.4858C11.9456 12.4573 12.0543 12.4139 12.1857 12.3555C12.4497 12.2382 12.7979 12.0637 13.1426 11.8339C13.8624 11.354 14.42 10.7345 14.42 9.99992C14.4218 8.78088 13.5441 7.73752 12.3426 7.53143" fill="#414141"/>
<path fill-rule="evenodd" clip-rule="evenodd" d="M1.5 12C1.5 6.20101 6.20101 1.5 12 1.5C17.799 1.5 22.5 6.20101 22.5 12C22.5 17.799 17.799 22.5 12 22.5C6.20101 22.5 1.5 17.799 1.5 12ZM12 2.5C6.75329 2.5 2.5 6.75329 2.5 12C2.5 17.2467 6.75329 21.5 12 21.5C17.2467 21.5 21.5 17.2467 21.5 12C21.5 6.75329 17.2467 2.5 12 2.5Z" fill="#414141"/>
<path d="M13 17C13 17.5523 12.5523 18 12 18C11.4477 18 11 17.5523 11 17C11 16.4477 11.4477 16 12 16C12.5523 16 13 16.4477 13 17Z" fill="#414141"/>
</svg>
