<svg width="24" height="24" viewBox="0 0 24 24" fill="none" xmlns="http://www.w3.org/2000/svg">
<path fill-rule="evenodd" clip-rule="evenodd" d="M1.5 13C1.5 12.7239 1.72386 12.5 2 12.5H8C8.16718 12.5 8.32329 12.5836 8.41603 12.7226L10.2676 15.5H13.7324L15.584 12.7226C15.6767 12.5836 15.8328 12.5 16 12.5H22C22.2761 12.5 22.5 12.7239 22.5 13C22.5 13.2761 22.2761 13.5 22 13.5H16.2676L14.416 16.2774C14.3233 16.4164 14.1672 16.5 14 16.5H10C9.83282 16.5 9.67671 16.4164 9.58397 16.2774L7.73241 13.5H2C1.72386 13.5 1.5 13.2761 1.5 13Z" fill="#414141"/>
<path fill-rule="evenodd" clip-rule="evenodd" d="M5.01522 4.98465C5.41647 4.08183 6.31177 3.5 7.29975 3.5H16.7003C17.6882 3.5 18.5835 4.08184 18.9848 4.98466L22.2845 12.4091L21.8276 12.6122L22.2845 12.4091C22.4266 12.7287 22.5 13.0746 22.5 13.4244V18C22.5 19.3807 21.3807 20.5 20 20.5H4C2.61929 20.5 1.5 19.3807 1.5 18V13.4244C1.5 13.0746 1.57341 12.7287 1.71547 12.4091L2.17238 12.6122L1.71547 12.4091L5.01522 4.98465ZM7.29975 4.5C6.70696 4.5 6.16978 4.8491 5.92903 5.39079L2.62928 12.8152C2.54404 13.007 2.5 13.2146 2.5 13.4244V18C2.5 18.8284 3.17157 19.5 4 19.5H20C20.8284 19.5 21.5 18.8284 21.5 18V13.4244C21.5 13.2146 21.456 13.007 21.3707 12.8152L18.071 5.39079C17.8302 4.8491 17.293 4.5 16.7003 4.5H7.29975Z" fill="#414141"/>
</svg>
