<svg width="24" height="24" viewBox="0 0 24 24" fill="none" xmlns="http://www.w3.org/2000/svg">
<path fill-rule="evenodd" clip-rule="evenodd" d="M1.5 7C1.5 3.96243 3.96243 1.5 7 1.5H17C20.0376 1.5 22.5 3.96243 22.5 7V17C22.5 20.0376 20.0376 22.5 17 22.5H7C3.96243 22.5 1.5 20.0376 1.5 17V7ZM7 2.5C4.51472 2.5 2.5 4.51472 2.5 7V17C2.5 19.4853 4.51472 21.5 7 21.5H17C19.4853 21.5 21.5 19.4853 21.5 17V7C21.5 4.51472 19.4853 2.5 17 2.5H7Z" fill="#414141"/>
<path fill-rule="evenodd" clip-rule="evenodd" d="M12.5565 8.49461C11.0629 8.27313 9.59562 9.03446 8.91677 10.3832C8.23792 11.7319 8.50053 13.3639 9.56822 14.4316C10.6359 15.4993 12.2679 15.7619 13.6167 15.0831C14.9654 14.4042 15.7267 12.937 15.5052 11.4434C15.2791 9.91825 14.0816 8.72076 12.5565 8.49461ZM8.02353 9.9336C8.89634 8.19952 10.7828 7.22066 12.7032 7.50543C14.664 7.79619 16.2036 9.33583 16.4944 11.2967C16.7792 13.217 15.8003 15.1035 14.0662 15.9763C12.3322 16.8491 10.2338 16.5115 8.86111 15.1387C7.48838 13.766 7.15073 11.6677 8.02353 9.9336Z" fill="#414141"/>
</svg>
