<svg width="24" height="24" viewBox="0 0 24 24" fill="none" xmlns="http://www.w3.org/2000/svg">
<path fill-rule="evenodd" clip-rule="evenodd" d="M9.5 4C9.5 3.72386 9.72386 3.5 10 3.5H19C19.2761 3.5 19.5 3.72386 19.5 4C19.5 4.27614 19.2761 4.5 19 4.5H10C9.72386 4.5 9.5 4.27614 9.5 4Z" fill="#414141"/>
<path fill-rule="evenodd" clip-rule="evenodd" d="M4.5 20C4.5 19.7239 4.72386 19.5 5 19.5H14C14.2761 19.5 14.5 19.7239 14.5 20C14.5 20.2761 14.2761 20.5 14 20.5H5C4.72386 20.5 4.5 20.2761 4.5 20Z" fill="#414141"/>
<path fill-rule="evenodd" clip-rule="evenodd" d="M15.1757 3.53197C15.4343 3.62893 15.5653 3.91714 15.4683 4.1757L9.4683 20.1757C9.37134 20.4343 9.08313 20.5653 8.82457 20.4683C8.56601 20.3713 8.43501 20.0831 8.53197 19.8246L14.532 3.82457C14.6289 3.56601 14.9171 3.43501 15.1757 3.53197Z" fill="#414141"/>
</svg>
