<svg width="24" height="24" viewBox="0 0 24 24" fill="none" xmlns="http://www.w3.org/2000/svg">
<path fill-rule="evenodd" clip-rule="evenodd" d="M11.7764 1.55279C11.9172 1.4824 12.0828 1.4824 12.2236 1.55279L22.2236 6.55279C22.393 6.63748 22.5 6.81061 22.5 7C22.5 7.18939 22.393 7.36252 22.2236 7.44721L12.2236 12.4472C12.0828 12.5176 11.9172 12.5176 11.7764 12.4472L1.77639 7.44721C1.607 7.36252 1.5 7.18939 1.5 7C1.5 6.81061 1.607 6.63748 1.77639 6.55279L11.7764 1.55279ZM3.11803 7L12 11.441L20.882 7L12 2.55902L3.11803 7Z" fill="#414141"/>
<path fill-rule="evenodd" clip-rule="evenodd" d="M1.5529 16.7765C1.67639 16.5295 1.97673 16.4294 2.22372 16.5529L12.0001 21.4411L21.7765 16.5529C22.0235 16.4294 22.3238 16.5295 22.4473 16.7765C22.5708 17.0235 22.4707 17.3238 22.2237 17.4473L12.2237 22.4473C12.083 22.5177 11.9173 22.5177 11.7765 22.4473L1.7765 17.4473C1.52951 17.3238 1.4294 17.0235 1.5529 16.7765Z" fill="#414141"/>
<path fill-rule="evenodd" clip-rule="evenodd" d="M1.5529 11.7765C1.67639 11.5295 1.97673 11.4294 2.22372 11.5529L12.0001 16.4411L21.7765 11.5529C22.0235 11.4294 22.3238 11.5295 22.4473 11.7765C22.5708 12.0235 22.4707 12.3238 22.2237 12.4473L12.2237 17.4473C12.083 17.5177 11.9173 17.5177 11.7765 17.4473L1.7765 12.4473C1.52951 12.3238 1.4294 12.0235 1.5529 11.7765Z" fill="#414141"/>
</svg>
