<svg width="24" height="24" viewBox="0 0 24 24" fill="none" xmlns="http://www.w3.org/2000/svg">
<path fill-rule="evenodd" clip-rule="evenodd" d="M1.5 12C1.5 6.20101 6.20101 1.5 12 1.5C17.799 1.5 22.5 6.20101 22.5 12C22.5 17.799 17.799 22.5 12 22.5C6.20101 22.5 1.5 17.799 1.5 12ZM12 2.5C6.75329 2.5 2.5 6.75329 2.5 12C2.5 17.2467 6.75329 21.5 12 21.5C17.2467 21.5 21.5 17.2467 21.5 12C21.5 6.75329 17.2467 2.5 12 2.5Z" fill="#414141"/>
<path fill-rule="evenodd" clip-rule="evenodd" d="M7.5 12C7.5 9.51472 9.51472 7.5 12 7.5C14.4853 7.5 16.5 9.51472 16.5 12C16.5 14.4853 14.4853 16.5 12 16.5C9.51472 16.5 7.5 14.4853 7.5 12ZM12 8.5C10.067 8.5 8.5 10.067 8.5 12C8.5 13.933 10.067 15.5 12 15.5C13.933 15.5 15.5 13.933 15.5 12C15.5 10.067 13.933 8.5 12 8.5Z" fill="#414141"/>
<path fill-rule="evenodd" clip-rule="evenodd" d="M4.57613 4.57662C4.7714 4.38136 5.08798 4.38136 5.28324 4.57662L9.52324 8.81662C9.7185 9.01188 9.7185 9.32847 9.52324 9.52373C9.32798 9.71899 9.0114 9.71899 8.81613 9.52373L4.57613 5.28373C4.38087 5.08847 4.38087 4.77188 4.57613 4.57662Z" fill="#414141"/>
<path fill-rule="evenodd" clip-rule="evenodd" d="M14.4746 14.4765C14.6698 14.2813 14.9864 14.2813 15.1817 14.4765L19.4217 18.7165C19.6169 18.9118 19.6169 19.2284 19.4217 19.4236C19.2264 19.6189 18.9098 19.6189 18.7146 19.4236L14.4746 15.1836C14.2793 14.9884 14.2793 14.6718 14.4746 14.4765Z" fill="#414141"/>
<path fill-rule="evenodd" clip-rule="evenodd" d="M19.4217 4.57662C19.6169 4.77188 19.6169 5.08847 19.4217 5.28373L15.1817 9.52373C14.9864 9.71899 14.6698 9.71899 14.4746 9.52373C14.2793 9.32847 14.2793 9.01188 14.4746 8.81662L18.7146 4.57662C18.9098 4.38136 19.2264 4.38136 19.4217 4.57662Z" fill="#414141"/>
<path fill-rule="evenodd" clip-rule="evenodd" d="M18.7117 5.28658C18.9069 5.48185 18.9069 5.79843 18.7117 5.99369L15.1817 9.52369C14.9864 9.71895 14.6698 9.71895 14.4746 9.52369C14.2793 9.32843 14.2793 9.01185 14.4746 8.81658L18.0046 5.28658C18.1998 5.09132 18.5164 5.09132 18.7117 5.28658Z" fill="#414141"/>
<path fill-rule="evenodd" clip-rule="evenodd" d="M9.52324 14.4765C9.7185 14.6718 9.7185 14.9884 9.52324 15.1836L5.28324 19.4236C5.08798 19.6189 4.7714 19.6189 4.57613 19.4236C4.38087 19.2284 4.38087 18.9118 4.57613 18.7165L8.81613 14.4765C9.0114 14.2813 9.32798 14.2813 9.52324 14.4765Z" fill="#414141"/>
</svg>
