<svg width="24" height="24" viewBox="0 0 24 24" fill="none" xmlns="http://www.w3.org/2000/svg">
<path fill-rule="evenodd" clip-rule="evenodd" d="M6 7.5C3.51472 7.5 1.5 9.51472 1.5 12C1.5 13.1935 1.97411 14.3381 2.81802 15.182C3.66193 16.0259 4.80653 16.5 6 16.5H9C9.27614 16.5 9.5 16.7239 9.5 17C9.5 17.2761 9.27614 17.5 9 17.5H6C4.54131 17.5 3.14236 16.9205 2.11091 15.8891C1.07946 14.8576 0.5 13.4587 0.5 12C0.5 8.96243 2.96243 6.5 6 6.5H9C9.27614 6.5 9.5 6.72386 9.5 7C9.5 7.27614 9.27614 7.5 9 7.5H6ZM14.5 7C14.5 6.72386 14.7239 6.5 15 6.5H18C19.4587 6.5 20.8576 7.07946 21.8891 8.11091C22.9205 9.14236 23.5 10.5413 23.5 12C23.5 15.0376 21.0376 17.5 18 17.5H15C14.7239 17.5 14.5 17.2761 14.5 17C14.5 16.7239 14.7239 16.5 15 16.5H18C20.4853 16.5 22.5 14.4853 22.5 12C22.5 10.8065 22.0259 9.66193 21.182 8.81802C20.3381 7.97411 19.1935 7.5 18 7.5H15C14.7239 7.5 14.5 7.27614 14.5 7Z" fill="#414141"/>
<path fill-rule="evenodd" clip-rule="evenodd" d="M7.5 12C7.5 11.7239 7.72386 11.5 8 11.5H16C16.2761 11.5 16.5 11.7239 16.5 12C16.5 12.2761 16.2761 12.5 16 12.5H8C7.72386 12.5 7.5 12.2761 7.5 12Z" fill="#414141"/>
</svg>
