<svg width="24" height="24" viewBox="0 0 24 24" fill="none" xmlns="http://www.w3.org/2000/svg">
<path fill-rule="evenodd" clip-rule="evenodd" d="M13.1227 3.11032C15.2808 1.02598 18.7111 1.05578 20.8327 3.17732C22.9542 5.29886 22.984 8.72924 20.8997 10.8873L20.8936 10.8936L17.8936 13.8935C17.8936 13.8935 17.8937 13.8934 17.8936 13.8935C16.7655 15.022 15.2027 15.605 13.611 15.491C12.0192 15.377 10.5555 14.5773 9.59965 13.2995C9.43424 13.0783 9.47942 12.765 9.70054 12.5996C9.92167 12.4342 10.235 12.4794 10.4004 12.7005C11.1825 13.746 12.3801 14.4003 13.6824 14.4936C14.9847 14.5868 16.2633 14.1099 17.1864 13.1865L20.1834 10.1895C21.8857 8.42365 21.8604 5.61922 20.1256 3.88443C18.3906 2.14946 15.5858 2.12426 13.8199 3.82716L12.1026 5.53455C11.9067 5.72924 11.5901 5.72832 11.3954 5.53249C11.2008 5.33666 11.2017 5.02008 11.3975 4.82538L13.1227 3.11032Z" fill="#414141"/>
<path fill-rule="evenodd" clip-rule="evenodd" d="M6.10463 10.1063C7.23283 8.97766 8.79559 8.3947 10.3873 8.5087C11.979 8.62269 13.4428 9.4224 14.3986 10.7003C14.564 10.9214 14.5189 11.2347 14.2977 11.4001C14.0766 11.5655 13.7633 11.5204 13.5979 11.2992C12.8158 10.2537 11.6182 9.59941 10.3159 9.50614C9.01356 9.41287 7.73494 9.88984 6.81187 10.8132L3.81495 13.8102C2.11255 15.576 2.1379 18.3805 3.87271 20.1153C5.6075 21.8501 8.41193 21.8755 10.1778 20.1731L11.8847 18.4662C12.08 18.2709 12.3965 18.2709 12.5918 18.4662C12.7871 18.6615 12.7871 18.978 12.5918 19.1733L10.8757 20.8895C8.71757 22.9738 5.28714 22.9439 3.1656 20.8224C1.04407 18.7009 1.01426 15.2705 3.0986 13.1124L3.10464 13.1061L6.10463 10.1063Z" fill="#414141"/>
</svg>
