<svg width="24" height="24" viewBox="0 0 24 24" fill="none" xmlns="http://www.w3.org/2000/svg">
<path fill-rule="evenodd" clip-rule="evenodd" d="M12 1.5C12.2761 1.5 12.5 1.72386 12.5 2V6C12.5 6.27614 12.2761 6.5 12 6.5C11.7239 6.5 11.5 6.27614 11.5 6V2C11.5 1.72386 11.7239 1.5 12 1.5Z" fill="#414141"/>
<path fill-rule="evenodd" clip-rule="evenodd" d="M12 17.5C12.2761 17.5 12.5 17.7239 12.5 18V22C12.5 22.2761 12.2761 22.5 12 22.5C11.7239 22.5 11.5 22.2761 11.5 22V18C11.5 17.7239 11.7239 17.5 12 17.5Z" fill="#414141"/>
<path fill-rule="evenodd" clip-rule="evenodd" d="M4.57613 4.57662C4.7714 4.38136 5.08798 4.38136 5.28324 4.57662L8.11324 7.40662C8.3085 7.60188 8.3085 7.91847 8.11324 8.11373C7.91798 8.30899 7.6014 8.30899 7.40613 8.11373L4.57613 5.28373C4.38087 5.08847 4.38087 4.77188 4.57613 4.57662Z" fill="#414141"/>
<path fill-rule="evenodd" clip-rule="evenodd" d="M15.8847 15.8867C16.08 15.6914 16.3966 15.6914 16.5918 15.8867L19.4218 18.7167C19.6171 18.9119 19.6171 19.2285 19.4218 19.4238C19.2266 19.619 18.91 19.619 18.7147 19.4238L15.8847 16.5938C15.6895 16.3985 15.6895 16.0819 15.8847 15.8867Z" fill="#414141"/>
<path fill-rule="evenodd" clip-rule="evenodd" d="M1.5 12C1.5 11.7239 1.72386 11.5 2 11.5H6C6.27614 11.5 6.5 11.7239 6.5 12C6.5 12.2761 6.27614 12.5 6 12.5H2C1.72386 12.5 1.5 12.2761 1.5 12Z" fill="#414141"/>
<path fill-rule="evenodd" clip-rule="evenodd" d="M17.5 12C17.5 11.7239 17.7239 11.5 18 11.5H22C22.2761 11.5 22.5 11.7239 22.5 12C22.5 12.2761 22.2761 12.5 22 12.5H18C17.7239 12.5 17.5 12.2761 17.5 12Z" fill="#414141"/>
<path fill-rule="evenodd" clip-rule="evenodd" d="M8.11324 15.8867C8.3085 16.0819 8.3085 16.3985 8.11324 16.5938L5.28324 19.4238C5.08798 19.619 4.7714 19.619 4.57613 19.4238C4.38087 19.2285 4.38087 18.9119 4.57613 18.7167L7.40613 15.8867C7.6014 15.6914 7.91798 15.6914 8.11324 15.8867Z" fill="#414141"/>
<path fill-rule="evenodd" clip-rule="evenodd" d="M19.4218 4.57662C19.6171 4.77188 19.6171 5.08847 19.4218 5.28373L16.5918 8.11373C16.3966 8.30899 16.08 8.30899 15.8847 8.11373C15.6895 7.91847 15.6895 7.60188 15.8847 7.40662L18.7147 4.57662C18.91 4.38136 19.2266 4.38136 19.4218 4.57662Z" fill="#414141"/>
</svg>
