<svg width="24" height="24" viewBox="0 0 24 24" fill="none" xmlns="http://www.w3.org/2000/svg">
<path fill-rule="evenodd" clip-rule="evenodd" d="M2.5 13C2.5 11.6193 3.61929 10.5 5 10.5H19C20.3807 10.5 21.5 11.6193 21.5 13V20C21.5 21.3807 20.3807 22.5 19 22.5H5C3.61929 22.5 2.5 21.3807 2.5 20V13ZM5 11.5C4.17157 11.5 3.5 12.1716 3.5 13V20C3.5 20.8284 4.17157 21.5 5 21.5H19C19.8284 21.5 20.5 20.8284 20.5 20V13C20.5 12.1716 19.8284 11.5 19 11.5H5Z" fill="#414141"/>
<path fill-rule="evenodd" clip-rule="evenodd" d="M12 2.5C9.51472 2.5 7.5 4.51472 7.5 7V11C7.5 11.2761 7.27614 11.5 7 11.5C6.72386 11.5 6.5 11.2761 6.5 11V7C6.5 3.96243 8.96243 1.5 12 1.5C15.0376 1.5 17.5 3.96243 17.5 7V11C17.5 11.2761 17.2761 11.5 17 11.5C16.7239 11.5 16.5 11.2761 16.5 11V7C16.5 4.51472 14.4853 2.5 12 2.5Z" fill="#414141"/>
</svg>
