<svg width="24" height="24" viewBox="0 0 24 24" fill="none" xmlns="http://www.w3.org/2000/svg">
<path fill-rule="evenodd" clip-rule="evenodd" d="M4 4.5C3.17614 4.5 2.5 5.17614 2.5 6V18C2.5 18.8239 3.17614 19.5 4 19.5H20C20.8239 19.5 21.5 18.8239 21.5 18V6C21.5 5.17614 20.8239 4.5 20 4.5H4ZM1.5 6C1.5 4.62386 2.62386 3.5 4 3.5H20C21.3761 3.5 22.5 4.62386 22.5 6V18C22.5 19.3761 21.3761 20.5 20 20.5H4C2.62386 20.5 1.5 19.3761 1.5 18V6Z" fill="#414141"/>
<path fill-rule="evenodd" clip-rule="evenodd" d="M1.59043 5.71331C1.74878 5.48709 2.06055 5.43207 2.28677 5.59043L12 12.3897L21.7133 5.59043C21.9395 5.43207 22.2513 5.48709 22.4097 5.71331C22.568 5.93954 22.513 6.2513 22.2868 6.40966L12.2868 13.4097C12.1146 13.5302 11.8855 13.5302 11.7133 13.4097L1.71331 6.40966C1.48709 6.2513 1.43207 5.93954 1.59043 5.71331Z" fill="#414141"/>
</svg>
