<svg width="24" height="24" viewBox="0 0 24 24" fill="none" xmlns="http://www.w3.org/2000/svg">
<path fill-rule="evenodd" clip-rule="evenodd" d="M7.75193 1.56588C7.89708 1.48294 8.07408 1.47802 8.22361 1.55279L15.9843 5.43312L22.7519 1.56588C22.9067 1.47745 23.0968 1.47808 23.251 1.56755C23.4051 1.65701 23.5 1.82177 23.5 2V18C23.5 18.1794 23.4039 18.3451 23.2481 18.4341L16.2481 22.4341C16.1029 22.5171 15.9259 22.522 15.7764 22.4472L8.01573 18.5669L1.24807 22.4341C1.09332 22.5226 0.903194 22.5219 0.749037 22.4325C0.594879 22.343 0.5 22.1782 0.5 22V6C0.5 5.82057 0.596143 5.6549 0.751931 5.56588L7.75193 1.56588ZM8.01573 2.56688L1.5 6.29016V21.1384L7.75193 17.5659C7.89708 17.4829 8.07408 17.478 8.22361 17.5528L15.9843 21.4331L22.5 17.7098V2.86159L16.2481 6.43412C16.1029 6.51706 15.9259 6.52198 15.7764 6.44721L8.01573 2.56688Z" fill="#414141"/>
<path fill-rule="evenodd" clip-rule="evenodd" d="M8 1.5C8.27614 1.5 8.5 1.72386 8.5 2V18C8.5 18.2761 8.27614 18.5 8 18.5C7.72386 18.5 7.5 18.2761 7.5 18V2C7.5 1.72386 7.72386 1.5 8 1.5Z" fill="#414141"/>
<path fill-rule="evenodd" clip-rule="evenodd" d="M16 5.5C16.2761 5.5 16.5 5.72386 16.5 6V22C16.5 22.2761 16.2761 22.5 16 22.5C15.7239 22.5 15.5 22.2761 15.5 22V6C15.5 5.72386 15.7239 5.5 16 5.5Z" fill="#414141"/>
</svg>
