<svg width="24" height="24" viewBox="0 0 24 24" fill="none" xmlns="http://www.w3.org/2000/svg">
<path fill-rule="evenodd" clip-rule="evenodd" d="M14.5 3C14.5 2.72386 14.7239 2.5 15 2.5H21C21.2761 2.5 21.5 2.72386 21.5 3V9C21.5 9.27614 21.2761 9.5 21 9.5C20.7239 9.5 20.5 9.27614 20.5 9V3.5H15C14.7239 3.5 14.5 3.27614 14.5 3Z" fill="#414141"/>
<path fill-rule="evenodd" clip-rule="evenodd" d="M3 14.5C3.27614 14.5 3.5 14.7239 3.5 15V20.5H9C9.27614 20.5 9.5 20.7239 9.5 21C9.5 21.2761 9.27614 21.5 9 21.5H3C2.72386 21.5 2.5 21.2761 2.5 21V15C2.5 14.7239 2.72386 14.5 3 14.5Z" fill="#414141"/>
<path fill-rule="evenodd" clip-rule="evenodd" d="M21.3536 2.64645C21.5488 2.84171 21.5488 3.15829 21.3536 3.35355L14.3536 10.3536C14.1583 10.5488 13.8417 10.5488 13.6464 10.3536C13.4512 10.1583 13.4512 9.84171 13.6464 9.64645L20.6464 2.64645C20.8417 2.45118 21.1583 2.45118 21.3536 2.64645Z" fill="#414141"/>
<path fill-rule="evenodd" clip-rule="evenodd" d="M10.3536 13.6464C10.5488 13.8417 10.5488 14.1583 10.3536 14.3536L3.35355 21.3536C3.15829 21.5488 2.84171 21.5488 2.64645 21.3536C2.45118 21.1583 2.45118 20.8417 2.64645 20.6464L9.64645 13.6464C9.84171 13.4512 10.1583 13.4512 10.3536 13.6464Z" fill="#414141"/>
</svg>
