<svg width="24" height="24" viewBox="0 0 24 24" fill="none" xmlns="http://www.w3.org/2000/svg">
<path fill-rule="evenodd" clip-rule="evenodd" d="M2.5 5C2.5 3.61929 3.61929 2.5 5 2.5H8C8.27614 2.5 8.5 2.72386 8.5 3C8.5 3.27614 8.27614 3.5 8 3.5H5C4.17157 3.5 3.5 4.17157 3.5 5V8C3.5 8.27614 3.27614 8.5 3 8.5C2.72386 8.5 2.5 8.27614 2.5 8V5ZM15.5 3C15.5 2.72386 15.7239 2.5 16 2.5H19C20.3807 2.5 21.5 3.61929 21.5 5V8C21.5 8.27614 21.2761 8.5 21 8.5C20.7239 8.5 20.5 8.27614 20.5 8V5C20.5 4.17157 19.8284 3.5 19 3.5H16C15.7239 3.5 15.5 3.27614 15.5 3ZM3 15.5C3.27614 15.5 3.5 15.7239 3.5 16V19C3.5 19.8284 4.17157 20.5 5 20.5H8C8.27614 20.5 8.5 20.7239 8.5 21C8.5 21.2761 8.27614 21.5 8 21.5H5C3.61929 21.5 2.5 20.3807 2.5 19V16C2.5 15.7239 2.72386 15.5 3 15.5ZM21 15.5C21.2761 15.5 21.5 15.7239 21.5 16V19C21.5 20.3807 20.3807 21.5 19 21.5H16C15.7239 21.5 15.5 21.2761 15.5 21C15.5 20.7239 15.7239 20.5 16 20.5H19C19.8284 20.5 20.5 19.8284 20.5 19V16C20.5 15.7239 20.7239 15.5 21 15.5Z" fill="#414141"/>
</svg>
