<svg width="24" height="24" viewBox="0 0 24 24" fill="none" xmlns="http://www.w3.org/2000/svg">
<path fill-rule="evenodd" clip-rule="evenodd" d="M5 3.5C4.17157 3.5 3.5 4.17157 3.5 5V19.7929L6.64645 16.6464C6.74021 16.5527 6.86739 16.5 7 16.5H19C19.8284 16.5 20.5 15.8284 20.5 15V5C20.5 4.17157 19.8284 3.5 19 3.5H5ZM2.5 5C2.5 3.61929 3.61929 2.5 5 2.5H19C20.3807 2.5 21.5 3.61929 21.5 5V15C21.5 16.3807 20.3807 17.5 19 17.5H7.20711L3.35355 21.3536C3.21055 21.4966 2.9955 21.5393 2.80866 21.4619C2.62182 21.3846 2.5 21.2022 2.5 21V5Z" fill="#414141"/>
<path fill-rule="evenodd" clip-rule="evenodd" d="M5.5 7C5.5 6.72386 5.72386 6.5 6 6.5H18C18.2761 6.5 18.5 6.72386 18.5 7C18.5 7.27614 18.2761 7.5 18 7.5H6C5.72386 7.5 5.5 7.27614 5.5 7Z" fill="#414141"/>
<path fill-rule="evenodd" clip-rule="evenodd" d="M5.5 10C5.5 9.72386 5.72386 9.5 6 9.5H18C18.2761 9.5 18.5 9.72386 18.5 10C18.5 10.2761 18.2761 10.5 18 10.5H6C5.72386 10.5 5.5 10.2761 5.5 10Z" fill="#414141"/>
<path fill-rule="evenodd" clip-rule="evenodd" d="M5.5 13C5.5 12.7239 5.72386 12.5 6 12.5H18C18.2761 12.5 18.5 12.7239 18.5 13C18.5 13.2761 18.2761 13.5 18 13.5H6C5.72386 13.5 5.5 13.2761 5.5 13Z" fill="#414141"/>
<path d="M22 4C22 6.20914 20.2091 8 18 8C15.7909 8 14 6.20914 14 4C14 1.79086 15.7909 0 18 0C20.2091 0 22 1.79086 22 4Z" fill="#FF6633"/>
</svg>
