<svg width="24" height="24" viewBox="0 0 24 24" fill="none" xmlns="http://www.w3.org/2000/svg">
<path fill-rule="evenodd" clip-rule="evenodd" d="M12.4987 3.50003C11.2576 3.49679 10.0333 3.78676 8.92544 4.34633L8.92354 4.34728L8.92354 4.34728C6.21359 5.70167 4.50119 8.47066 4.50001 11.5002L4.50001 11.5013C4.49678 12.7424 4.78675 13.9668 5.34631 15.0746C5.40642 15.1936 5.41651 15.3317 5.37436 15.4581L3.79058 20.2095L8.5419 18.6257C8.66837 18.5835 8.80644 18.5936 8.92544 18.6537C10.0333 19.2133 11.2576 19.5033 12.4987 19.5L12.4998 19.5C15.5294 19.4989 18.2984 17.7865 19.6528 15.0765L19.6537 15.0746C20.2133 13.9668 20.5033 12.7424 20.5 11.5013L21 11.5H20.5V11.014C20.2698 6.96354 17.0365 3.73029 12.986 3.50003H12.5L12.4987 3.50003ZM21.5 11.4987C21.5 11.499 21.5 11.4992 21.5 11.4995C21.5035 12.8974 21.177 14.2765 20.5469 15.5244C19.0231 18.5724 15.9085 20.4985 12.5008 20.5C11.1726 20.5034 9.86161 20.2088 8.66386 19.6391L3.15813 21.4744C2.97846 21.5343 2.78038 21.4875 2.64646 21.3536C2.51254 21.2197 2.46578 21.0216 2.52567 20.8419L4.36092 15.3362C3.7912 14.1384 3.49663 12.8274 3.50001 11.4993C3.50001 11.4991 3.50001 11.4989 3.50002 11.4987L4.00001 11.5L3.50001 11.4998C3.50001 11.4997 3.50001 11.4995 3.50001 11.4993C3.50154 8.0916 5.42755 4.97703 8.47553 3.45325C8.47522 3.45341 8.4749 3.45357 8.47459 3.45373L8.70001 3.90003L8.47648 3.45278C8.47617 3.45293 8.47585 3.45309 8.47553 3.45325C9.7235 2.82309 11.1026 2.49649 12.5007 2.50003H13C13.0092 2.50003 13.0184 2.50028 13.0276 2.50079C17.5978 2.75293 21.2471 6.40221 21.4993 10.9725C21.4998 10.9817 21.5 10.9908 21.5 11L21.5 11.4987ZM12.5008 20.5C12.5006 20.5 12.5004 20.5 12.5002 20.5L12.5 20L12.5013 20.5C12.5011 20.5 12.5009 20.5 12.5008 20.5Z" fill="#414141"/>
<path fill-rule="evenodd" clip-rule="evenodd" d="M9.5 12C9.77614 12 10 11.7761 10 11.5C10 11.2239 9.77614 11 9.5 11C9.22386 11 9 11.2239 9 11.5C9 11.7761 9.22386 12 9.5 12ZM9.5 13C10.3284 13 11 12.3284 11 11.5C11 10.6716 10.3284 10 9.5 10C8.67157 10 8 10.6716 8 11.5C8 12.3284 8.67157 13 9.5 13Z" fill="#414141"/>
<path fill-rule="evenodd" clip-rule="evenodd" d="M15.5 12C15.7761 12 16 11.7761 16 11.5C16 11.2239 15.7761 11 15.5 11C15.2239 11 15 11.2239 15 11.5C15 11.7761 15.2239 12 15.5 12ZM15.5 13C16.3284 13 17 12.3284 17 11.5C17 10.6716 16.3284 10 15.5 10C14.6716 10 14 10.6716 14 11.5C14 12.3284 14.6716 13 15.5 13Z" fill="#414141"/>
<path d="M22 4C22 6.20914 20.2091 8 18 8C15.7909 8 14 6.20914 14 4C14 1.79086 15.7909 0 18 0C20.2091 0 22 1.79086 22 4Z" fill="#FF6633"/>
</svg>
