<svg width="24" height="24" viewBox="0 0 24 24" fill="none" xmlns="http://www.w3.org/2000/svg">
<path fill-rule="evenodd" clip-rule="evenodd" d="M0.646447 0.646447C0.841709 0.451184 1.15829 0.451184 1.35355 0.646447L23.3536 22.6464C23.5488 22.8417 23.5488 23.1583 23.3536 23.3536C23.1583 23.5488 22.8417 23.5488 22.6464 23.3536L0.646447 1.35355C0.451184 1.15829 0.451184 0.841709 0.646447 0.646447Z" fill="#414141"/>
<path fill-rule="evenodd" clip-rule="evenodd" d="M8.56859 3.3003C8.92641 1.53812 10.5613 0.333792 12.3503 0.514502C14.1392 0.695196 15.5001 2.20188 15.4986 3.9998C15.4986 3.99996 15.4986 3.99963 15.4986 3.9998M15.4986 3.9998V9.3398C15.4986 9.61594 15.2747 9.8398 14.9986 9.8398C14.7225 9.8398 14.4986 9.61594 14.4986 9.3398V3.9998C14.4999 2.71541 13.5277 1.63852 12.2498 1.50944C10.972 1.38036 9.80418 2.2406 9.54859 3.49929C9.49364 3.76991 9.22972 3.94475 8.9591 3.8898C8.68848 3.83485 8.51364 3.57092 8.56859 3.3003M9 8.4998C9.27614 8.4998 9.5 8.72366 9.5 8.9998V11.9996C9.50097 13.0099 10.11 13.9204 11.0436 14.307C11.9772 14.6936 13.0517 14.4801 13.7667 13.766C13.962 13.5709 14.2786 13.5711 14.4738 13.7665C14.6689 13.9618 14.6687 14.2784 14.4733 14.4736C13.4724 15.4733 11.9681 15.7721 10.661 15.2309C9.35398 14.6897 8.50124 13.4149 8.5 12.0002L8.5 8.9998C8.5 8.72366 8.72386 8.4998 9 8.4998Z" fill="#414141"/>
<path fill-rule="evenodd" clip-rule="evenodd" d="M5.00019 9.5C5.27633 9.5 5.50019 9.72386 5.50019 10V12.0037C5.4808 14.6534 7.07178 17.0496 9.52135 18.0601C11.9709 19.0705 14.7886 18.4929 16.643 16.6001C16.8363 16.4028 17.1529 16.3996 17.3501 16.5928C17.5474 16.7861 17.5506 17.1027 17.3573 17.2999C15.2177 19.4839 11.9664 20.1504 9.14002 18.9845C6.31417 17.8188 4.47858 15.0548 4.50019 11.9982V10C4.50019 9.72386 4.72405 9.5 5.00019 9.5ZM19.0001 9.5C19.2763 9.5 19.5001 9.72386 19.5001 10V12C19.4998 12.4419 19.4603 12.8833 19.3823 13.3183C19.3335 13.5901 19.0736 13.7709 18.8018 13.7221C18.53 13.6734 18.3492 13.4135 18.398 13.1417C18.4656 12.7649 18.4998 12.3828 18.5001 12C18.5001 11.9999 18.5001 12.0001 18.5001 12M18.5001 12V10C18.5001 9.72386 18.724 9.5 19.0001 9.5" fill="#414141"/>
<path fill-rule="evenodd" clip-rule="evenodd" d="M12 18.5C12.2761 18.5 12.5 18.7239 12.5 19V23C12.5 23.2761 12.2761 23.5 12 23.5C11.7239 23.5 11.5 23.2761 11.5 23V19C11.5 18.7239 11.7239 18.5 12 18.5Z" fill="#414141"/>
<path fill-rule="evenodd" clip-rule="evenodd" d="M7.5 23C7.5 22.7239 7.72386 22.5 8 22.5H16C16.2761 22.5 16.5 22.7239 16.5 23C16.5 23.2761 16.2761 23.5 16 23.5H8C7.72386 23.5 7.5 23.2761 7.5 23Z" fill="#414141"/>
</svg>
