<svg width="24" height="24" viewBox="0 0 24 24" fill="none" xmlns="http://www.w3.org/2000/svg">
<path fill-rule="evenodd" clip-rule="evenodd" d="M8.5 4C8.5 2.067 10.067 0.5 12 0.5C13.933 0.5 15.5 2.067 15.5 4V12C15.5 13.933 13.933 15.5 12 15.5C10.067 15.5 8.5 13.933 8.5 12V4ZM12 1.5C10.6193 1.5 9.5 2.61929 9.5 4V12C9.5 13.3807 10.6193 14.5 12 14.5C13.3807 14.5 14.5 13.3807 14.5 12V4C14.5 2.61929 13.3807 1.5 12 1.5Z" fill="#414141"/>
<path fill-rule="evenodd" clip-rule="evenodd" d="M5 9.5C5.27614 9.5 5.5 9.72386 5.5 10V12C5.5 15.5899 8.41015 18.5 12 18.5C15.5899 18.5 18.5 15.5899 18.5 12V10C18.5 9.72386 18.7239 9.5 19 9.5C19.2761 9.5 19.5 9.72386 19.5 10V12C19.5 16.1421 16.1421 19.5 12 19.5C7.85786 19.5 4.5 16.1421 4.5 12V10C4.5 9.72386 4.72386 9.5 5 9.5Z" fill="#414141"/>
<path fill-rule="evenodd" clip-rule="evenodd" d="M12 18.5C12.2761 18.5 12.5 18.7239 12.5 19V23C12.5 23.2761 12.2761 23.5 12 23.5C11.7239 23.5 11.5 23.2761 11.5 23V19C11.5 18.7239 11.7239 18.5 12 18.5Z" fill="#414141"/>
<path fill-rule="evenodd" clip-rule="evenodd" d="M7.5 23C7.5 22.7239 7.72386 22.5 8 22.5H16C16.2761 22.5 16.5 22.7239 16.5 23C16.5 23.2761 16.2761 23.5 16 23.5H8C7.72386 23.5 7.5 23.2761 7.5 23Z" fill="#414141"/>
</svg>
