<svg width="24" height="24" viewBox="0 0 24 24" fill="none" xmlns="http://www.w3.org/2000/svg">
<path fill-rule="evenodd" clip-rule="evenodd" d="M8 2.5C8.27614 2.5 8.5 2.72386 8.5 3V6C8.5 7.38071 7.38071 8.5 6 8.5H3C2.72386 8.5 2.5 8.27614 2.5 8C2.5 7.72386 2.72386 7.5 3 7.5H6C6.82843 7.5 7.5 6.82843 7.5 6V3C7.5 2.72386 7.72386 2.5 8 2.5ZM16 2.5C16.2761 2.5 16.5 2.72386 16.5 3V6C16.5 6.82843 17.1716 7.5 18 7.5H21C21.2761 7.5 21.5 7.72386 21.5 8C21.5 8.27614 21.2761 8.5 21 8.5H18C16.6193 8.5 15.5 7.38071 15.5 6V3C15.5 2.72386 15.7239 2.5 16 2.5ZM2.5 16C2.5 15.7239 2.72386 15.5 3 15.5H6C7.38071 15.5 8.5 16.6193 8.5 18V21C8.5 21.2761 8.27614 21.5 8 21.5C7.72386 21.5 7.5 21.2761 7.5 21V18C7.5 17.1716 6.82843 16.5 6 16.5H3C2.72386 16.5 2.5 16.2761 2.5 16ZM18 16.5C17.1716 16.5 16.5 17.1716 16.5 18V21C16.5 21.2761 16.2761 21.5 16 21.5C15.7239 21.5 15.5 21.2761 15.5 21V18C15.5 16.6193 16.6193 15.5 18 15.5H21C21.2761 15.5 21.5 15.7239 21.5 16C21.5 16.2761 21.2761 16.5 21 16.5H18Z" fill="#414141"/>
</svg>
