<svg width="24" height="24" viewBox="0 0 24 24" fill="none" xmlns="http://www.w3.org/2000/svg">
<path fill-rule="evenodd" clip-rule="evenodd" d="M3.5 14C3.5 13.7239 3.72386 13.5 4 13.5H10C10.2761 13.5 10.5 13.7239 10.5 14V20C10.5 20.2761 10.2761 20.5 10 20.5C9.72386 20.5 9.5 20.2761 9.5 20V14.5H4C3.72386 14.5 3.5 14.2761 3.5 14Z" fill="#414141"/>
<path fill-rule="evenodd" clip-rule="evenodd" d="M14 3.5C14.2761 3.5 14.5 3.72386 14.5 4V9.5H20C20.2761 9.5 20.5 9.72386 20.5 10C20.5 10.2761 20.2761 10.5 20 10.5H14C13.7239 10.5 13.5 10.2761 13.5 10V4C13.5 3.72386 13.7239 3.5 14 3.5Z" fill="#414141"/>
<path fill-rule="evenodd" clip-rule="evenodd" d="M21.3536 2.64645C21.5488 2.84171 21.5488 3.15829 21.3536 3.35355L14.3536 10.3536C14.1583 10.5488 13.8417 10.5488 13.6464 10.3536C13.4512 10.1583 13.4512 9.84171 13.6464 9.64645L20.6464 2.64645C20.8417 2.45118 21.1583 2.45118 21.3536 2.64645Z" fill="#414141"/>
<path fill-rule="evenodd" clip-rule="evenodd" d="M10.3536 13.6464C10.5488 13.8417 10.5488 14.1583 10.3536 14.3536L3.35355 21.3536C3.15829 21.5488 2.84171 21.5488 2.64645 21.3536C2.45118 21.1583 2.45118 20.8417 2.64645 20.6464L9.64645 13.6464C9.84171 13.4512 10.1583 13.4512 10.3536 13.6464Z" fill="#414141"/>
</svg>
