<svg width="24" height="24" viewBox="0 0 24 24" fill="none" xmlns="http://www.w3.org/2000/svg">
<path fill-rule="evenodd" clip-rule="evenodd" d="M1.5 5C1.5 3.61929 2.61929 2.5 4 2.5H20C21.3807 2.5 22.5 3.61929 22.5 5V15C22.5 16.3807 21.3807 17.5 20 17.5H4C2.61929 17.5 1.5 16.3807 1.5 15V5ZM4 3.5C3.17157 3.5 2.5 4.17157 2.5 5V15C2.5 15.8284 3.17157 16.5 4 16.5H20C20.8284 16.5 21.5 15.8284 21.5 15V5C21.5 4.17157 20.8284 3.5 20 3.5H4Z" fill="#414141"/>
<path fill-rule="evenodd" clip-rule="evenodd" d="M7.5 21C7.5 20.7239 7.72386 20.5 8 20.5H16C16.2761 20.5 16.5 20.7239 16.5 21C16.5 21.2761 16.2761 21.5 16 21.5H8C7.72386 21.5 7.5 21.2761 7.5 21Z" fill="#414141"/>
<path fill-rule="evenodd" clip-rule="evenodd" d="M12 16.5C12.2761 16.5 12.5 16.7239 12.5 17V21C12.5 21.2761 12.2761 21.5 12 21.5C11.7239 21.5 11.5 21.2761 11.5 21V17C11.5 16.7239 11.7239 16.5 12 16.5Z" fill="#414141"/>
</svg>
