<svg width="24" height="24" viewBox="0 0 24 24" fill="none" xmlns="http://www.w3.org/2000/svg">
<path fill-rule="evenodd" clip-rule="evenodd" d="M11.6465 2.75452C11.7433 2.92621 11.7302 3.13873 11.613 3.29721C9.70051 5.88463 9.96877 9.48192 12.2439 11.7571C14.519 14.0322 18.1163 14.3004 20.7037 12.3879C20.8622 12.2708 21.0747 12.2577 21.2464 12.3544C21.4181 12.4512 21.517 12.6398 21.4988 12.836C21.0369 17.8349 16.7652 21.6115 11.7474 21.4573C6.72953 21.3032 2.6978 17.2714 2.54362 12.2536C2.38944 7.23575 6.16603 2.96409 11.1649 2.50213C11.3612 2.48399 11.5498 2.58283 11.6465 2.75452ZM10.206 3.66108C6.26623 4.52687 3.41623 8.09231 3.54315 12.2229C3.6811 16.7125 7.28844 20.3199 11.7781 20.4578C15.9086 20.5847 19.4741 17.7347 20.3399 13.795C17.4725 15.3103 13.8911 14.8185 11.5368 12.4642C9.18248 10.1098 8.69063 6.52849 10.206 3.66108Z" fill="#414141"/>
</svg>
