<svg width="24" height="24" viewBox="0 0 24 24" fill="none" xmlns="http://www.w3.org/2000/svg">
<path fill-rule="evenodd" clip-rule="evenodd" d="M9.5 12C9.5 10.6193 10.6193 9.5 12 9.5C13.3807 9.5 14.5 10.6193 14.5 12C14.5 13.3807 13.3807 14.5 12 14.5C10.6193 14.5 9.5 13.3807 9.5 12ZM12 10.5C11.1716 10.5 10.5 11.1716 10.5 12C10.5 12.8284 11.1716 13.5 12 13.5C12.8284 13.5 13.5 12.8284 13.5 12C13.5 11.1716 12.8284 10.5 12 10.5Z" fill="#414141"/>
<path fill-rule="evenodd" clip-rule="evenodd" d="M17.5 12C17.5 10.6193 18.6193 9.5 20 9.5C21.3807 9.5 22.5 10.6193 22.5 12C22.5 13.3807 21.3807 14.5 20 14.5C18.6193 14.5 17.5 13.3807 17.5 12ZM20 10.5C19.1716 10.5 18.5 11.1716 18.5 12C18.5 12.8284 19.1716 13.5 20 13.5C20.8284 13.5 21.5 12.8284 21.5 12C21.5 11.1716 20.8284 10.5 20 10.5Z" fill="#414141"/>
<path fill-rule="evenodd" clip-rule="evenodd" d="M1.5 12C1.5 10.6193 2.61929 9.5 4 9.5C5.38071 9.5 6.5 10.6193 6.5 12C6.5 13.3807 5.38071 14.5 4 14.5C2.61929 14.5 1.5 13.3807 1.5 12ZM4 10.5C3.17157 10.5 2.5 11.1716 2.5 12C2.5 12.8284 3.17157 13.5 4 13.5C4.82843 13.5 5.5 12.8284 5.5 12C5.5 11.1716 4.82843 10.5 4 10.5Z" fill="#414141"/>
</svg>
