<svg width="24" height="24" viewBox="0 0 24 24" fill="none" xmlns="http://www.w3.org/2000/svg">
<path fill-rule="evenodd" clip-rule="evenodd" d="M5.35355 8.64645C5.54882 8.84171 5.54882 9.15829 5.35355 9.35355L2.70711 12L5.35355 14.6464C5.54882 14.8417 5.54882 15.1583 5.35355 15.3536C5.15829 15.5488 4.84171 15.5488 4.64645 15.3536L1.64645 12.3536C1.45118 12.1583 1.45118 11.8417 1.64645 11.6464L4.64645 8.64645C4.84171 8.45118 5.15829 8.45118 5.35355 8.64645Z" fill="#414141"/>
<path fill-rule="evenodd" clip-rule="evenodd" d="M11.6464 1.64645C11.8417 1.45118 12.1583 1.45118 12.3536 1.64645L15.3536 4.64645C15.5488 4.84171 15.5488 5.15829 15.3536 5.35355C15.1583 5.54882 14.8417 5.54882 14.6464 5.35355L12 2.70711L9.35355 5.35355C9.15829 5.54882 8.84171 5.54882 8.64645 5.35355C8.45118 5.15829 8.45118 4.84171 8.64645 4.64645L11.6464 1.64645Z" fill="#414141"/>
<path fill-rule="evenodd" clip-rule="evenodd" d="M8.64645 18.6464C8.84171 18.4512 9.15829 18.4512 9.35355 18.6464L12 21.2929L14.6464 18.6464C14.8417 18.4512 15.1583 18.4512 15.3536 18.6464C15.5488 18.8417 15.5488 19.1583 15.3536 19.3536L12.3536 22.3536C12.1583 22.5488 11.8417 22.5488 11.6464 22.3536L8.64645 19.3536C8.45118 19.1583 8.45118 18.8417 8.64645 18.6464Z" fill="#414141"/>
<path fill-rule="evenodd" clip-rule="evenodd" d="M18.6464 8.64645C18.8417 8.45118 19.1583 8.45118 19.3536 8.64645L22.3536 11.6464C22.5488 11.8417 22.5488 12.1583 22.3536 12.3536L19.3536 15.3536C19.1583 15.5488 18.8417 15.5488 18.6464 15.3536C18.4512 15.1583 18.4512 14.8417 18.6464 14.6464L21.2929 12L18.6464 9.35355C18.4512 9.15829 18.4512 8.84171 18.6464 8.64645Z" fill="#414141"/>
<path fill-rule="evenodd" clip-rule="evenodd" d="M1.5 12C1.5 11.7239 1.72386 11.5 2 11.5H22C22.2761 11.5 22.5 11.7239 22.5 12C22.5 12.2761 22.2761 12.5 22 12.5H2C1.72386 12.5 1.5 12.2761 1.5 12Z" fill="#414141"/>
<path fill-rule="evenodd" clip-rule="evenodd" d="M12 1.5C12.2761 1.5 12.5 1.72386 12.5 2V22C12.5 22.2761 12.2761 22.5 12 22.5C11.7239 22.5 11.5 22.2761 11.5 22V2C11.5 1.72386 11.7239 1.5 12 1.5Z" fill="#414141"/>
</svg>
