<svg width="24" height="24" viewBox="0 0 24 24" fill="none" xmlns="http://www.w3.org/2000/svg">
<path fill-rule="evenodd" clip-rule="evenodd" d="M14.5 17C14.5 15.6193 15.6193 14.5 17 14.5H21C21.2761 14.5 21.5 14.7239 21.5 15V17C21.5 18.3807 20.3807 19.5 19 19.5H17C15.6193 19.5 14.5 18.3807 14.5 17ZM17 15.5C16.1716 15.5 15.5 16.1716 15.5 17C15.5 17.8284 16.1716 18.5 17 18.5H19C19.8284 18.5 20.5 17.8284 20.5 17V15.5H17ZM2.5 19C2.5 17.6193 3.61929 16.5 5 16.5H9C9.27614 16.5 9.5 16.7239 9.5 17V19C9.5 20.3807 8.38071 21.5 7 21.5H5C3.61929 21.5 2.5 20.3807 2.5 19ZM5 17.5C4.17157 17.5 3.5 18.1716 3.5 19C3.5 19.8284 4.17157 20.5 5 20.5H7C7.82843 20.5 8.5 19.8284 8.5 19V17.5H5Z" fill="#414141"/>
<path fill-rule="evenodd" clip-rule="evenodd" d="M21.3232 2.61849C21.4353 2.7135 21.5 2.85303 21.5 3V15C21.5 15.2761 21.2761 15.5 21 15.5C20.7239 15.5 20.5 15.2761 20.5 15V3.59023L9.5 5.42357V17C9.5 17.2761 9.27614 17.5 9 17.5C8.72386 17.5 8.5 17.2761 8.5 17V5C8.5 4.75558 8.67671 4.54699 8.9178 4.50681L20.9178 2.50681C21.0628 2.48264 21.211 2.52349 21.3232 2.61849Z" fill="#414141"/>
</svg>
