<svg width="24" height="24" viewBox="0 0 24 24" fill="none" xmlns="http://www.w3.org/2000/svg">
<path fill-rule="evenodd" clip-rule="evenodd" d="M12 2.5C12.2095 2.5 12.3968 2.63058 12.4692 2.82715L19.4692 21.8271C19.5418 22.0243 19.4834 22.2459 19.323 22.3817C19.1626 22.5174 18.9344 22.5384 18.752 22.4341L12 18.5759L5.24809 22.4341C5.06563 22.5384 4.83745 22.5174 4.67703 22.3817C4.51661 22.2459 4.4582 22.0243 4.53085 21.8271L11.5309 2.82715C11.6033 2.63058 11.7905 2.5 12 2.5ZM5.94372 20.8849L11.752 17.5659C11.9057 17.478 12.0944 17.478 12.2481 17.5659L18.0563 20.8849L12 4.44632L5.94372 20.8849Z" fill="#414141"/>
</svg>
