<svg width="24" height="24" viewBox="0 0 24 24" fill="none" xmlns="http://www.w3.org/2000/svg">
<path fill-rule="evenodd" clip-rule="evenodd" d="M21.3536 2.64646C21.503 2.79588 21.5423 3.02309 21.4519 3.21406L12.4519 22.2141C12.3615 22.4049 12.1609 22.5184 11.9507 22.4976C11.7406 22.4768 11.5662 22.3262 11.5149 22.1213L9.5877 14.4123L1.87874 12.4851C1.67386 12.4339 1.52326 12.2594 1.50245 12.0493C1.48164 11.8391 1.59511 11.6386 1.78597 11.5481L20.786 2.54815C20.9769 2.45769 21.2042 2.49704 21.3536 2.64646ZM3.47669 11.8538L10.1213 13.5149C10.3004 13.5597 10.4403 13.6996 10.4851 13.8787L12.1462 20.5233L19.9488 4.0512L3.47669 11.8538Z" fill="#414141"/>
</svg>
