<svg width="24" height="24" viewBox="0 0 24 24" fill="none" xmlns="http://www.w3.org/2000/svg">
<path fill-rule="evenodd" clip-rule="evenodd" d="M7.64645 1.64645C7.74021 1.55268 7.86739 1.5 8 1.5H16C16.1326 1.5 16.2598 1.55268 16.3536 1.64645L22.3536 7.64645C22.4473 7.74021 22.5 7.86739 22.5 8V16C22.5 16.1326 22.4473 16.2598 22.3536 16.3536L16.3536 22.3536C16.2598 22.4473 16.1326 22.5 16 22.5H8C7.86739 22.5 7.74021 22.4473 7.64645 22.3536L1.64645 16.3536C1.55268 16.2598 1.5 16.1326 1.5 16V8C1.5 7.86739 1.55268 7.74021 1.64645 7.64645L7.64645 1.64645ZM8.20711 2.5L2.5 8.20711V15.7929L8.20711 21.5H15.7929L21.5 15.7929V8.20711L15.7929 2.5H8.20711Z" fill="#414141"/>
</svg>
