<svg width="24" height="24" viewBox="0 0 24 24" fill="none" xmlns="http://www.w3.org/2000/svg">
<path fill-rule="evenodd" clip-rule="evenodd" d="M18.2548 3.52578C16.8871 2.15807 14.6696 2.15807 13.3019 3.52578L4.11189 12.7158C1.9627 14.865 1.9627 18.3495 4.11189 20.4987C6.26108 22.6479 9.7456 22.6479 11.8948 20.4987L21.0848 11.3087C21.28 11.1134 21.5966 11.1134 21.7919 11.3087C21.9872 11.5039 21.9872 11.8205 21.7919 12.0158L12.6019 21.2058C10.0622 23.7455 5.94449 23.7455 3.40478 21.2058C0.865072 18.6661 0.865072 14.5484 3.40478 12.0087L12.5948 2.81867C14.353 1.06044 17.2037 1.06044 18.9619 2.81867C20.7201 4.5769 20.7201 7.42755 18.9619 9.18578L9.76189 18.3758C9.76183 18.3758 9.76195 18.3757 9.76189 18.3758C8.78513 19.3523 7.20146 19.3525 6.22478 18.3758C5.24804 17.399 5.24804 15.8154 6.22478 14.8387L14.715 6.35846C14.9104 6.16332 15.227 6.1635 15.4221 6.35888C15.6172 6.55426 15.6171 6.87084 15.4217 7.06599L6.93189 15.5458C6.34567 16.132 6.34567 17.0824 6.93189 17.6687C7.51811 18.2549 8.46856 18.2549 9.05478 17.6687L18.2548 8.47867C19.6225 7.11097 19.6225 4.89348 18.2548 3.52578Z" fill="#414141"/>
</svg>
