<svg width="24" height="24" viewBox="0 0 24 24" fill="none" xmlns="http://www.w3.org/2000/svg">
<path fill-rule="evenodd" clip-rule="evenodd" d="M1.5 12C1.5 6.20101 6.20101 1.5 12 1.5C17.799 1.5 22.5 6.20101 22.5 12C22.5 17.799 17.799 22.5 12 22.5C6.20101 22.5 1.5 17.799 1.5 12ZM12 2.5C6.75329 2.5 2.5 6.75329 2.5 12C2.5 17.2467 6.75329 21.5 12 21.5C17.2467 21.5 21.5 17.2467 21.5 12C21.5 6.75329 17.2467 2.5 12 2.5Z" fill="#414141"/>
<path fill-rule="evenodd" clip-rule="evenodd" d="M10 8.5C10.2761 8.5 10.5 8.72386 10.5 9V15C10.5 15.2761 10.2761 15.5 10 15.5C9.72386 15.5 9.5 15.2761 9.5 15V9C9.5 8.72386 9.72386 8.5 10 8.5Z" fill="#414141"/>
<path fill-rule="evenodd" clip-rule="evenodd" d="M14 8.5C14.2761 8.5 14.5 8.72386 14.5 9V15C14.5 15.2761 14.2761 15.5 14 15.5C13.7239 15.5 13.5 15.2761 13.5 15V9C13.5 8.72386 13.7239 8.5 14 8.5Z" fill="#414141"/>
</svg>
