<svg width="24" height="24" viewBox="0 0 24 24" fill="none" xmlns="http://www.w3.org/2000/svg">
<path fill-rule="evenodd" clip-rule="evenodd" d="M5.5 4C5.5 3.72386 5.72386 3.5 6 3.5H10C10.2761 3.5 10.5 3.72386 10.5 4V20C10.5 20.2761 10.2761 20.5 10 20.5H6C5.72386 20.5 5.5 20.2761 5.5 20V4ZM6.5 4.5V19.5H9.5V4.5H6.5Z" fill="#414141"/>
<path fill-rule="evenodd" clip-rule="evenodd" d="M13.5 4C13.5 3.72386 13.7239 3.5 14 3.5H18C18.2761 3.5 18.5 3.72386 18.5 4V20C18.5 20.2761 18.2761 20.5 18 20.5H14C13.7239 20.5 13.5 20.2761 13.5 20V4ZM14.5 4.5V19.5H17.5V4.5H14.5Z" fill="#414141"/>
</svg>
