<svg width="24" height="24" viewBox="0 0 24 24" fill="none" xmlns="http://www.w3.org/2000/svg">
<path fill-rule="evenodd" clip-rule="evenodd" d="M19.3536 4.64645C19.5488 4.84171 19.5488 5.15829 19.3536 5.35355L5.35355 19.3536C5.15829 19.5488 4.84171 19.5488 4.64645 19.3536C4.45118 19.1583 4.45118 18.8417 4.64645 18.6464L18.6464 4.64645C18.8417 4.45118 19.1583 4.45118 19.3536 4.64645Z" fill="#414141"/>
<path fill-rule="evenodd" clip-rule="evenodd" d="M3.5 6.5C3.5 4.84315 4.84315 3.5 6.5 3.5C8.15685 3.5 9.5 4.84315 9.5 6.5C9.5 8.15685 8.15685 9.5 6.5 9.5C4.84315 9.5 3.5 8.15685 3.5 6.5ZM6.5 4.5C5.39543 4.5 4.5 5.39543 4.5 6.5C4.5 7.60457 5.39543 8.5 6.5 8.5C7.60457 8.5 8.5 7.60457 8.5 6.5C8.5 5.39543 7.60457 4.5 6.5 4.5Z" fill="#414141"/>
<path fill-rule="evenodd" clip-rule="evenodd" d="M14.5 17.5C14.5 15.8431 15.8431 14.5 17.5 14.5C19.1569 14.5 20.5 15.8431 20.5 17.5C20.5 19.1569 19.1569 20.5 17.5 20.5C15.8431 20.5 14.5 19.1569 14.5 17.5ZM17.5 15.5C16.3954 15.5 15.5 16.3954 15.5 17.5C15.5 18.6046 16.3954 19.5 17.5 19.5C18.6046 19.5 19.5 18.6046 19.5 17.5C19.5 16.3954 18.6046 15.5 17.5 15.5Z" fill="#414141"/>
</svg>
