<svg width="24" height="24" viewBox="0 0 24 24" fill="none" xmlns="http://www.w3.org/2000/svg">
<path fill-rule="evenodd" clip-rule="evenodd" d="M8.45922 2.63022C8.56967 2.88332 8.45403 3.17803 8.20094 3.28847C4.28824 4.99591 1.995 9.10359 2.59478 13.3303C3.19457 17.5569 6.54007 20.8644 10.7733 21.4159C15.0066 21.9674 19.0878 19.6274 20.7504 15.6955C20.858 15.4411 21.1514 15.3221 21.4057 15.4297C21.66 15.5372 21.779 15.8306 21.6715 16.0849C19.8338 20.4308 15.323 23.0171 10.6441 22.4075C5.96529 21.798 2.26763 18.1423 1.6047 13.4708C0.941779 8.79917 3.47642 4.2591 7.80098 2.37194C8.05407 2.26149 8.34878 2.37713 8.45922 2.63022Z" fill="#414141"/>
<path fill-rule="evenodd" clip-rule="evenodd" d="M11.6464 1.64645C11.7402 1.55268 11.8674 1.5 12 1.5C14.7848 1.5 17.4555 2.60625 19.4246 4.57538C21.3938 6.54451 22.5 9.21523 22.5 12C22.5 12.2761 22.2761 12.5 22 12.5H12C11.7239 12.5 11.5 12.2761 11.5 12V2C11.5 1.86739 11.5527 1.74021 11.6464 1.64645ZM12.5 2.51315V11.5H21.4868C21.3637 9.16259 20.3809 6.94587 18.7175 5.28249C17.0541 3.6191 14.8374 2.63626 12.5 2.51315Z" fill="#414141"/>
</svg>
