<svg width="24" height="24" viewBox="0 0 24 24" fill="none" xmlns="http://www.w3.org/2000/svg">
<path fill-rule="evenodd" clip-rule="evenodd" d="M1.5 12C1.5 6.20101 6.20101 1.5 12 1.5C17.799 1.5 22.5 6.20101 22.5 12C22.5 17.799 17.799 22.5 12 22.5C6.20101 22.5 1.5 17.799 1.5 12ZM12 2.5C6.75329 2.5 2.5 6.75329 2.5 12C2.5 17.2467 6.75329 21.5 12 21.5C17.2467 21.5 21.5 17.2467 21.5 12C21.5 6.75329 17.2467 2.5 12 2.5Z" fill="#414141"/>
<path fill-rule="evenodd" clip-rule="evenodd" d="M9.76407 7.55916C9.92665 7.47215 10.1239 7.48169 10.2774 7.58398L16.2773 11.584C16.4164 11.6767 16.5 11.8328 16.5 12C16.5 12.1672 16.4164 12.3233 16.2773 12.416L10.2774 16.416C10.1239 16.5183 9.92665 16.5278 9.76407 16.4408C9.60149 16.3538 9.5 16.1844 9.5 16V8C9.5 7.8156 9.60149 7.64617 9.76407 7.55916ZM10.5 8.93426V15.0657L15.0986 12L10.5 8.93426Z" fill="#414141"/>
</svg>
