<svg width="24" height="24" viewBox="0 0 24 24" fill="none" xmlns="http://www.w3.org/2000/svg">
<path fill-rule="evenodd" clip-rule="evenodd" d="M4 3.5C3.17157 3.5 2.5 4.17157 2.5 5V11C2.5 13.5196 3.50089 15.9359 5.28249 17.7175C7.06408 19.4991 9.48044 20.5 12 20.5C17.2467 20.5 21.5 16.2467 21.5 11V5C21.5 4.17157 20.8284 3.5 20 3.5H4ZM1.5 5C1.5 3.61929 2.61929 2.5 4 2.5H20C21.3807 2.5 22.5 3.61929 22.5 5V11C22.5 16.799 17.799 21.5 12 21.5C9.21523 21.5 6.54451 20.3938 4.57538 18.4246C2.60625 16.4555 1.5 13.7848 1.5 11V5Z" fill="#414141"/>
<path fill-rule="evenodd" clip-rule="evenodd" d="M7.64645 9.64645C7.84171 9.45118 8.15829 9.45118 8.35355 9.64645L12 13.2929L15.6464 9.64645C15.8417 9.45118 16.1583 9.45118 16.3536 9.64645C16.5488 9.84171 16.5488 10.1583 16.3536 10.3536L12.3536 14.3536C12.1583 14.5488 11.8417 14.5488 11.6464 14.3536L7.64645 10.3536C7.45118 10.1583 7.45118 9.84171 7.64645 9.64645Z" fill="#414141"/>
</svg>
