<svg width="24" height="24" viewBox="0 0 24 24" fill="none" xmlns="http://www.w3.org/2000/svg">
<path fill-rule="evenodd" clip-rule="evenodd" d="M5.98459 6.28653C6.17988 6.48176 6.17994 6.79834 5.9847 6.99363C2.66605 10.3134 2.66663 15.6948 5.98601 19.0138C9.3054 22.3328 14.6868 22.3328 18.0062 19.0138C21.3256 15.6948 21.3261 10.3134 18.0075 6.99363C17.8123 6.79834 17.8123 6.48176 18.0076 6.28653C18.2029 6.0913 18.5195 6.09135 18.7147 6.28664C22.4238 9.99694 22.4231 16.0114 18.7132 19.7209C15.0033 23.4304 8.98884 23.4304 5.27894 19.7209C1.56905 16.0114 1.56839 9.99694 5.27748 6.28664C5.47271 6.09135 5.7893 6.0913 5.98459 6.28653Z" fill="#414141"/>
<path fill-rule="evenodd" clip-rule="evenodd" d="M12 1.5C12.2761 1.5 12.5 1.72386 12.5 2V12C12.5 12.2761 12.2761 12.5 12 12.5C11.7239 12.5 11.5 12.2761 11.5 12V2C11.5 1.72386 11.7239 1.5 12 1.5Z" fill="#414141"/>
</svg>
