<svg width="24" height="24" viewBox="0 0 24 24" fill="none" xmlns="http://www.w3.org/2000/svg">
<path fill-rule="evenodd" clip-rule="evenodd" d="M5.5 2C5.5 1.72386 5.72386 1.5 6 1.5H18C18.2761 1.5 18.5 1.72386 18.5 2V9C18.5 9.27614 18.2761 9.5 18 9.5C17.7239 9.5 17.5 9.27614 17.5 9V2.5H6.5V9C6.5 9.27614 6.27614 9.5 6 9.5C5.72386 9.5 5.5 9.27614 5.5 9V2Z" fill="#414141"/>
<path fill-rule="evenodd" clip-rule="evenodd" d="M4 9.5C3.17157 9.5 2.5 10.1716 2.5 11V16C2.5 16.8284 3.17157 17.5 4 17.5H6C6.27614 17.5 6.5 17.7239 6.5 18C6.5 18.2761 6.27614 18.5 6 18.5H4C2.61929 18.5 1.5 17.3807 1.5 16V11C1.5 9.61929 2.61929 8.5 4 8.5H20C21.3807 8.5 22.5 9.61929 22.5 11V16C22.5 17.3807 21.3807 18.5 20 18.5H18C17.7239 18.5 17.5 18.2761 17.5 18C17.5 17.7239 17.7239 17.5 18 17.5H20C20.8284 17.5 21.5 16.8284 21.5 16V11C21.5 10.1716 20.8284 9.5 20 9.5H4Z" fill="#414141"/>
<path fill-rule="evenodd" clip-rule="evenodd" d="M5.5 14C5.5 13.7239 5.72386 13.5 6 13.5H18C18.2761 13.5 18.5 13.7239 18.5 14V22C18.5 22.2761 18.2761 22.5 18 22.5H6C5.72386 22.5 5.5 22.2761 5.5 22V14ZM6.5 14.5V21.5H17.5V14.5H6.5Z" fill="#414141"/>
</svg>
