<svg width="24" height="24" viewBox="0 0 24 24" fill="none" xmlns="http://www.w3.org/2000/svg">
<path fill-rule="evenodd" clip-rule="evenodd" d="M9.5 12C9.5 10.6193 10.6193 9.5 12 9.5C13.3807 9.5 14.5 10.6193 14.5 12C14.5 13.3807 13.3807 14.5 12 14.5C10.6193 14.5 9.5 13.3807 9.5 12ZM12 10.5C11.1716 10.5 10.5 11.1716 10.5 12C10.5 12.8284 11.1716 13.5 12 13.5C12.8284 13.5 13.5 12.8284 13.5 12C13.5 11.1716 12.8284 10.5 12 10.5Z" fill="#414141"/>
<path fill-rule="evenodd" clip-rule="evenodd" d="M5.28527 4.57657C5.48056 4.7718 5.48061 5.08838 5.28538 5.28368C1.57675 8.99342 1.57675 15.0069 5.28538 18.7167C5.48061 18.912 5.48056 19.2285 5.28527 19.4238C5.08998 19.619 4.7734 19.619 4.57816 19.4237C0.479154 15.3234 0.479154 8.67692 4.57816 4.57668C4.7734 4.38138 5.08998 4.38134 5.28527 4.57657ZM18.7168 4.57657C18.9121 4.38134 19.2287 4.38138 19.4239 4.57668C23.5229 8.67692 23.5229 15.3234 19.4239 19.4237C19.2287 19.619 18.9121 19.619 18.7168 19.4238C18.5215 19.2285 18.5215 18.912 18.7167 18.7167C22.4253 15.0069 22.4253 8.99342 18.7167 5.28368C18.5215 5.08838 18.5215 4.7718 18.7168 4.57657ZM8.11738 7.39677C8.31253 7.59214 8.31235 7.90872 8.11698 8.10387C7.08421 9.1355 6.50391 10.5354 6.50391 11.9951C6.50391 13.4549 7.08421 14.8547 8.11698 15.8864C8.31235 16.0815 8.31253 16.3981 8.11738 16.5935C7.92222 16.7888 7.60564 16.789 7.41027 16.5939C6.18972 15.3747 5.50391 13.7203 5.50391 11.9951C5.50391 10.27 6.18972 8.61557 7.41027 7.39637C7.60564 7.20122 7.92222 7.20139 8.11738 7.39677ZM15.888 7.40682C16.0832 7.21145 16.3998 7.21127 16.5951 7.40643C17.8157 8.62562 18.5015 10.28 18.5015 12.0052C18.5015 13.7303 17.8157 15.3847 16.5951 16.6039C16.3998 16.7991 16.0832 16.7989 15.888 16.6035C15.6929 16.4082 15.693 16.0916 15.8884 15.8964C16.9212 14.8648 17.5015 13.4649 17.5015 12.0052C17.5015 10.5454 16.9212 9.14555 15.8884 8.11393C15.693 7.91877 15.6929 7.60219 15.888 7.40682Z" fill="#414141"/>
</svg>
