<svg width="24" height="24" viewBox="0 0 24 24" fill="none" xmlns="http://www.w3.org/2000/svg">
<path fill-rule="evenodd" clip-rule="evenodd" d="M23 3.5C23.2761 3.5 23.5 3.72386 23.5 4V10C23.5 10.2761 23.2761 10.5 23 10.5H17C16.7239 10.5 16.5 10.2761 16.5 10C16.5 9.72386 16.7239 9.5 17 9.5H22.5V4C22.5 3.72386 22.7239 3.5 23 3.5Z" fill="#414141"/>
<path fill-rule="evenodd" clip-rule="evenodd" d="M0.5 14C0.5 13.7239 0.723858 13.5 1 13.5H7C7.27614 13.5 7.5 13.7239 7.5 14C7.5 14.2761 7.27614 14.5 7 14.5H1.5V20C1.5 20.2761 1.27614 20.5 1 20.5C0.723858 20.5 0.5 20.2761 0.5 20V14Z" fill="#414141"/>
<path fill-rule="evenodd" clip-rule="evenodd" d="M18.0081 5.99323C15.9449 3.929 12.9669 3.06762 10.1203 3.7117C7.27378 4.35577 4.95669 6.41522 3.98308 9.16657C3.89096 9.42689 3.60525 9.56325 3.34492 9.47113C3.0846 9.37901 2.94824 9.09329 3.04036 8.83297C4.12852 5.75794 6.7182 3.4562 9.89966 2.73635C13.0785 2.01709 16.404 2.97766 18.7097 5.28068L23.3441 9.63539C23.5453 9.82449 23.5552 10.1409 23.3661 10.3422C23.177 10.5434 22.8606 10.5532 22.6593 10.3641L18.0193 6.00414L18.0081 5.99323ZM0.635625 13.6574C0.824721 13.4561 1.14115 13.4463 1.34239 13.6354L5.98239 17.9954L5.99364 18.0063C8.05684 20.0705 11.0348 20.9319 13.8814 20.2878C16.7279 19.6438 19.045 17.5843 20.0186 14.833C20.1108 14.5726 20.3965 14.4363 20.6568 14.5284C20.9171 14.6205 21.0535 14.9062 20.9614 15.1666C19.8732 18.2416 17.2835 20.5433 14.1021 21.2632C10.9232 21.9824 7.59769 21.0219 5.29198 18.7188L0.657613 14.3641C0.456374 14.175 0.446529 13.8586 0.635625 13.6574Z" fill="#414141"/>
</svg>
