<svg width="24" height="24" viewBox="0 0 24 24" fill="none" xmlns="http://www.w3.org/2000/svg">
<path fill-rule="evenodd" clip-rule="evenodd" d="M1 3.5C1.27614 3.5 1.5 3.72386 1.5 4V9.5H7C7.27614 9.5 7.5 9.72386 7.5 10C7.5 10.2761 7.27614 10.5 7 10.5H1C0.723858 10.5 0.5 10.2761 0.5 10V4C0.5 3.72386 0.723858 3.5 1 3.5Z" fill="#414141"/>
<path fill-rule="evenodd" clip-rule="evenodd" d="M16.5 14C16.5 13.7239 16.7239 13.5 17 13.5H23C23.2761 13.5 23.5 13.7239 23.5 14V20C23.5 20.2761 23.2761 20.5 23 20.5C22.7239 20.5 22.5 20.2761 22.5 20V14.5H17C16.7239 14.5 16.5 14.2761 16.5 14Z" fill="#414141"/>
<path fill-rule="evenodd" clip-rule="evenodd" d="M5.29197 5.28069C7.59768 2.97766 10.9232 2.01709 14.1021 2.73635C17.2835 3.4562 19.8732 5.75794 20.9614 8.83297C21.0535 9.09329 20.9171 9.37901 20.6568 9.47113C20.3965 9.56325 20.1108 9.42689 20.0186 9.16657C19.045 6.41522 16.7279 4.35577 13.8814 3.7117C11.0348 3.06762 8.05684 3.929 5.99364 5.99323L5.98239 6.00414L1.34239 10.3641C1.14115 10.5532 0.824721 10.5434 0.635625 10.3422C0.446529 10.1409 0.456374 9.82449 0.657613 9.63539L5.29197 5.28069ZM23.3661 13.6574C23.5552 13.8586 23.5453 14.175 23.3441 14.3641L18.7097 18.7189C16.404 21.0219 13.0785 21.9824 9.89966 21.2632C6.7182 20.5433 4.12852 18.2416 3.04036 15.1666C2.94824 14.9062 3.0846 14.6205 3.34492 14.5284C3.60525 14.4363 3.89096 14.5726 3.98308 14.833C4.95669 17.5843 7.27378 19.6438 10.1203 20.2878C12.9669 20.9319 15.9449 20.0705 18.0081 18.0063L18.0193 17.9954L22.6593 13.6354C22.8606 13.4463 23.177 13.4561 23.3661 13.6574Z" fill="#414141"/>
</svg>
