<svg width="24" height="24" viewBox="0 0 24 24" fill="none" xmlns="http://www.w3.org/2000/svg">
<path fill-rule="evenodd" clip-rule="evenodd" d="M11.2197 4.55085C11.3912 4.63475 11.5 4.80904 11.5 5V19C11.5 19.191 11.3912 19.3653 11.2197 19.4492C11.0481 19.5331 10.8438 19.5119 10.693 19.3947L1.69303 12.3947C1.57124 12.3 1.5 12.1543 1.5 12C1.5 11.8457 1.57124 11.7001 1.69303 11.6053L10.693 4.60533C10.8438 4.48809 11.0481 4.46694 11.2197 4.55085ZM2.81441 12L10.5 17.9777V6.02232L2.81441 12Z" fill="#414141"/>
<path fill-rule="evenodd" clip-rule="evenodd" d="M22.2197 4.55085C22.3912 4.63475 22.5 4.80904 22.5 5V19C22.5 19.191 22.3912 19.3653 22.2197 19.4492C22.0481 19.5331 21.8438 19.5119 21.693 19.3947L12.693 12.3947C12.5712 12.3 12.5 12.1543 12.5 12C12.5 11.8457 12.5712 11.7001 12.693 11.6053L21.693 4.60533C21.8438 4.48809 22.0481 4.46694 22.2197 4.55085ZM13.8144 12L21.5 17.9777V6.02232L13.8144 12Z" fill="#414141"/>
</svg>
