<svg width="24" height="24" viewBox="0 0 24 24" fill="none" xmlns="http://www.w3.org/2000/svg">
<path fill-rule="evenodd" clip-rule="evenodd" d="M22 3.5C22.2761 3.5 22.5 3.72386 22.5 4V10C22.5 10.2761 22.2761 10.5 22 10.5H16C15.7239 10.5 15.5 10.2761 15.5 10C15.5 9.72386 15.7239 9.5 16 9.5H21.5V4C21.5 3.72386 21.7239 3.5 22 3.5Z" fill="#414141"/>
<path fill-rule="evenodd" clip-rule="evenodd" d="M17.017 5.99368C14.3407 3.31571 10.2158 2.73063 6.90039 4.55873C3.58496 6.38683 1.87829 10.1873 2.71463 13.8798C3.55096 17.5723 6.72866 20.2666 10.5082 20.4877C14.2878 20.7088 17.758 18.4035 19.0192 14.8337C19.1112 14.5733 19.3968 14.4368 19.6572 14.5288C19.9175 14.6208 20.054 14.9064 19.9621 15.1668C18.5525 19.1566 14.6741 21.7331 10.4498 21.486C6.22561 21.2389 2.67406 18.2277 1.73933 14.1007C0.804602 9.97383 2.71206 5.7262 6.41754 3.68303C10.1208 1.6411 14.7276 2.29298 17.7189 5.28137L22.3434 9.63623C22.5444 9.82555 22.5539 10.142 22.3646 10.343C22.1753 10.5441 21.8589 10.5536 21.6578 10.3642L17.0278 6.00425L17.017 5.99368Z" fill="#414141"/>
</svg>
