<svg width="24" height="24" viewBox="0 0 24 24" fill="none" xmlns="http://www.w3.org/2000/svg">
<path fill-rule="evenodd" clip-rule="evenodd" d="M2 3.5C2.27614 3.5 2.5 3.72386 2.5 4V9.5H8C8.27614 9.5 8.5 9.72386 8.5 10C8.5 10.2761 8.27614 10.5 8 10.5H2C1.72386 10.5 1.5 10.2761 1.5 10V4C1.5 3.72386 1.72386 3.5 2 3.5Z" fill="#414141"/>
<path fill-rule="evenodd" clip-rule="evenodd" d="M6.29217 5.28091C9.28675 2.29616 13.8939 1.64951 17.5947 3.69535C21.2978 5.74243 23.2006 9.99176 22.2618 14.1175C21.3229 18.2432 17.7687 21.2507 13.5444 21.4938C9.32025 21.7369 5.44442 19.1571 4.03841 15.1663C3.94665 14.9059 4.0834 14.6203 4.34385 14.5286C4.6043 14.4368 4.88983 14.5736 4.98159 14.834C6.23959 18.4047 9.70744 20.713 13.487 20.4955C17.2665 20.2779 20.4467 17.587 21.2867 13.8956C22.1267 10.2042 20.4242 6.40212 17.1109 4.57052C13.7977 2.73893 9.67249 3.31932 6.99326 5.99402L6.98239 6.00455L2.34239 10.3645C2.14115 10.5536 1.82472 10.5438 1.63562 10.3426C1.44653 10.1413 1.45637 9.82489 1.65761 9.6358L6.29217 5.28091Z" fill="#414141"/>
</svg>
