<svg width="24" height="24" viewBox="0 0 24 24" fill="none" xmlns="http://www.w3.org/2000/svg">
<path fill-rule="evenodd" clip-rule="evenodd" d="M22.5 23C22.5 23.2761 22.2761 23.5 22 23.5L16 23.5C15.7239 23.5 15.5 23.2761 15.5 23L15.5 17C15.5 16.7239 15.7239 16.5 16 16.5C16.2761 16.5 16.5 16.7239 16.5 17L16.5 22.5L22 22.5C22.2761 22.5 22.5 22.7239 22.5 23Z" fill="#414141"/>
<path fill-rule="evenodd" clip-rule="evenodd" d="M20.0087 18.0067C22.0729 15.9436 22.9343 12.9656 22.2903 10.119C21.6462 7.27245 19.5867 4.95536 16.8354 3.98175C16.5751 3.88963 16.4387 3.60392 16.5308 3.34359C16.6229 3.08327 16.9087 2.94691 17.169 3.03903C20.244 4.12718 22.5458 6.71687 23.2656 9.89833C23.9849 13.0772 23.0243 16.4027 20.7213 18.7084L16.3666 23.3428C16.1775 23.544 15.861 23.5539 15.6598 23.3648C15.4586 23.1757 15.4487 22.8592 15.6378 22.658L19.9978 18.018L20.0087 18.0067Z" fill="#414141"/>
<path fill-rule="evenodd" clip-rule="evenodd" d="M8 0.5C8.27614 0.5 8.5 0.723858 8.5 1L8.5 7C8.5 7.27614 8.27614 7.5 8 7.5C7.72386 7.5 7.5 7.27614 7.5 7L7.5 1.5L2 1.5C1.72386 1.5 1.5 1.27614 1.5 1C1.5 0.723857 1.72386 0.5 2 0.5L8 0.5Z" fill="#414141"/>
<path fill-rule="evenodd" clip-rule="evenodd" d="M8.34239 0.635625C8.54363 0.824721 8.55347 1.14115 8.36437 1.34239L4.00437 5.98239L3.99346 5.99364C1.92923 8.05684 1.06786 11.0348 1.71193 13.8814C2.356 16.7279 4.41545 19.045 7.1668 20.0186C7.42712 20.1108 7.56348 20.3965 7.47136 20.6568C7.37924 20.9171 7.09352 21.0535 6.8332 20.9614C3.75817 19.8732 1.45643 17.2835 0.736584 14.1021C0.0173216 10.9232 0.977892 7.59769 3.28092 5.29198L7.63562 0.657613C7.82472 0.456374 8.14115 0.446529 8.34239 0.635625Z" fill="#414141"/>
<path fill-rule="evenodd" clip-rule="evenodd" d="M10.9687 6.78567C11.6591 5.58994 13.1881 5.18025 14.3838 5.87061L16.1159 6.87061C17.3116 7.56096 17.7213 9.08994 17.0309 10.2857L13.0309 17.2139C12.3406 18.4096 10.8116 18.8193 9.61586 18.1289L7.88381 17.1289C6.68808 16.4386 6.27839 14.9096 6.96875 13.7139L10.9687 6.78567ZM13.8838 6.73663C13.1664 6.32242 12.249 6.56823 11.8348 7.28567L7.83478 14.2139C7.42056 14.9313 7.66637 15.8487 8.38381 16.2629L10.1159 17.2629C10.8333 17.6771 11.7507 17.4313 12.1649 16.7139L16.1649 9.78567C16.5791 9.06823 16.3333 8.15084 15.6159 7.73663L13.8838 6.73663Z" fill="#414141"/>
</svg>
