<svg width="24" height="24" viewBox="0 0 24 24" fill="none" xmlns="http://www.w3.org/2000/svg">
<path fill-rule="evenodd" clip-rule="evenodd" d="M5 3.5C4.17157 3.5 3.5 4.17157 3.5 5V19C3.5 19.8284 4.17157 20.5 5 20.5H19C19.8284 20.5 20.5 19.8284 20.5 19V8.20711L15.7929 3.5H5ZM2.5 5C2.5 3.61929 3.61929 2.5 5 2.5H16C16.1326 2.5 16.2598 2.55268 16.3536 2.64645L21.3536 7.64645C21.4473 7.74021 21.5 7.86739 21.5 8V19C21.5 20.3807 20.3807 21.5 19 21.5H5C3.61929 21.5 2.5 20.3807 2.5 19V5Z" fill="#414141"/>
<path fill-rule="evenodd" clip-rule="evenodd" d="M6.5 13C6.5 12.7239 6.72386 12.5 7 12.5H17C17.2761 12.5 17.5 12.7239 17.5 13V21C17.5 21.2761 17.2761 21.5 17 21.5C16.7239 21.5 16.5 21.2761 16.5 21V13.5H7.5V21C7.5 21.2761 7.27614 21.5 7 21.5C6.72386 21.5 6.5 21.2761 6.5 21V13Z" fill="#414141"/>
<path fill-rule="evenodd" clip-rule="evenodd" d="M7 2.5C7.27614 2.5 7.5 2.72386 7.5 3V7.5H15C15.2761 7.5 15.5 7.72386 15.5 8C15.5 8.27614 15.2761 8.5 15 8.5H7C6.72386 8.5 6.5 8.27614 6.5 8V3C6.5 2.72386 6.72386 2.5 7 2.5Z" fill="#414141"/>
</svg>
