<svg width="24" height="24" viewBox="0 0 24 24" fill="none" xmlns="http://www.w3.org/2000/svg">
<path fill-rule="evenodd" clip-rule="evenodd" d="M2.5 6C2.5 4.067 4.067 2.5 6 2.5C7.933 2.5 9.5 4.067 9.5 6C9.5 7.933 7.933 9.5 6 9.5C4.067 9.5 2.5 7.933 2.5 6ZM6 3.5C4.61929 3.5 3.5 4.61929 3.5 6C3.5 7.38071 4.61929 8.5 6 8.5C7.38071 8.5 8.5 7.38071 8.5 6C8.5 4.61929 7.38071 3.5 6 3.5Z" fill="#414141"/>
<path fill-rule="evenodd" clip-rule="evenodd" d="M2.5 18C2.5 16.067 4.067 14.5 6 14.5C7.933 14.5 9.5 16.067 9.5 18C9.5 19.933 7.933 21.5 6 21.5C4.067 21.5 2.5 19.933 2.5 18ZM6 15.5C4.61929 15.5 3.5 16.6193 3.5 18C3.5 19.3807 4.61929 20.5 6 20.5C7.38071 20.5 8.5 19.3807 8.5 18C8.5 16.6193 7.38071 15.5 6 15.5Z" fill="#414141"/>
<path fill-rule="evenodd" clip-rule="evenodd" d="M20.3546 3.64645C20.5499 3.84171 20.5499 4.15829 20.3546 4.35355L8.47465 16.2336C8.27939 16.4288 7.9628 16.4288 7.76754 16.2336C7.57228 16.0383 7.57228 15.7217 7.76754 15.5264L19.6475 3.64645C19.8428 3.45118 20.1594 3.45118 20.3546 3.64645Z" fill="#414141"/>
<path fill-rule="evenodd" clip-rule="evenodd" d="M14.1149 14.1267C14.31 13.9313 14.6265 13.931 14.822 14.1261L20.352 19.6461C20.5474 19.8412 20.5477 20.1578 20.3526 20.3532C20.1575 20.5487 19.841 20.5489 19.6455 20.3539L14.1155 14.8339C13.9201 14.6388 13.9198 14.3222 14.1149 14.1267Z" fill="#414141"/>
<path fill-rule="evenodd" clip-rule="evenodd" d="M7.76754 7.76656C7.9628 7.5713 8.27939 7.5713 8.47465 7.76656L12.3546 11.6466C12.5499 11.8418 12.5499 12.1584 12.3546 12.3537C12.1594 12.5489 11.8428 12.5489 11.6475 12.3537L7.76754 8.47367C7.57228 8.27841 7.57228 7.96183 7.76754 7.76656Z" fill="#414141"/>
</svg>
