<svg width="24" height="24" viewBox="0 0 24 24" fill="none" xmlns="http://www.w3.org/2000/svg">
<path fill-rule="evenodd" clip-rule="evenodd" d="M1.5 4C1.5 2.61929 2.61929 1.5 4 1.5H20C21.3807 1.5 22.5 2.61929 22.5 4V8C22.5 9.38071 21.3807 10.5 20 10.5H4C2.61929 10.5 1.5 9.38071 1.5 8V4ZM4 2.5C3.17157 2.5 2.5 3.17157 2.5 4V8C2.5 8.82843 3.17157 9.5 4 9.5H20C20.8284 9.5 21.5 8.82843 21.5 8V4C21.5 3.17157 20.8284 2.5 20 2.5H4Z" fill="#414141"/>
<path fill-rule="evenodd" clip-rule="evenodd" d="M1.5 16C1.5 14.6193 2.61929 13.5 4 13.5H20C21.3807 13.5 22.5 14.6193 22.5 16V20C22.5 21.3807 21.3807 22.5 20 22.5H4C2.61929 22.5 1.5 21.3807 1.5 20V16ZM4 14.5C3.17157 14.5 2.5 15.1716 2.5 16V20C2.5 20.8284 3.17157 21.5 4 21.5H20C20.8284 21.5 21.5 20.8284 21.5 20V16C21.5 15.1716 20.8284 14.5 20 14.5H4Z" fill="#414141"/>
<path d="M7 6C7 6.55228 6.55228 7 6 7C5.44772 7 5 6.55228 5 6C5 5.44772 5.44772 5 6 5C6.55228 5 7 5.44772 7 6Z" fill="#414141"/>
<path d="M7 18C7 18.5523 6.55228 19 6 19C5.44772 19 5 18.5523 5 18C5 17.4477 5.44772 17 6 17C6.55228 17 7 17.4477 7 18Z" fill="#414141"/>
</svg>
