<svg width="24" height="24" viewBox="0 0 24 24" fill="none" xmlns="http://www.w3.org/2000/svg">
<path fill-rule="evenodd" clip-rule="evenodd" d="M8.5 12C8.5 10.067 10.067 8.5 12 8.5C13.933 8.5 15.5 10.067 15.5 12C15.5 13.933 13.933 15.5 12 15.5C10.067 15.5 8.5 13.933 8.5 12ZM12 9.5C10.6193 9.5 9.5 10.6193 9.5 12C9.5 13.3807 10.6193 14.5 12 14.5C13.3807 14.5 14.5 13.3807 14.5 12C14.5 10.6193 13.3807 9.5 12 9.5Z" fill="#414141"/>
<path fill-rule="evenodd" clip-rule="evenodd" d="M12 1.5C11.1716 1.5 10.5 2.17157 10.5 3V3.17L10.5 3.17199C10.4966 4.02892 9.98461 4.802 9.19697 5.13957C9.14062 5.16372 9.08036 5.17728 9.01921 5.17963C8.23894 5.47711 7.35211 5.29604 6.75037 4.70743L6.74643 4.70358L6.68645 4.64355C6.40509 4.36189 6.02311 4.20343 5.625 4.20343C5.22689 4.20343 4.8451 4.36169 4.56375 4.64336C4.28208 4.92471 4.12343 5.30689 4.12343 5.705C4.12343 6.10311 4.28169 6.4849 4.56336 6.76625L4.62745 6.83035C5.23836 7.45488 5.41025 8.38655 5.06376 9.18741C4.75521 10.0078 3.979 10.5593 3.10169 10.5799L3.09 10.5801L3 10.58C2.17157 10.58 1.5 11.2516 1.5 12.08C1.5 12.9084 2.17157 13.58 3 13.58H3.17199C4.02804 13.5834 4.80041 14.0943 5.13853 14.8806C5.49196 15.6841 5.32139 16.622 4.70743 17.2496L4.70358 17.2536L4.64355 17.3136C4.36189 17.5949 4.20343 17.9769 4.20343 18.375C4.20343 18.7731 4.36169 19.1549 4.64336 19.4363C4.92471 19.7179 5.30689 19.8766 5.705 19.8766C6.10311 19.8766 6.4849 19.7183 6.76625 19.4366L6.83035 19.3725C7.45488 18.7616 8.38654 18.5898 9.1874 18.9362C10.0078 19.2448 10.5593 20.021 10.5799 20.8983L10.5801 20.91L10.58 21C10.58 21.8284 11.2516 22.5 12.08 22.5C12.9084 22.5 13.58 21.8284 13.58 21V20.83L13.58 20.828C13.5834 19.972 14.0943 19.1996 14.8806 18.8615C15.6841 18.508 16.622 18.6786 17.2496 19.2926L17.2536 19.2964L17.3136 19.3564C17.5949 19.6381 17.9769 19.7966 18.375 19.7966C18.7731 19.7966 19.1549 19.6383 19.4363 19.3566C19.7179 19.0753 19.8766 18.6931 19.8766 18.295C19.8766 17.8969 19.7183 17.5151 19.4366 17.2337L19.3725 17.1697C18.7586 16.542 18.588 15.6041 18.9415 14.8006C19.2796 14.0143 20.052 13.5034 20.908 13.5L20.91 13.5L21 13.5C21.8284 13.5 22.5 12.8284 22.5 12C22.5 11.1716 21.8284 10.5 21 10.5H20.83L20.828 10.5C19.9711 10.4966 19.198 9.98461 18.8604 9.19697C18.8363 9.14062 18.8227 9.08036 18.8204 9.01921C18.5229 8.23895 18.704 7.35211 19.2926 6.75037L19.2964 6.74643L19.3564 6.68645C19.6381 6.4051 19.7966 6.02311 19.7966 5.625C19.7966 5.22689 19.6383 4.8451 19.3566 4.56375C19.0753 4.28208 18.6931 4.12343 18.295 4.12343C17.8969 4.12343 17.5151 4.28169 17.2337 4.56336L17.1697 4.62745C16.542 5.24141 15.6041 5.41196 14.8006 5.05853C14.0143 4.72041 13.5034 3.94804 13.5 3.09199L13.5 3.09V3C13.5 2.17157 12.8284 1.5 12 1.5ZM9.5 3C9.5 1.61929 10.6193 0.5 12 0.5C13.3807 0.5 14.5 1.61929 14.5 3V3.08888C14.5022 3.54689 14.7759 3.95998 15.197 4.14043L15.2019 4.14254C15.6312 4.33202 16.1325 4.24163 16.4686 3.91433L16.5262 3.85664C16.9952 3.3872 17.6315 3.12343 18.295 3.12343C18.9583 3.12343 19.5945 3.38705 20.0634 3.85625C20.5328 4.32517 20.7966 4.96148 20.7966 5.625C20.7966 6.28852 20.5328 6.92483 20.0634 7.39375L20.0056 7.45146C19.6784 7.78752 19.588 8.2888 19.7774 8.71812C19.8008 8.77115 19.8148 8.82777 19.8188 8.88543C20.0154 9.25944 20.4037 9.49797 20.8311 9.5H21C22.3807 9.5 23.5 10.6193 23.5 12C23.5 13.3807 22.3807 14.5 21 14.5H20.9111C20.4531 14.5022 20.04 14.7759 19.8596 15.197L19.8575 15.2019C19.668 15.6312 19.7584 16.1325 20.0857 16.4686L20.1434 16.5262C20.6128 16.9952 20.8766 17.6315 20.8766 18.295C20.8766 18.9584 20.6129 19.5947 20.1436 20.0636C19.6747 20.5329 19.0384 20.7966 18.375 20.7966C17.7115 20.7966 17.0752 20.5328 16.6063 20.0634L16.5486 20.0057C16.2125 19.6784 15.7112 19.588 15.2819 19.7774L15.277 19.7796C14.8559 19.96 14.5822 20.3731 14.58 20.8311V21C14.58 22.3807 13.4607 23.5 12.08 23.5C10.6993 23.5 9.58 22.3807 9.58 21V20.9164C9.56685 20.4465 9.26893 20.0317 8.82741 19.8693C8.81752 19.8656 8.80775 19.8617 8.79812 19.8574C8.3688 19.668 7.86752 19.7584 7.53146 20.0856L7.47375 20.1434C7.00483 20.6128 6.36852 20.8766 5.705 20.8766C5.04148 20.8766 4.40517 20.6128 3.93625 20.1434C3.46705 19.6745 3.20343 19.0383 3.20343 18.375C3.20343 17.7115 3.4672 17.0752 3.93664 16.6063L3.99433 16.5486C4.32163 16.2125 4.41205 15.7112 4.22257 15.2819L4.2204 15.277C4.03996 14.8559 3.62689 14.5822 3.16888 14.58H3C1.61929 14.58 0.5 13.4607 0.5 12.08C0.5 10.6993 1.61929 9.58 3 9.58H3.08362C3.55351 9.56685 3.96835 9.26893 4.13073 8.82741C4.13437 8.81752 4.13832 8.80775 4.14257 8.79812C4.33205 8.36879 4.24163 7.8675 3.91433 7.53143L3.85664 7.47375C3.3872 7.00483 3.12343 6.36852 3.12343 5.705C3.12343 5.04157 3.38713 4.40535 3.85645 3.93645C4.32535 3.46713 4.96157 3.20343 5.625 3.20343C6.28852 3.20343 6.92483 3.4672 7.39375 3.93664L7.45143 3.99433C7.7875 4.32163 8.28879 4.41205 8.71812 4.22257C8.77115 4.19916 8.82777 4.18519 8.88543 4.1812C9.25944 3.98458 9.49797 3.59628 9.5 3.16888V3Z" fill="#414141"/>
</svg>
