<svg width="24" height="24" viewBox="0 0 24 24" fill="none" xmlns="http://www.w3.org/2000/svg">
<path fill-rule="evenodd" clip-rule="evenodd" d="M4 11.5C4.27614 11.5 4.5 11.7239 4.5 12V20C4.5 20.8284 5.17157 21.5 6 21.5H18C18.8284 21.5 19.5 20.8284 19.5 20V12C19.5 11.7239 19.7239 11.5 20 11.5C20.2761 11.5 20.5 11.7239 20.5 12V20C20.5 21.3807 19.3807 22.5 18 22.5H6C4.61929 22.5 3.5 21.3807 3.5 20V12C3.5 11.7239 3.72386 11.5 4 11.5Z" fill="#414141"/>
<path fill-rule="evenodd" clip-rule="evenodd" d="M11.6464 1.64645C11.8417 1.45118 12.1583 1.45118 12.3536 1.64645L16.3536 5.64645C16.5488 5.84171 16.5488 6.15829 16.3536 6.35355C16.1583 6.54882 15.8417 6.54882 15.6464 6.35355L12 2.70711L8.35355 6.35355C8.15829 6.54882 7.84171 6.54882 7.64645 6.35355C7.45118 6.15829 7.45118 5.84171 7.64645 5.64645L11.6464 1.64645Z" fill="#414141"/>
<path fill-rule="evenodd" clip-rule="evenodd" d="M12 1.5C12.2761 1.5 12.5 1.72386 12.5 2V15C12.5 15.2761 12.2761 15.5 12 15.5C11.7239 15.5 11.5 15.2761 11.5 15V2C11.5 1.72386 11.7239 1.5 12 1.5Z" fill="#414141"/>
</svg>
