<svg width="24" height="24" viewBox="0 0 24 24" fill="none" xmlns="http://www.w3.org/2000/svg">
<path fill-rule="evenodd" clip-rule="evenodd" d="M14.5 3C14.5 2.72386 14.7239 2.5 15 2.5H20C20.2761 2.5 20.5 2.72386 20.5 3V8C20.5 8.27614 20.2761 8.5 20 8.5C19.7239 8.5 19.5 8.27614 19.5 8V3.5H15C14.7239 3.5 14.5 3.27614 14.5 3Z" fill="#414141"/>
<path fill-rule="evenodd" clip-rule="evenodd" d="M20.3536 2.64645C20.5488 2.84171 20.5488 3.15829 20.3536 3.35355L3.35355 20.3536C3.15829 20.5488 2.84171 20.5488 2.64645 20.3536C2.45118 20.1583 2.45118 19.8417 2.64645 19.6464L19.6464 2.64645C19.8417 2.45118 20.1583 2.45118 20.3536 2.64645Z" fill="#414141"/>
<path fill-rule="evenodd" clip-rule="evenodd" d="M20 15.5C20.2761 15.5 20.5 15.7239 20.5 16V21C20.5 21.2761 20.2761 21.5 20 21.5H15C14.7239 21.5 14.5 21.2761 14.5 21C14.5 20.7239 14.7239 20.5 15 20.5H19.5V16C19.5 15.7239 19.7239 15.5 20 15.5Z" fill="#414141"/>
<path fill-rule="evenodd" clip-rule="evenodd" d="M13.6464 14.6464C13.8417 14.4512 14.1583 14.4512 14.3536 14.6464L20.3536 20.6464C20.5488 20.8417 20.5488 21.1583 20.3536 21.3536C20.1583 21.5488 19.8417 21.5488 19.6464 21.3536L13.6464 15.3536C13.4512 15.1583 13.4512 14.8417 13.6464 14.6464Z" fill="#414141"/>
<path fill-rule="evenodd" clip-rule="evenodd" d="M2.64645 3.64645C2.84171 3.45118 3.15829 3.45118 3.35355 3.64645L8.35355 8.64645C8.54882 8.84171 8.54882 9.15829 8.35355 9.35355C8.15829 9.54882 7.84171 9.54882 7.64645 9.35355L2.64645 4.35355C2.45118 4.15829 2.45118 3.84171 2.64645 3.64645Z" fill="#414141"/>
</svg>
