<svg width="24" height="24" viewBox="0 0 24 24" fill="none" xmlns="http://www.w3.org/2000/svg">
<path fill-rule="evenodd" clip-rule="evenodd" d="M2.5 5C2.5 3.61929 3.61929 2.5 5 2.5H19C20.3807 2.5 21.5 3.61929 21.5 5V19C21.5 20.3807 20.3807 21.5 19 21.5H5C3.61929 21.5 2.5 20.3807 2.5 19V5ZM5 3.5C4.17157 3.5 3.5 4.17157 3.5 5V19C3.5 19.8284 4.17157 20.5 5 20.5H19C19.8284 20.5 20.5 19.8284 20.5 19V5C20.5 4.17157 19.8284 3.5 19 3.5H5Z" fill="#414141"/>
<path fill-rule="evenodd" clip-rule="evenodd" d="M9 2.5C9.27614 2.5 9.5 2.72386 9.5 3V21C9.5 21.2761 9.27614 21.5 9 21.5C8.72386 21.5 8.5 21.2761 8.5 21V3C8.5 2.72386 8.72386 2.5 9 2.5Z" fill="#414141"/>
</svg>
