<svg width="24" height="24" viewBox="0 0 24 24" fill="none" xmlns="http://www.w3.org/2000/svg">
<path fill-rule="evenodd" clip-rule="evenodd" d="M3.78341 3.54935C3.95664 3.46609 4.16226 3.4895 4.31235 3.60957L14.3123 11.6096C14.431 11.7045 14.5 11.8481 14.5 12C14.5 12.1519 14.431 12.2956 14.3123 12.3904L4.31235 20.3904C4.16226 20.5105 3.95664 20.5339 3.78341 20.4507C3.61017 20.3674 3.5 20.1922 3.5 20V4C3.5 3.8078 3.61017 3.63261 3.78341 3.54935ZM4.5 5.04032V18.9597L13.1996 12L4.5 5.04032Z" fill="#414141"/>
<path fill-rule="evenodd" clip-rule="evenodd" d="M18 4.5C18.2761 4.5 18.5 4.72386 18.5 5V19C18.5 19.2761 18.2761 19.5 18 19.5C17.7239 19.5 17.5 19.2761 17.5 19V5C17.5 4.72386 17.7239 4.5 18 4.5Z" fill="#414141"/>
</svg>
