<svg width="24" height="24" viewBox="0 0 24 24" fill="none" xmlns="http://www.w3.org/2000/svg">
<path fill-rule="evenodd" clip-rule="evenodd" d="M19.2166 3.54935C19.3898 3.63261 19.5 3.8078 19.5 4V20C19.5 20.1922 19.3898 20.3674 19.2166 20.4507C19.0434 20.5339 18.8377 20.5105 18.6877 20.3904L8.68765 12.3904C8.56904 12.2956 8.5 12.1519 8.5 12C8.5 11.8481 8.56904 11.7045 8.68765 11.6096L18.6877 3.60957C18.8377 3.4895 19.0434 3.46609 19.2166 3.54935ZM9.80039 12L18.5 18.9597V5.04032L9.80039 12Z" fill="#414141"/>
<path fill-rule="evenodd" clip-rule="evenodd" d="M5 4.5C5.27614 4.5 5.5 4.72386 5.5 5V19C5.5 19.2761 5.27614 19.5 5 19.5C4.72386 19.5 4.5 19.2761 4.5 19V5C4.5 4.72386 4.72386 4.5 5 4.5Z" fill="#414141"/>
</svg>
