<svg width="24" height="24" viewBox="0 0 24 24" fill="none" xmlns="http://www.w3.org/2000/svg">
<path fill-rule="evenodd" clip-rule="evenodd" d="M17.7524 1.32238C19.9806 2.5271 21.4145 5.03529 22.5572 8.85595C23.7006 12.654 23.868 15.5264 22.6563 17.7548C21.4456 19.9816 18.9387 21.4156 15.1425 22.5585C11.3442 23.702 8.47168 23.8694 6.24323 22.6577C4.01645 21.447 2.58245 18.9401 1.43955 15.1439C0.296031 11.3456 0.128626 8.47307 1.3403 6.24462C2.55107 4.01784 5.05791 2.58385 8.85418 1.44094C12.6506 0.297971 15.5234 0.117246 17.7524 1.32238ZM17.2768 2.20204C15.4182 1.19717 12.886 1.27145 9.14246 2.39848C5.39873 3.52557 3.23057 4.86158 2.21883 6.7223C1.20801 8.58135 1.27061 11.1138 2.39709 14.8556C3.52418 18.5993 4.86018 20.7675 6.72091 21.7792C8.57996 22.79 11.1125 22.7274 14.8542 21.6009C18.5979 20.4738 20.7661 19.1378 21.7778 17.2771C22.7886 15.4181 22.726 12.8856 21.5995 9.14385L21.5993 9.14298C20.472 5.37392 19.136 3.20727 17.2768 2.20204Z" fill="#414141"/>
<path fill-rule="evenodd" clip-rule="evenodd" d="M12.4077 5.51711C12.6688 5.42723 12.9533 5.56603 13.0432 5.82714L16.6232 16.2271C16.7131 16.4882 16.5743 16.7728 16.3132 16.8627C16.0521 16.9525 15.7676 16.8137 15.6777 16.5526L12.0977 6.15263C12.0078 5.89152 12.1466 5.60699 12.4077 5.51711Z" fill="#414141"/>
<path fill-rule="evenodd" clip-rule="evenodd" d="M7.68896 7.13723C7.95006 7.04735 8.23459 7.18615 8.32447 7.44726L11.9045 17.8473C11.9944 18.1084 11.8555 18.3929 11.5944 18.4828C11.3333 18.5727 11.0488 18.4338 10.9589 18.1727L7.37893 7.77274C7.28904 7.51164 7.42785 7.22711 7.68896 7.13723Z" fill="#414141"/>
<path fill-rule="evenodd" clip-rule="evenodd" d="M16.8612 7.687C16.9511 7.94811 16.8123 8.23264 16.5512 8.32252L6.15116 11.9025C5.89006 11.9924 5.60552 11.8536 5.51564 11.5925C5.42576 11.3314 5.56457 11.0469 5.82567 10.957L16.2257 7.37697C16.4868 7.28709 16.7713 7.4259 16.8612 7.687Z" fill="#414141"/>
<path fill-rule="evenodd" clip-rule="evenodd" d="M18.4823 12.4072C18.5722 12.6683 18.4334 12.9529 18.1723 13.0427L7.77225 16.6227C7.51115 16.7126 7.22662 16.5738 7.13674 16.3127C7.04686 16.0516 7.18566 15.7671 7.44677 15.6772L17.8468 12.0972C18.1079 12.0073 18.3924 12.1461 18.4823 12.4072Z" fill="#414141"/>
</svg>
