<svg width="24" height="24" viewBox="0 0 24 24" fill="none" xmlns="http://www.w3.org/2000/svg">
<path fill-rule="evenodd" clip-rule="evenodd" d="M1.5 12C1.5 6.20101 6.20101 1.5 12 1.5C17.799 1.5 22.5 6.20101 22.5 12C22.5 17.799 17.799 22.5 12 22.5C6.20101 22.5 1.5 17.799 1.5 12ZM12 2.5C6.75329 2.5 2.5 6.75329 2.5 12C2.5 17.2467 6.75329 21.5 12 21.5C17.2467 21.5 21.5 17.2467 21.5 12C21.5 6.75329 17.2467 2.5 12 2.5Z" fill="#414141"/>
<path fill-rule="evenodd" clip-rule="evenodd" d="M4.57613 4.57662C4.7714 4.38136 5.08798 4.38136 5.28324 4.57662L19.4232 18.7166C19.6185 18.9119 19.6185 19.2285 19.4232 19.4237C19.228 19.619 18.9114 19.619 18.7161 19.4237L4.57613 5.28373C4.38087 5.08847 4.38087 4.77188 4.57613 4.57662Z" fill="#414141"/>
</svg>
