<svg width="24" height="24" viewBox="0 0 24 24" fill="none" xmlns="http://www.w3.org/2000/svg">
<path fill-rule="evenodd" clip-rule="evenodd" d="M4.5 4C4.5 2.61929 5.61929 1.5 7 1.5H17C18.3807 1.5 19.5 2.61929 19.5 4V20C19.5 21.3807 18.3807 22.5 17 22.5H7C5.61929 22.5 4.5 21.3807 4.5 20V4ZM7 2.5C6.17157 2.5 5.5 3.17157 5.5 4V20C5.5 20.8284 6.17157 21.5 7 21.5H17C17.8284 21.5 18.5 20.8284 18.5 20V4C18.5 3.17157 17.8284 2.5 17 2.5H7Z" fill="#414141"/>
<path d="M13 18C13 18.5523 12.5523 19 12 19C11.4477 19 11 18.5523 11 18C11 17.4477 11.4477 17 12 17C12.5523 17 13 17.4477 13 18Z" fill="#414141"/>
</svg>
