<svg width="24" height="24" viewBox="0 0 24 24" fill="none" xmlns="http://www.w3.org/2000/svg">
<path fill-rule="evenodd" clip-rule="evenodd" d="M3.5 4C3.5 2.61929 4.61929 1.5 6 1.5H18C19.3807 1.5 20.5 2.61929 20.5 4V20C20.5 21.3807 19.3807 22.5 18 22.5H6C4.61929 22.5 3.5 21.3807 3.5 20V4ZM6 2.5C5.17157 2.5 4.5 3.17157 4.5 4V20C4.5 20.8284 5.17157 21.5 6 21.5H18C18.8284 21.5 19.5 20.8284 19.5 20V4C19.5 3.17157 18.8284 2.5 18 2.5H6Z" fill="#414141"/>
<path fill-rule="evenodd" clip-rule="evenodd" d="M7.5 14C7.5 11.5147 9.51472 9.5 12 9.5C14.4853 9.5 16.5 11.5147 16.5 14C16.5 16.4853 14.4853 18.5 12 18.5C9.51472 18.5 7.5 16.4853 7.5 14ZM12 10.5C10.067 10.5 8.5 12.067 8.5 14C8.5 15.933 10.067 17.5 12 17.5C13.933 17.5 15.5 15.933 15.5 14C15.5 12.067 13.933 10.5 12 10.5Z" fill="#414141"/>
<path d="M13 6C13 6.55228 12.5523 7 12 7C11.4477 7 11 6.55228 11 6C11 5.44772 11.4477 5 12 5C12.5523 5 13 5.44772 13 6Z" fill="#414141"/>
</svg>
