<svg width="24" height="24" viewBox="0 0 24 24" fill="none" xmlns="http://www.w3.org/2000/svg">
<path fill-rule="evenodd" clip-rule="evenodd" d="M6.5 12C6.5 8.96243 8.96243 6.5 12 6.5C15.0376 6.5 17.5 8.96243 17.5 12C17.5 15.0376 15.0376 17.5 12 17.5C8.96243 17.5 6.5 15.0376 6.5 12ZM12 7.5C9.51472 7.5 7.5 9.51472 7.5 12C7.5 14.4853 9.51472 16.5 12 16.5C14.4853 16.5 16.5 14.4853 16.5 12C16.5 9.51472 14.4853 7.5 12 7.5Z" fill="#414141"/>
<path fill-rule="evenodd" clip-rule="evenodd" d="M12 0.5C12.2761 0.5 12.5 0.723858 12.5 1V3C12.5 3.27614 12.2761 3.5 12 3.5C11.7239 3.5 11.5 3.27614 11.5 3V1C11.5 0.723858 11.7239 0.5 12 0.5Z" fill="#414141"/>
<path fill-rule="evenodd" clip-rule="evenodd" d="M12 20.5C12.2761 20.5 12.5 20.7239 12.5 21V23C12.5 23.2761 12.2761 23.5 12 23.5C11.7239 23.5 11.5 23.2761 11.5 23V21C11.5 20.7239 11.7239 20.5 12 20.5Z" fill="#414141"/>
<path fill-rule="evenodd" clip-rule="evenodd" d="M3.8652 3.86617C4.06046 3.67091 4.37704 3.67091 4.5723 3.86617L5.9923 5.28617C6.18757 5.48144 6.18757 5.79802 5.9923 5.99328C5.79704 6.18854 5.48046 6.18854 5.2852 5.99328L3.8652 4.57328C3.66993 4.37802 3.66993 4.06144 3.8652 3.86617Z" fill="#414141"/>
<path fill-rule="evenodd" clip-rule="evenodd" d="M18.0058 18.0063C18.2011 17.811 18.5177 17.811 18.7129 18.0063L20.1329 19.4263C20.3282 19.6216 20.3282 19.9382 20.1329 20.1334C19.9377 20.3287 19.6211 20.3287 19.4258 20.1334L18.0058 18.7134C17.8106 18.5182 17.8106 18.2016 18.0058 18.0063Z" fill="#414141"/>
<path fill-rule="evenodd" clip-rule="evenodd" d="M0.5 12C0.5 11.7239 0.723858 11.5 1 11.5H3C3.27614 11.5 3.5 11.7239 3.5 12C3.5 12.2761 3.27614 12.5 3 12.5H1C0.723858 12.5 0.5 12.2761 0.5 12Z" fill="#414141"/>
<path fill-rule="evenodd" clip-rule="evenodd" d="M20.5 12C20.5 11.7239 20.7239 11.5 21 11.5H23C23.2761 11.5 23.5 11.7239 23.5 12C23.5 12.2761 23.2761 12.5 23 12.5H21C20.7239 12.5 20.5 12.2761 20.5 12Z" fill="#414141"/>
<path fill-rule="evenodd" clip-rule="evenodd" d="M5.9923 18.0063C6.18757 18.2016 6.18757 18.5182 5.9923 18.7134L4.5723 20.1334C4.37704 20.3287 4.06046 20.3287 3.8652 20.1334C3.66993 19.9382 3.66993 19.6216 3.8652 19.4263L5.2852 18.0063C5.48046 17.811 5.79704 17.811 5.9923 18.0063Z" fill="#414141"/>
<path fill-rule="evenodd" clip-rule="evenodd" d="M20.1329 3.86666C20.3282 4.06192 20.3282 4.37851 20.1329 4.57377L18.7129 5.99377C18.5177 6.18903 18.2011 6.18903 18.0058 5.99377C17.8106 5.79851 17.8106 5.48192 18.0058 5.28666L19.4258 3.86666C19.6211 3.6714 19.9377 3.6714 20.1329 3.86666Z" fill="#414141"/>
</svg>
