<svg width="24" height="24" viewBox="0 0 24 24" fill="none" xmlns="http://www.w3.org/2000/svg">
<path fill-rule="evenodd" clip-rule="evenodd" d="M6.5 17C6.5 13.9624 8.96243 11.5 12 11.5C15.0376 11.5 17.5 13.9624 17.5 17C17.5 17.2761 17.2761 17.5 17 17.5C16.7239 17.5 16.5 17.2761 16.5 17C16.5 14.5147 14.4853 12.5 12 12.5C9.51472 12.5 7.5 14.5147 7.5 17C7.5 17.2761 7.27614 17.5 7 17.5C6.72386 17.5 6.5 17.2761 6.5 17Z" fill="#414141"/>
<path fill-rule="evenodd" clip-rule="evenodd" d="M12 0.5C12.2761 0.5 12.5 0.723858 12.5 1V8C12.5 8.27614 12.2761 8.5 12 8.5C11.7239 8.5 11.5 8.27614 11.5 8V1C11.5 0.723858 11.7239 0.5 12 0.5Z" fill="#414141"/>
<path fill-rule="evenodd" clip-rule="evenodd" d="M3.8652 8.86617C4.06046 8.67091 4.37704 8.67091 4.5723 8.86617L5.9923 10.2862C6.18757 10.4814 6.18757 10.798 5.9923 10.9933C5.79704 11.1885 5.48046 11.1885 5.2852 10.9933L3.8652 9.57328C3.66993 9.37802 3.66993 9.06144 3.8652 8.86617Z" fill="#414141"/>
<path fill-rule="evenodd" clip-rule="evenodd" d="M0.5 17C0.5 16.7239 0.723858 16.5 1 16.5H3C3.27614 16.5 3.5 16.7239 3.5 17C3.5 17.2761 3.27614 17.5 3 17.5H1C0.723858 17.5 0.5 17.2761 0.5 17Z" fill="#414141"/>
<path fill-rule="evenodd" clip-rule="evenodd" d="M20.5 17C20.5 16.7239 20.7239 16.5 21 16.5H23C23.2761 16.5 23.5 16.7239 23.5 17C23.5 17.2761 23.2761 17.5 23 17.5H21C20.7239 17.5 20.5 17.2761 20.5 17Z" fill="#414141"/>
<path fill-rule="evenodd" clip-rule="evenodd" d="M20.1329 8.86666C20.3282 9.06192 20.3282 9.37851 20.1329 9.57377L18.7129 10.9938C18.5177 11.189 18.2011 11.189 18.0058 10.9938C17.8106 10.7985 17.8106 10.4819 18.0058 10.2867L19.4258 8.86666C19.6211 8.6714 19.9377 8.6714 20.1329 8.86666Z" fill="#414141"/>
<path fill-rule="evenodd" clip-rule="evenodd" d="M0.5 21C0.5 20.7239 0.723858 20.5 1 20.5H23C23.2761 20.5 23.5 20.7239 23.5 21C23.5 21.2761 23.2761 21.5 23 21.5H1C0.723858 21.5 0.5 21.2761 0.5 21Z" fill="#414141"/>
<path fill-rule="evenodd" clip-rule="evenodd" d="M11.6464 0.646447C11.8417 0.451184 12.1583 0.451184 12.3536 0.646447L16.3536 4.64645C16.5488 4.84171 16.5488 5.15829 16.3536 5.35355C16.1583 5.54882 15.8417 5.54882 15.6464 5.35355L12 1.70711L8.35355 5.35355C8.15829 5.54882 7.84171 5.54882 7.64645 5.35355C7.45118 5.15829 7.45118 4.84171 7.64645 4.64645L11.6464 0.646447Z" fill="#414141"/>
</svg>
