<svg width="24" height="24" viewBox="0 0 24 24" fill="none" xmlns="http://www.w3.org/2000/svg">
<path fill-rule="evenodd" clip-rule="evenodd" d="M20.5 20C20.5 21.3807 19.3807 22.5 18 22.5H6C4.61929 22.5 3.5 21.3807 3.5 20L3.5 4C3.5 2.61929 4.61929 1.5 6 1.5H18C19.3807 1.5 20.5 2.61929 20.5 4L20.5 20ZM18 21.5C18.8284 21.5 19.5 20.8284 19.5 20L19.5 4C19.5 3.17157 18.8284 2.5 18 2.5H6C5.17157 2.5 4.5 3.17157 4.5 4L4.5 20C4.5 20.8284 5.17157 21.5 6 21.5H18Z" fill="#414141"/>
<path d="M13 18C13 18.5523 12.5523 19 12 19C11.4477 19 11 18.5523 11 18C11 17.4477 11.4477 17 12 17C12.5523 17 13 17.4477 13 18Z" fill="#414141"/>
</svg>
