<svg width="24" height="24" viewBox="0 0 24 24" fill="none" xmlns="http://www.w3.org/2000/svg">
<path fill-rule="evenodd" clip-rule="evenodd" d="M1.5 2C1.5 1.72386 1.72386 1.5 2 1.5H12C12.1326 1.5 12.2598 1.55268 12.3536 1.64645L20.9446 10.2375C21.9139 11.2126 21.9139 12.7874 20.9446 13.7625L20.9436 13.7636L13.7738 20.9334C13.3048 21.4028 12.6685 21.6666 12.005 21.6666C11.3416 21.6666 10.7054 21.4029 10.2365 20.9336C10.2364 20.9335 10.2365 20.9336 10.2365 20.9336L1.64665 12.3538C1.55276 12.26 1.5 12.1327 1.5 12V2ZM2.5 2.5V11.7927L10.9433 20.2262C11.2247 20.5079 11.6069 20.6666 12.005 20.6666C12.4031 20.6666 12.7849 20.5083 13.0662 20.2266L20.2354 13.0575C20.2356 13.0573 20.2359 13.057 20.2361 13.0568C20.8167 12.4719 20.8167 11.5281 20.2361 10.9432C20.2359 10.943 20.2356 10.9427 20.2354 10.9425L11.7929 2.5H2.5Z" fill="#414141"/>
<path d="M10 8.5C10 9.32843 9.32843 10 8.5 10C7.67157 10 7 9.32843 7 8.5C7 7.67157 7.67157 7 8.5 7C9.32843 7 10 7.67157 10 8.5Z" fill="#414141"/>
</svg>
