<svg width="24" height="24" viewBox="0 0 24 24" fill="none" xmlns="http://www.w3.org/2000/svg">
<path fill-rule="evenodd" clip-rule="evenodd" d="M8.50039 3.5C8.50039 1.84315 9.84353 0.5 11.5004 0.5C13.1572 0.5 14.5004 1.84315 14.5004 3.5V14.5016C16.1744 15.7561 16.8979 17.9327 16.2851 19.953C15.6458 22.0606 13.7028 23.5017 11.5004 23.5017C9.298 23.5017 7.35497 22.0606 6.71567 19.953C6.10284 17.9327 6.82637 15.7561 8.50039 14.5016V3.5ZM11.5004 1.5C10.3958 1.5 9.50039 2.39543 9.50039 3.5V14.76C9.50039 14.927 9.41702 15.083 9.27817 15.1757C7.81317 16.1546 7.16118 17.9767 7.67262 19.6628C8.18406 21.3488 9.73848 22.5017 11.5004 22.5017C13.2623 22.5017 14.8167 21.3488 15.3282 19.6628C15.8396 17.9767 15.1876 16.1546 13.7226 15.1757C13.5838 15.083 13.5004 14.927 13.5004 14.76V3.5C13.5004 2.39543 12.605 1.5 11.5004 1.5Z" fill="#414141"/>
</svg>
