<svg width="24" height="24" viewBox="0 0 24 24" fill="none" xmlns="http://www.w3.org/2000/svg">
<path fill-rule="evenodd" clip-rule="evenodd" d="M21.4991 4.03558C21.3624 3.14171 20.5853 2.48375 19.6779 2.4998L19.6691 2.49996L17.4991 2.49988V12.4999H19.6779C20.5853 12.5159 21.3624 11.858 21.4991 10.9642V4.03558ZM16.4991 12.8938V2.49988H5.71342C4.96545 2.49142 4.32557 3.03529 4.21342 3.77485L2.83341 12.7749C2.83339 12.775 2.83343 12.7748 2.83341 12.7749C2.76751 13.2099 2.89583 13.6523 3.18452 13.9843C3.47329 14.3164 3.89335 14.5049 4.33341 14.4999L4.33907 14.4998L9.99907 14.4999C10.2752 14.4999 10.4991 14.7237 10.4991 14.9999V18.9999C10.4991 20.2735 11.4515 21.3247 12.6829 21.4801L16.4991 12.8938ZM17.324 13.4999L13.456 22.2029C13.3757 22.3835 13.1967 22.4999 12.9991 22.4999C11.0661 22.4999 9.49907 20.9329 9.49907 18.9999V15.4999H4.3418C3.60943 15.5073 2.91057 15.1932 2.42991 14.6405C1.94861 14.087 1.73466 13.35 1.84473 12.6248L3.22472 3.62491C3.22474 3.62477 3.2247 3.62505 3.22472 3.62491C3.41168 2.39351 4.47656 1.48727 5.72174 1.49988H19.6649C21.0879 1.47702 22.3037 2.52197 22.4946 3.93286C22.4976 3.95507 22.4991 3.97746 22.4991 3.99988V10.9999C22.4991 11.0223 22.4976 11.0447 22.4946 11.0669C22.3037 12.4778 21.0879 13.5227 19.6649 13.4999H17.324Z" fill="#414141"/>
</svg>
