<svg width="24" height="24" viewBox="0 0 24 24" fill="none" xmlns="http://www.w3.org/2000/svg">
<path fill-rule="evenodd" clip-rule="evenodd" d="M10.5431 1.79693C10.6233 1.61637 10.8024 1.5 11 1.5C12.933 1.5 14.5 3.067 14.5 5V8.5H19.6573C20.3897 8.49258 21.0885 8.80668 21.5692 9.35943C22.0505 9.91292 22.2644 10.6499 22.1543 11.375L20.7743 20.375C20.7743 20.3751 20.7744 20.3748 20.7743 20.375C20.5874 21.6064 19.5226 22.5126 18.2774 22.5H4C2.61929 22.5 1.5 21.3807 1.5 20V13C1.5 11.6193 2.61929 10.5 4 10.5H6.67506L10.5431 1.79693ZM6.5 11.5H4C3.17157 11.5 2.5 12.1716 2.5 13V20C2.5 20.8284 3.17157 21.5 4 21.5H6.5V11.5ZM7.5 21.5V11.1061L11.3161 2.5198C12.5476 2.67519 13.5 3.72637 13.5 5V9C13.5 9.27614 13.7239 9.5 14 9.5H19.66L19.6657 9.49997C20.1057 9.49498 20.5258 9.68351 20.8146 10.0156C21.1033 10.3476 21.2317 10.7897 21.1657 11.2248C21.1657 11.2247 21.1657 11.2248 21.1657 11.2248L19.7858 20.2242C19.6736 20.9638 19.0336 21.5085 18.2857 21.5L7.5 21.5Z" fill="#414141"/>
</svg>
