<svg width="24" height="24" viewBox="0 0 24 24" fill="none" xmlns="http://www.w3.org/2000/svg">
<path fill-rule="evenodd" clip-rule="evenodd" d="M0.5 12C0.5 7.85786 3.85786 4.5 8 4.5H16C20.1421 4.5 23.5 7.85786 23.5 12C23.5 16.1421 20.1421 19.5 16 19.5H8C3.85786 19.5 0.5 16.1421 0.5 12ZM8 5.5C4.41015 5.5 1.5 8.41015 1.5 12C1.5 15.5899 4.41015 18.5 8 18.5H16C19.5899 18.5 22.5 15.5899 22.5 12C22.5 8.41015 19.5899 5.5 16 5.5H8Z" fill="#414141"/>
<path fill-rule="evenodd" clip-rule="evenodd" d="M4.5 12C4.5 10.067 6.067 8.5 8 8.5C9.933 8.5 11.5 10.067 11.5 12C11.5 13.933 9.933 15.5 8 15.5C6.067 15.5 4.5 13.933 4.5 12ZM8 9.5C6.61929 9.5 5.5 10.6193 5.5 12C5.5 13.3807 6.61929 14.5 8 14.5C9.38071 14.5 10.5 13.3807 10.5 12C10.5 10.6193 9.38071 9.5 8 9.5Z" fill="#414141"/>
</svg>
