<svg width="24" height="24" viewBox="0 0 24 24" fill="none" xmlns="http://www.w3.org/2000/svg">
<path fill-rule="evenodd" clip-rule="evenodd" d="M0.5 12C0.5 7.85786 3.85786 4.5 8 4.5H16C20.1421 4.5 23.5 7.85786 23.5 12C23.5 16.1421 20.1421 19.5 16 19.5H8C3.85786 19.5 0.5 16.1421 0.5 12ZM8 5.5C4.41015 5.5 1.5 8.41015 1.5 12C1.5 15.5899 4.41015 18.5 8 18.5H16C19.5899 18.5 22.5 15.5899 22.5 12C22.5 8.41015 19.5899 5.5 16 5.5H8Z" fill="#414141"/>
<path fill-rule="evenodd" clip-rule="evenodd" d="M12.5 12C12.5 10.067 14.067 8.5 16 8.5C17.933 8.5 19.5 10.067 19.5 12C19.5 13.933 17.933 15.5 16 15.5C14.067 15.5 12.5 13.933 12.5 12ZM16 9.5C14.6193 9.5 13.5 10.6193 13.5 12C13.5 13.3807 14.6193 14.5 16 14.5C17.3807 14.5 18.5 13.3807 18.5 12C18.5 10.6193 17.3807 9.5 16 9.5Z" fill="#414141"/>
</svg>
