<svg width="24" height="24" viewBox="0 0 24 24" fill="none" xmlns="http://www.w3.org/2000/svg">
<path fill-rule="evenodd" clip-rule="evenodd" d="M23.3536 5.64645C23.5488 5.84171 23.5488 6.15829 23.3536 6.35355L13.8536 15.8536C13.6583 16.0488 13.3417 16.0488 13.1464 15.8536L8.5 11.2071L1.35355 18.3536C1.15829 18.5488 0.841709 18.5488 0.646447 18.3536C0.451184 18.1583 0.451184 17.8417 0.646447 17.6464L8.14645 10.1464C8.34171 9.95118 8.65829 9.95118 8.85355 10.1464L13.5 14.7929L22.6464 5.64645C22.8417 5.45118 23.1583 5.45118 23.3536 5.64645Z" fill="#414141"/>
<path fill-rule="evenodd" clip-rule="evenodd" d="M16.5 6C16.5 5.72386 16.7239 5.5 17 5.5H23C23.2761 5.5 23.5 5.72386 23.5 6V12C23.5 12.2761 23.2761 12.5 23 12.5C22.7239 12.5 22.5 12.2761 22.5 12V6.5H17C16.7239 6.5 16.5 6.27614 16.5 6Z" fill="#414141"/>
</svg>
