<svg width="24" height="24" viewBox="0 0 24 24" fill="none" xmlns="http://www.w3.org/2000/svg">
<path fill-rule="evenodd" clip-rule="evenodd" d="M0.646447 5.64645C0.841709 5.45118 1.15829 5.45118 1.35355 5.64645L8.5 12.7929L13.1464 8.14645C13.3417 7.95118 13.6583 7.95118 13.8536 8.14645L23.3536 17.6464C23.5488 17.8417 23.5488 18.1583 23.3536 18.3536C23.1583 18.5488 22.8417 18.5488 22.6464 18.3536L13.5 9.20711L8.85355 13.8536C8.65829 14.0488 8.34171 14.0488 8.14645 13.8536L0.646447 6.35355C0.451184 6.15829 0.451184 5.84171 0.646447 5.64645Z" fill="#414141"/>
<path fill-rule="evenodd" clip-rule="evenodd" d="M23 11.5C23.2761 11.5 23.5 11.7239 23.5 12V18C23.5 18.2761 23.2761 18.5 23 18.5H17C16.7239 18.5 16.5 18.2761 16.5 18C16.5 17.7239 16.7239 17.5 17 17.5H22.5V12C22.5 11.7239 22.7239 11.5 23 11.5Z" fill="#414141"/>
</svg>
