<svg width="24" height="24" viewBox="0 0 24 24" fill="none" xmlns="http://www.w3.org/2000/svg">
<path fill-rule="evenodd" clip-rule="evenodd" d="M9.8613 3.60089C10.3145 2.85374 11.1249 2.39746 11.9988 2.39746C12.8727 2.39746 13.6831 2.85374 14.1363 3.60089L14.1377 3.60327L22.6119 17.7501C23.056 18.5194 23.0586 19.4666 22.6188 20.2383C22.1789 21.0101 21.3625 21.4904 20.4743 21.5002L20.4688 21.5002L3.5233 21.5002C2.63507 21.4904 1.81872 21.0101 1.37884 20.2383C0.938955 19.4666 0.941607 18.5194 1.3858 17.7502L1.38981 17.7432L9.85987 3.60327L9.8613 3.60089ZM10.717 4.11835C10.7168 4.11874 10.7165 4.11913 10.7163 4.11952L2.24995 18.2534C1.98527 18.7144 1.9843 19.2812 2.24762 19.7431C2.51112 20.2054 2.99978 20.4934 3.53172 20.5002H20.4659C20.9978 20.4934 21.4865 20.2054 21.75 19.7431C22.0133 19.2812 22.0123 18.7144 21.7477 18.2535L13.2813 4.11952C13.2811 4.11913 13.2808 4.11874 13.2806 4.11835C13.0085 3.67075 12.5227 3.39746 11.9988 3.39746C11.4749 3.39746 10.9891 3.67075 10.717 4.11835Z" fill="#414141"/>
</svg>
