<svg width="24" height="24" viewBox="0 0 24 24" fill="none" xmlns="http://www.w3.org/2000/svg">
<path fill-rule="evenodd" clip-rule="evenodd" d="M1.5 9C1.5 7.61929 2.61929 6.5 4 6.5H20C21.3807 6.5 22.5 7.61929 22.5 9V20C22.5 21.3807 21.3807 22.5 20 22.5H4C2.61929 22.5 1.5 21.3807 1.5 20V9ZM4 7.5C3.17157 7.5 2.5 8.17157 2.5 9V20C2.5 20.8284 3.17157 21.5 4 21.5H20C20.8284 21.5 21.5 20.8284 21.5 20V9C21.5 8.17157 20.8284 7.5 20 7.5H4Z" fill="#414141"/>
<path fill-rule="evenodd" clip-rule="evenodd" d="M6.64645 1.64645C6.84171 1.45118 7.15829 1.45118 7.35355 1.64645L12 6.29289L16.6464 1.64645C16.8417 1.45118 17.1583 1.45118 17.3536 1.64645C17.5488 1.84171 17.5488 2.15829 17.3536 2.35355L12.3536 7.35355C12.1583 7.54882 11.8417 7.54882 11.6464 7.35355L6.64645 2.35355C6.45118 2.15829 6.45118 1.84171 6.64645 1.64645Z" fill="#414141"/>
</svg>
