<svg width="24" height="24" viewBox="0 0 24 24" fill="none" xmlns="http://www.w3.org/2000/svg">
<path fill-rule="evenodd" clip-rule="evenodd" d="M20.0103 3.95781C18.6304 2.56972 16.5518 2.11204 14.7038 2.81735C12.7526 3.5621 11.4735 5.44518 11.5001 7.5333V8.03118C8.27986 7.96061 5.27141 6.36432 3.40923 3.71268C3.30571 3.56527 3.1309 3.48494 2.95162 3.50238C2.77234 3.51983 2.6163 3.63236 2.54315 3.79696L3.00005 4.00003C2.54315 3.79696 2.54303 3.79722 2.5429 3.79751L2.54257 3.79827L2.54163 3.8004L2.53868 3.80713L2.52873 3.8303C2.52035 3.85 2.50857 3.87816 2.49391 3.91435C2.46459 3.98671 2.42373 4.09126 2.37554 4.22456C2.27921 4.491 2.15325 4.87323 2.0316 5.34359C1.78892 6.28198 1.56016 7.58367 1.62557 9.02274C1.69108 10.464 2.05239 12.0533 2.99952 13.5488C3.83066 14.8611 5.09829 16.0778 6.96515 17.0554C5.16228 18.0796 3.10349 18.5833 1.01992 18.5004C0.788563 18.4912 0.58115 18.6421 0.518626 18.865C0.456102 19.088 0.554825 19.3247 0.75723 19.4371C5.39549 22.0139 10.5755 22.0263 14.61 19.8789C18.6566 17.725 21.5001 13.425 21.5001 7.50003L21.5 7.49838C21.4993 7.27792 21.484 7.05786 21.4543 6.83961C22.4441 5.7993 23.1453 4.51653 23.4859 3.11834C23.5352 2.91584 23.4537 2.70399 23.2814 2.58671C23.1091 2.46943 22.8822 2.47132 22.7118 2.59145C21.8824 3.17655 20.9721 3.63674 20.0103 3.95781ZM19.4828 4.85815C18.3868 3.598 16.6207 3.15609 15.0604 3.75162C13.5002 4.34714 12.4776 5.85342 12.5 7.52333L12.5001 7.53003H12.5001V8.53003C12.5001 8.80113 12.284 9.02284 12.013 9.02986C8.5897 9.11863 5.33394 7.63188 3.16008 5.02982C3.1082 5.19682 3.05358 5.38585 2.99975 5.59397C2.77369 6.46808 2.56495 7.66639 2.62454 8.97733C2.68402 10.2861 3.01021 11.6967 3.84434 13.0138C4.67644 14.3276 6.03307 15.5787 8.20312 16.5431C8.36902 16.6169 8.48192 16.7747 8.49807 16.9556C8.51422 17.1364 8.43108 17.3118 8.28087 17.4137C6.70033 18.4866 4.89734 19.1658 3.02155 19.4087C6.87957 20.9474 10.9237 20.7081 14.1401 18.9962C17.8432 17.0251 20.4997 13.0756 20.5001 7.50111C20.4992 7.25371 20.4754 7.00691 20.4289 6.76391C20.3976 6.59998 20.4501 6.43122 20.569 6.31403C21.2015 5.69022 21.7107 4.95788 22.0745 4.15573C21.4151 4.50679 20.7217 4.79273 20.0042 5.0088C19.8159 5.0655 19.6118 5.00655 19.4828 4.85815Z" fill="#414141"/>
</svg>
