<svg width="24" height="24" viewBox="0 0 24 24" fill="none" xmlns="http://www.w3.org/2000/svg">
<path fill-rule="evenodd" clip-rule="evenodd" d="M3.5 3C3.5 2.72386 3.72386 2.5 4 2.5H20C20.2761 2.5 20.5 2.72386 20.5 3V6C20.5 6.27614 20.2761 6.5 20 6.5C19.7239 6.5 19.5 6.27614 19.5 6V3.5H4.5V6C4.5 6.27614 4.27614 6.5 4 6.5C3.72386 6.5 3.5 6.27614 3.5 6V3Z" fill="#414141"/>
<path fill-rule="evenodd" clip-rule="evenodd" d="M8.5 19C8.5 18.7239 8.72386 18.5 9 18.5H15C15.2761 18.5 15.5 18.7239 15.5 19C15.5 19.2761 15.2761 19.5 15 19.5H9C8.72386 19.5 8.5 19.2761 8.5 19Z" fill="#414141"/>
<path fill-rule="evenodd" clip-rule="evenodd" d="M12 2.5C12.2761 2.5 12.5 2.72386 12.5 3V19C12.5 19.2761 12.2761 19.5 12 19.5C11.7239 19.5 11.5 19.2761 11.5 19V3C11.5 2.72386 11.7239 2.5 12 2.5Z" fill="#414141"/>
</svg>
