<svg width="24" height="24" viewBox="0 0 24 24" fill="none" xmlns="http://www.w3.org/2000/svg">
<path fill-rule="evenodd" clip-rule="evenodd" d="M0.502264 11.9525C1.06801 6.02568 6.04626 1.5 12 1.5C17.9537 1.5 22.932 6.02568 23.4977 11.9525C23.5111 12.0927 23.4647 12.2321 23.37 12.3363C23.2752 12.4406 23.1409 12.5 23 12.5H13.0871L18.3796 18.6746C18.4573 18.7652 18.5 18.8806 18.5 19C18.5 20.933 16.933 22.5 15 22.5C13.067 22.5 11.5 20.933 11.5 19V12.5H1C0.859129 12.5 0.724793 12.4406 0.630032 12.3363C0.535271 12.2321 0.488878 12.0927 0.502264 11.9525ZM12.0048 11.5C12.0015 11.5 11.9983 11.5 11.995 11.5H1.56428C2.32466 6.35759 6.74659 2.5 12 2.5C17.2534 2.5 21.6753 6.35759 22.4357 11.5H12.0048ZM12.5 13.3516V19C12.5 20.3807 13.6193 21.5 15 21.5C16.321 21.5 17.4026 20.4755 17.4938 19.1777L12.5 13.3516Z" fill="#414141"/>
</svg>
