<svg width="24" height="24" viewBox="0 0 24 24" fill="none" xmlns="http://www.w3.org/2000/svg">
<path fill-rule="evenodd" clip-rule="evenodd" d="M6 1.5C6.27614 1.5 6.5 1.72386 6.5 2V9C6.5 12.0376 8.96243 14.5 12 14.5C15.0376 14.5 17.5 12.0376 17.5 9V2C17.5 1.72386 17.7239 1.5 18 1.5C18.2761 1.5 18.5 1.72386 18.5 2V9C18.5 12.5899 15.5899 15.5 12 15.5C8.41015 15.5 5.5 12.5899 5.5 9V2C5.5 1.72386 5.72386 1.5 6 1.5Z" fill="#414141"/>
<path fill-rule="evenodd" clip-rule="evenodd" d="M3.5 20C3.5 19.7239 3.72386 19.5 4 19.5H20C20.2761 19.5 20.5 19.7239 20.5 20C20.5 20.2761 20.2761 20.5 20 20.5H4C3.72386 20.5 3.5 20.2761 3.5 20Z" fill="#414141"/>
</svg>
