<svg width="24" height="24" viewBox="0 0 24 24" fill="none" xmlns="http://www.w3.org/2000/svg">
<path fill-rule="evenodd" clip-rule="evenodd" d="M2.5 13C2.5 11.6193 3.61929 10.5 5 10.5H19C20.3807 10.5 21.5 11.6193 21.5 13V20C21.5 21.3807 20.3807 22.5 19 22.5H5C3.61929 22.5 2.5 21.3807 2.5 20V13ZM5 11.5C4.17157 11.5 3.5 12.1716 3.5 13V20C3.5 20.8284 4.17157 21.5 5 21.5H19C19.8284 21.5 20.5 20.8284 20.5 20V13C20.5 12.1716 19.8284 11.5 19 11.5H5Z" fill="#414141"/>
<path fill-rule="evenodd" clip-rule="evenodd" d="M8.37165 3.83448C7.71511 4.56397 7.5 5.43965 7.5 6V11C7.5 11.2761 7.27614 11.5 7 11.5C6.72386 11.5 6.5 11.2761 6.5 11V6C6.5 5.22702 6.78489 4.1027 7.62835 3.16552C8.48622 2.21233 9.87901 1.5 12 1.5C14.121 1.5 15.5138 2.21233 16.3716 3.16552C17.2151 4.1027 17.5 5.22702 17.5 6C17.5 6.27614 17.2761 6.5 17 6.5C16.7239 6.5 16.5 6.27614 16.5 6C16.5 5.43965 16.2849 4.56397 15.6284 3.83448C14.9862 3.121 13.879 2.5 12 2.5C10.121 2.5 9.01378 3.121 8.37165 3.83448Z" fill="#414141"/>
</svg>
