<svg width="25" height="24" viewBox="0 0 25 24" fill="none" xmlns="http://www.w3.org/2000/svg">
<path fill-rule="evenodd" clip-rule="evenodd" d="M12.6464 11.6464C12.8417 11.4512 13.1583 11.4512 13.3536 11.6464L17.3536 15.6464C17.5488 15.8417 17.5488 16.1583 17.3536 16.3536C17.1583 16.5488 16.8417 16.5488 16.6464 16.3536L13 12.7071L9.35355 16.3536C9.15829 16.5488 8.84171 16.5488 8.64645 16.3536C8.45118 16.1583 8.45118 15.8417 8.64645 15.6464L12.6464 11.6464Z" fill="#414141"/>
<path fill-rule="evenodd" clip-rule="evenodd" d="M13 11.5C13.2761 11.5 13.5 11.7239 13.5 12V21C13.5 21.2761 13.2761 21.5 13 21.5C12.7239 21.5 12.5 21.2761 12.5 21V12C12.5 11.7239 12.7239 11.5 13 11.5Z" fill="#414141"/>
<path fill-rule="evenodd" clip-rule="evenodd" d="M2.45822 7.07427C4.08418 3.95391 7.46461 2.15791 10.9605 2.55706C14.3268 2.94143 17.1301 5.28481 18.1196 8.49973H19.0015C21.5152 8.50139 23.7083 10.2071 24.3283 12.6431C24.9483 15.0791 23.8379 17.6255 21.6309 18.8287C21.3884 18.9609 21.0847 18.8715 20.9525 18.6291C20.8204 18.3866 20.9098 18.0829 21.1522 17.9507C22.958 16.9663 23.8665 14.8829 23.3592 12.8898C22.8519 10.8966 21.0579 9.50109 19.0012 9.49973H17.7415C17.5136 9.49973 17.3145 9.34557 17.2575 9.12489C16.4804 6.11909 13.9316 3.9028 10.847 3.55061C7.76244 3.19841 4.77971 4.78312 3.34504 7.53638C1.91036 10.2896 2.32035 13.6422 4.37621 15.9686C4.55907 16.1756 4.53957 16.4915 4.33264 16.6744C4.12572 16.8573 3.80974 16.8378 3.62688 16.6308C1.2969 13.9942 0.832251 10.1946 2.45822 7.07427Z" fill="#414141"/>
<path fill-rule="evenodd" clip-rule="evenodd" d="M12.6464 11.6464C12.8417 11.4512 13.1583 11.4512 13.3536 11.6464L17.3536 15.6464C17.5488 15.8417 17.5488 16.1583 17.3536 16.3536C17.1583 16.5488 16.8417 16.5488 16.6464 16.3536L13 12.7071L9.35355 16.3536C9.15829 16.5488 8.84171 16.5488 8.64645 16.3536C8.45118 16.1583 8.45118 15.8417 8.64645 15.6464L12.6464 11.6464Z" fill="#414141"/>
</svg>
