<svg width="24" height="24" viewBox="0 0 24 24" fill="none" xmlns="http://www.w3.org/2000/svg">
<path fill-rule="evenodd" clip-rule="evenodd" d="M4.5 21C4.5 18.5147 6.51472 16.5 9 16.5H15C17.4853 16.5 19.5 18.5147 19.5 21V23C19.5 23.2761 19.2761 23.5 19 23.5C18.7239 23.5 18.5 23.2761 18.5 23V21C18.5 19.067 16.933 17.5 15 17.5H9C7.067 17.5 5.5 19.067 5.5 21V23C5.5 23.2761 5.27614 23.5 5 23.5C4.72386 23.5 4.5 23.2761 4.5 23V21Z" fill="#414141"/>
<path fill-rule="evenodd" clip-rule="evenodd" d="M18.5 12C18.5 11.7239 18.7239 11.5 19 11.5C21.4853 11.5 23.5 13.5147 23.5 16V19C23.5 19.2761 23.2761 19.5 23 19.5C22.7239 19.5 22.5 19.2761 22.5 19V16C22.5 14.067 20.933 12.5 19 12.5C18.7239 12.5 18.5 12.2761 18.5 12Z" fill="#414141"/>
<path fill-rule="evenodd" clip-rule="evenodd" d="M7.5 10C7.5 7.51472 9.51472 5.5 12 5.5C14.4853 5.5 16.5 7.51472 16.5 10C16.5 12.4853 14.4853 14.5 12 14.5C9.51472 14.5 7.5 12.4853 7.5 10ZM12 6.5C10.067 6.5 8.5 8.067 8.5 10C8.5 11.933 10.067 13.5 12 13.5C13.933 13.5 15.5 11.933 15.5 10C15.5 8.067 13.933 6.5 12 6.5Z" fill="#414141"/>
<path fill-rule="evenodd" clip-rule="evenodd" d="M15.5837 3.06427C16.2099 2.12246 17.2822 1.5 18.5001 1.5C20.4331 1.5 22.0001 3.067 22.0001 5C22.0001 6.62727 20.89 7.99401 19.3866 8.38662C19.1194 8.4564 18.8462 8.29637 18.7765 8.02919C18.7067 7.762 18.8667 7.48885 19.1339 7.41907C20.208 7.13858 21.0001 6.16115 21.0001 5C21.0001 3.61929 19.8808 2.5 18.5001 2.5C17.631 2.5 16.8651 2.94305 16.4164 3.61794C16.2635 3.84789 15.9532 3.91036 15.7232 3.75747C15.4933 3.60458 15.4308 3.29422 15.5837 3.06427Z" fill="#414141"/>
<path fill-rule="evenodd" clip-rule="evenodd" d="M5.5 12C5.5 11.7239 5.27614 11.5 5 11.5C2.51472 11.5 0.5 13.5147 0.5 16V19C0.5 19.2761 0.723857 19.5 1 19.5C1.27614 19.5 1.5 19.2761 1.5 19V16C1.5 14.067 3.067 12.5 5 12.5C5.27614 12.5 5.5 12.2761 5.5 12Z" fill="#414141"/>
<path fill-rule="evenodd" clip-rule="evenodd" d="M8.41631 3.06427C7.79012 2.12246 6.71783 1.5 5.49995 1.5C3.56695 1.5 1.99995 3.067 1.99995 5C1.99995 6.62727 3.11002 7.99401 4.61344 8.38662C4.88062 8.4564 5.15377 8.29637 5.22355 8.02919C5.29332 7.762 5.13329 7.48885 4.86611 7.41907C3.79202 7.13858 2.99995 6.16115 2.99995 5C2.99995 3.61929 4.11923 2.5 5.49995 2.5C6.36903 2.5 7.13485 2.94305 7.58358 3.61794C7.73647 3.84789 8.04683 3.91036 8.27678 3.75747C8.50674 3.60458 8.56921 3.29422 8.41631 3.06427Z" fill="#414141"/>
</svg>
