<svg width="24" height="24" viewBox="0 0 24 24" fill="none" xmlns="http://www.w3.org/2000/svg">
<path fill-rule="evenodd" clip-rule="evenodd" d="M0.5 19C0.5 16.5147 2.51472 14.5 5 14.5H12C14.4853 14.5 16.5 16.5147 16.5 19V21C16.5 21.2761 16.2761 21.5 16 21.5C15.7239 21.5 15.5 21.2761 15.5 21V19C15.5 17.067 13.933 15.5 12 15.5H5C3.067 15.5 1.5 17.067 1.5 19V21C1.5 21.2761 1.27614 21.5 1 21.5C0.723858 21.5 0.5 21.2761 0.5 21V19Z" fill="#414141"/>
<path fill-rule="evenodd" clip-rule="evenodd" d="M4 7C4 4.51472 6.01472 2.5 8.5 2.5C10.9853 2.5 13 4.51472 13 7C13 9.48528 10.9853 11.5 8.5 11.5C6.01472 11.5 4 9.48528 4 7ZM8.5 3.5C6.567 3.5 5 5.067 5 7C5 8.933 6.567 10.5 8.5 10.5C10.433 10.5 12 8.933 12 7C12 5.067 10.433 3.5 8.5 3.5Z" fill="#414141"/>
<path fill-rule="evenodd" clip-rule="evenodd" d="M17.6464 7.64645C17.8417 7.45118 18.1583 7.45118 18.3536 7.64645L23.3536 12.6464C23.5488 12.8417 23.5488 13.1583 23.3536 13.3536C23.1583 13.5488 22.8417 13.5488 22.6464 13.3536L17.6464 8.35355C17.4512 8.15829 17.4512 7.84171 17.6464 7.64645Z" fill="#414141"/>
<path fill-rule="evenodd" clip-rule="evenodd" d="M23.3536 7.64645C23.5488 7.84171 23.5488 8.15829 23.3536 8.35355L18.3536 13.3536C18.1583 13.5488 17.8417 13.5488 17.6464 13.3536C17.4512 13.1583 17.4512 12.8417 17.6464 12.6464L22.6464 7.64645C22.8417 7.45118 23.1583 7.45118 23.3536 7.64645Z" fill="#414141"/>
</svg>
