<svg width="24" height="24" viewBox="0 0 24 24" fill="none" xmlns="http://www.w3.org/2000/svg">
<path fill-rule="evenodd" clip-rule="evenodd" d="M23.2288 6.55542C23.3953 6.64112 23.5 6.81271 23.5 7V17C23.5 17.1873 23.3953 17.3589 23.2288 17.4446C23.0623 17.5303 22.8618 17.5157 22.7094 17.4069L15.7094 12.4069C15.578 12.313 15.5 12.1615 15.5 12C15.5 11.8385 15.578 11.687 15.7094 11.5931L22.7094 6.59314C22.8618 6.48427 23.0623 6.46972 23.2288 6.55542ZM16.8602 12L22.5 16.0284V7.9716L16.8602 12Z" fill="#414141"/>
<path fill-rule="evenodd" clip-rule="evenodd" d="M0.5 7C0.5 5.61929 1.61929 4.5 3 4.5H14C15.3807 4.5 16.5 5.61929 16.5 7V17C16.5 18.3807 15.3807 19.5 14 19.5H3C1.61929 19.5 0.5 18.3807 0.5 17V7ZM3 5.5C2.17157 5.5 1.5 6.17157 1.5 7V17C1.5 17.8284 2.17157 18.5 3 18.5H14C14.8284 18.5 15.5 17.8284 15.5 17V7C15.5 6.17157 14.8284 5.5 14 5.5H3Z" fill="#414141"/>
</svg>
