<svg width="24" height="24" viewBox="0 0 24 24" fill="none" xmlns="http://www.w3.org/2000/svg">
<path fill-rule="evenodd" clip-rule="evenodd" d="M3 5.5C2.17157 5.5 1.5 6.17157 1.5 7V17C1.5 17.8284 2.17157 18.5 3 18.5H14C14.8284 18.5 15.5 17.8284 15.5 17V16C15.5 15.7239 15.7239 15.5 16 15.5C16.2761 15.5 16.5 15.7239 16.5 16V17C16.5 18.3807 15.3807 19.5 14 19.5H3C1.61929 19.5 0.5 18.3807 0.5 17V7C0.5 5.61929 1.61929 4.5 3 4.5H5C5.27614 4.5 5.5 4.72386 5.5 5C5.5 5.27614 5.27614 5.5 5 5.5H3ZM10.16 5C10.16 4.72386 10.3839 4.5 10.66 4.5H14C15.3807 4.5 16.5 5.61929 16.5 7V10.1329L17.0522 10.6851L22.707 6.59487C22.8591 6.48479 23.0602 6.46929 23.2275 6.55474C23.3947 6.64018 23.5 6.81217 23.5 7V17C23.5 17.2761 23.2761 17.5 23 17.5C22.7239 17.5 22.5 17.2761 22.5 17V7.97876L17.293 11.7451C17.0941 11.889 16.8201 11.8672 16.6464 11.6936L15.6464 10.6936C15.5527 10.5998 15.5 10.4726 15.5 10.34V7C15.5 6.17157 14.8284 5.5 14 5.5H10.66C10.3839 5.5 10.16 5.27614 10.16 5Z" fill="#414141"/>
<path fill-rule="evenodd" clip-rule="evenodd" d="M0.646447 0.646447C0.841709 0.451184 1.15829 0.451184 1.35355 0.646447L23.3536 22.6464C23.5488 22.8417 23.5488 23.1583 23.3536 23.3536C23.1583 23.5488 22.8417 23.5488 22.6464 23.3536L0.646447 1.35355C0.451184 1.15829 0.451184 0.841709 0.646447 0.646447Z" fill="#414141"/>
</svg>
