<svg width="24" height="24" viewBox="0 0 24 24" fill="none" xmlns="http://www.w3.org/2000/svg">
<path fill-rule="evenodd" clip-rule="evenodd" d="M0.5 11.5C0.5 8.73858 2.73858 6.5 5.5 6.5C8.26142 6.5 10.5 8.73858 10.5 11.5C10.5 14.2614 8.26142 16.5 5.5 16.5C2.73858 16.5 0.5 14.2614 0.5 11.5ZM5.5 7.5C3.29086 7.5 1.5 9.29086 1.5 11.5C1.5 13.7091 3.29086 15.5 5.5 15.5C7.70914 15.5 9.5 13.7091 9.5 11.5C9.5 9.29086 7.70914 7.5 5.5 7.5Z" fill="#414141"/>
<path fill-rule="evenodd" clip-rule="evenodd" d="M13.5 11.5C13.5 8.73858 15.7386 6.5 18.5 6.5C21.2614 6.5 23.5 8.73858 23.5 11.5C23.5 14.2614 21.2614 16.5 18.5 16.5C15.7386 16.5 13.5 14.2614 13.5 11.5ZM18.5 7.5C16.2909 7.5 14.5 9.29086 14.5 11.5C14.5 13.7091 16.2909 15.5 18.5 15.5C20.7091 15.5 22.5 13.7091 22.5 11.5C22.5 9.29086 20.7091 7.5 18.5 7.5Z" fill="#414141"/>
<path fill-rule="evenodd" clip-rule="evenodd" d="M5 16C5 15.7239 5.22386 15.5 5.5 15.5H18.5C18.7761 15.5 19 15.7239 19 16C19 16.2761 18.7761 16.5 18.5 16.5H5.5C5.22386 16.5 5 16.2761 5 16Z" fill="#414141"/>
</svg>
