<svg width="24" height="24" viewBox="0 0 24 24" fill="none" xmlns="http://www.w3.org/2000/svg">
<path fill-rule="evenodd" clip-rule="evenodd" d="M10.2166 4.54935C10.3898 4.63261 10.5 4.8078 10.5 5V19C10.5 19.1922 10.3898 19.3674 10.2166 19.4507C10.0434 19.5339 9.83774 19.5105 9.68765 19.3904L4.82461 15.5H1C0.723858 15.5 0.5 15.2761 0.5 15V9C0.5 8.72386 0.723858 8.5 1 8.5H4.82461L9.68765 4.60957C9.83774 4.4895 10.0434 4.46609 10.2166 4.54935ZM9.5 6.04032L5.31235 9.39044C5.22369 9.46136 5.11354 9.5 5 9.5H1.5V14.5H5C5.11354 14.5 5.22369 14.5386 5.31235 14.6096L9.5 17.9597V6.04032Z" fill="#414141"/>
<path fill-rule="evenodd" clip-rule="evenodd" d="M22.3536 8.64645C22.5488 8.84171 22.5488 9.15829 22.3536 9.35355L16.3536 15.3536C16.1583 15.5488 15.8417 15.5488 15.6464 15.3536C15.4512 15.1583 15.4512 14.8417 15.6464 14.6464L21.6464 8.64645C21.8417 8.45118 22.1583 8.45118 22.3536 8.64645Z" fill="#414141"/>
<path fill-rule="evenodd" clip-rule="evenodd" d="M15.6464 8.64645C15.8417 8.45118 16.1583 8.45118 16.3536 8.64645L22.3536 14.6464C22.5488 14.8417 22.5488 15.1583 22.3536 15.3536C22.1583 15.5488 21.8417 15.5488 21.6464 15.3536L15.6464 9.35355C15.4512 9.15829 15.4512 8.84171 15.6464 8.64645Z" fill="#414141"/>
</svg>
