<svg width="24" height="24" viewBox="0 0 24 24" fill="none" xmlns="http://www.w3.org/2000/svg">
<path fill-rule="evenodd" clip-rule="evenodd" d="M16.2166 4.54935C16.3898 4.63261 16.5 4.8078 16.5 5V19C16.5 19.1922 16.3898 19.3674 16.2166 19.4507C16.0434 19.5339 15.8377 19.5105 15.6877 19.3904L10.8246 15.5H7C6.72386 15.5 6.5 15.2761 6.5 15V9C6.5 8.72386 6.72386 8.5 7 8.5H10.8246L15.6877 4.60957C15.8377 4.4895 16.0434 4.46609 16.2166 4.54935ZM15.5 6.04032L11.3123 9.39044C11.2237 9.46136 11.1135 9.5 11 9.5H7.5V14.5H11C11.1135 14.5 11.2237 14.5386 11.3123 14.6096L15.5 17.9597V6.04032Z" fill="#414141"/>
</svg>
