<svg width="24" height="24" viewBox="0 0 24 24" fill="none" xmlns="http://www.w3.org/2000/svg">
<path fill-rule="evenodd" clip-rule="evenodd" d="M13.2166 4.54935C13.3898 4.63261 13.5 4.8078 13.5 5V19C13.5 19.1922 13.3898 19.3674 13.2166 19.4507C13.0434 19.5339 12.8377 19.5105 12.6877 19.3904L7.82461 15.5H4C3.72386 15.5 3.5 15.2761 3.5 15V9C3.5 8.72386 3.72386 8.5 4 8.5H7.82461L12.6877 4.60957C12.8377 4.4895 13.0434 4.46609 13.2166 4.54935ZM12.5 6.04032L8.31235 9.39044C8.22369 9.46136 8.11354 9.5 8 9.5H4.5V14.5H8C8.11354 14.5 8.22369 14.5386 8.31235 14.6096L12.5 17.9597V6.04032Z" fill="#414141"/>
<path fill-rule="evenodd" clip-rule="evenodd" d="M17.1856 8.10635C17.3809 7.91112 17.6974 7.91117 17.8927 8.10646C20.0398 10.2542 20.0398 13.7357 17.8927 15.8835C17.6974 16.0788 17.3809 16.0788 17.1856 15.8836C16.9903 15.6883 16.9902 15.3718 17.1855 15.1765C18.9422 13.4192 18.9422 10.5707 17.1855 8.81346C16.9902 8.61817 16.9903 8.30159 17.1856 8.10635Z" fill="#414141"/>
</svg>
