<svg width="24" height="24" viewBox="0 0 24 24" fill="none" xmlns="http://www.w3.org/2000/svg">
<path fill-rule="evenodd" clip-rule="evenodd" d="M11.2166 4.54935C11.3898 4.63261 11.5 4.8078 11.5 5V19C11.5 19.1922 11.3898 19.3674 11.2166 19.4507C11.0434 19.5339 10.8377 19.5105 10.6877 19.3904L5.82461 15.5H2C1.72386 15.5 1.5 15.2761 1.5 15V9C1.5 8.72386 1.72386 8.5 2 8.5H5.82461L10.6877 4.60957C10.8377 4.4895 11.0434 4.46609 11.2166 4.54935ZM10.5 6.04032L6.31235 9.39044C6.22369 9.46136 6.11354 9.5 6 9.5H2.5V14.5H6C6.11354 14.5 6.22369 14.5386 6.31235 14.6096L10.5 17.9597V6.04032Z" fill="#414141"/>
<path fill-rule="evenodd" clip-rule="evenodd" d="M18.7168 4.57657C18.9121 4.38134 19.2287 4.38138 19.4239 4.57668C23.5229 8.67692 23.5229 15.3234 19.4239 19.4237C19.2287 19.619 18.9121 19.619 18.7168 19.4238C18.5215 19.2285 18.5215 18.912 18.7167 18.7167C22.4253 15.0069 22.4253 8.99342 18.7167 5.28368C18.5215 5.08838 18.5215 4.7718 18.7168 4.57657Z" fill="#414141"/>
<path fill-rule="evenodd" clip-rule="evenodd" d="M15.1856 8.10635C15.3809 7.91112 15.6974 7.91117 15.8927 8.10646C18.0398 10.2542 18.0398 13.7357 15.8927 15.8835C15.6974 16.0788 15.3809 16.0788 15.1856 15.8836C14.9903 15.6883 14.9902 15.3718 15.1855 15.1765C16.9422 13.4192 16.9422 10.5707 15.1855 8.81346C14.9902 8.61817 14.9903 8.30159 15.1856 8.10635Z" fill="#414141"/>
</svg>
