<svg width="24" height="24" viewBox="0 0 24 24" fill="none" xmlns="http://www.w3.org/2000/svg">
<path fill-rule="evenodd" clip-rule="evenodd" d="M4.5 12C4.5 7.85786 7.85786 4.5 12 4.5C16.1421 4.5 19.5 7.85786 19.5 12C19.5 16.1421 16.1421 19.5 12 19.5C7.85786 19.5 4.5 16.1421 4.5 12ZM12 5.5C8.41015 5.5 5.5 8.41015 5.5 12C5.5 15.5899 8.41015 18.5 12 18.5C15.5899 18.5 18.5 15.5899 18.5 12C18.5 8.41015 15.5899 5.5 12 5.5Z" fill="#414141"/>
<path fill-rule="evenodd" clip-rule="evenodd" d="M12 8.5C12.2761 8.5 12.5 8.72386 12.5 9V11.7929L13.8536 13.1464C14.0488 13.3417 14.0488 13.6583 13.8536 13.8536C13.6583 14.0488 13.3417 14.0488 13.1464 13.8536L11.6464 12.3536C11.5527 12.2598 11.5 12.1326 11.5 12V9C11.5 8.72386 11.7239 8.5 12 8.5Z" fill="#414141"/>
<path fill-rule="evenodd" clip-rule="evenodd" d="M7.33238 21.2252L6.98242 17.3957L7.97827 17.3047" fill="#414141"/>
<path fill-rule="evenodd" clip-rule="evenodd" d="M15.6802 2.865C15.6101 2.0897 14.9586 1.49684 14.1802 1.5L14.1782 1.5H9.8284C9.05293 1.50085 8.40592 2.09265 8.33613 2.865L7.98608 6.6955L6.99023 6.6045L7.34019 2.775C7.3402 2.77492 7.34018 2.77508 7.34019 2.775C7.45664 1.48775 8.53515 0.501218 9.82769 0.5L14.1772 0.5M15.6802 2.865L16.0302 6.6955ZM16.0302 6.6955L17.0261 6.6045ZM17.0261 6.6045L16.6761 2.775Z" fill="#414141"/>
</svg>
