<svg width="24" height="24" viewBox="0 0 24 24" fill="none" xmlns="http://www.w3.org/2000/svg">
<path fill-rule="evenodd" clip-rule="evenodd" d="M15.8613 7.40385C16.0566 7.20858 16.3731 7.20858 16.5684 7.40385L20.811 11.6465C21.0063 11.8417 21.0063 12.1583 20.811 12.3536L16.5684 16.5962C16.3731 16.7915 16.0566 16.7915 15.8613 16.5962C15.666 16.401 15.666 16.0844 15.8613 15.8891L19.7504 12L15.8613 8.11095C15.666 7.91569 15.666 7.59911 15.8613 7.40385Z" fill="#414141"/>
<path fill-rule="evenodd" clip-rule="evenodd" d="M7.59574 7.40385C7.791 7.59911 7.791 7.91569 7.59574 8.11095L3.70665 12L7.59574 15.8891C7.791 16.0844 7.791 16.401 7.59574 16.5962C7.40048 16.7915 7.0839 16.7915 6.88863 16.5962L2.64599 12.3536C2.45073 12.1583 2.45073 11.8417 2.64599 11.6465L6.88863 7.40385C7.0839 7.20858 7.40048 7.20858 7.59574 7.40385Z" fill="#414141"/>
<path fill-rule="evenodd" clip-rule="evenodd" d="M20.399 12.0001C20.399 12.2763 20.1751 12.5001 19.899 12.5001H2.99947C2.72333 12.5001 2.49947 12.2763 2.49947 12.0001C2.49947 11.724 2.72333 11.5001 2.99947 11.5001H19.899C20.1751 11.5001 20.399 11.724 20.399 12.0001Z" fill="#414141"/>
</svg>
