<svg width="24" height="24" viewBox="0 0 24 24" fill="none" xmlns="http://www.w3.org/2000/svg">
<path fill-rule="evenodd" clip-rule="evenodd" d="M18.3381 13.9316C14.4449 10.6888 8.79134 10.6888 4.89814 13.9316C4.68596 14.1083 4.37068 14.0796 4.19395 13.8674C4.01722 13.6552 4.04596 13.3399 4.25814 13.1632C8.52212 9.61162 14.7142 9.61162 18.9781 13.1632C19.1903 13.3399 19.2191 13.6552 19.0423 13.8674C18.8656 14.0796 18.5503 14.1083 18.3381 13.9316Z" fill="#414141"/>
<path fill-rule="evenodd" clip-rule="evenodd" d="M21.8294 10.3724C15.9719 5.20919 7.18816 5.20919 1.33063 10.3724C1.12348 10.555 0.807522 10.5351 0.624923 10.328C0.442324 10.1208 0.462229 9.80487 0.669381 9.62227C6.90481 4.12591 16.2552 4.12591 22.4906 9.62227C22.6978 9.80487 22.7177 10.1208 22.5351 10.328C22.3525 10.5351 22.0365 10.555 21.8294 10.3724Z" fill="#414141"/>
<path fill-rule="evenodd" clip-rule="evenodd" d="M14.7698 17.5149C12.8624 16.1598 10.3064 16.1598 8.399 17.5149C8.17388 17.6748 7.86174 17.622 7.70181 17.3969C7.54188 17.1717 7.59472 16.8596 7.81983 16.6997C10.0741 15.0982 13.0948 15.0982 15.349 16.6997C15.5741 16.8596 15.627 17.1717 15.467 17.3969C15.3071 17.622 14.9949 17.6748 14.7698 17.5149Z" fill="#414141"/>
<path d="M13 21C13 21.5523 12.5523 22 12 22C11.4477 22 11 21.5523 11 21C11 20.4477 11.4477 20 12 20C12.5523 20 13 20.4477 13 21Z" fill="#414141"/>
</svg>
