<svg width="24" height="24" viewBox="0 0 24 24" fill="none" xmlns="http://www.w3.org/2000/svg">
<path fill-rule="evenodd" clip-rule="evenodd" d="M0.646447 0.646447C0.841709 0.451184 1.15829 0.451184 1.35355 0.646447L23.3536 22.6464C23.5488 22.8417 23.5488 23.1583 23.3536 23.3536C23.1583 23.5488 22.8417 23.5488 22.6464 23.3536L0.646447 1.35355C0.451184 1.15829 0.451184 0.841709 0.646447 0.646447Z" fill="#414141"/>
<path d="M13 20C13 20.5523 12.5523 21 12 21C11.4477 21 11 20.5523 11 20C11 19.4477 11.4477 19 12 19C12.5523 19 13 19.4477 13 20Z" fill="#414141"/>
<path fill-rule="evenodd" clip-rule="evenodd" d="M16.2695 10.8409C16.3906 10.5927 16.69 10.4897 16.9382 10.6108C17.7947 11.0288 18.5956 11.5523 19.3224 12.1689C19.5329 12.3476 19.5588 12.6631 19.3801 12.8737C19.2014 13.0842 18.8859 13.1101 18.6754 12.9314C18.0122 12.3687 17.2812 11.891 16.4996 11.5095C16.2514 11.3884 16.1484 11.089 16.2695 10.8409Z" fill="#414141"/>
<path fill-rule="evenodd" clip-rule="evenodd" d="M10.6628 10.0758C10.7095 10.348 10.5266 10.6064 10.2544 10.6531C8.43734 10.9644 6.73508 11.7513 5.32073 12.9338C5.10888 13.111 4.79355 13.0828 4.61642 12.871C4.4393 12.6591 4.46744 12.3438 4.67929 12.1666C6.22911 10.8708 8.09443 10.0085 10.0856 9.66742C10.3578 9.62079 10.6162 9.80363 10.6628 10.0758Z" fill="#414141"/>
<path fill-rule="evenodd" clip-rule="evenodd" d="M22.2502 9.37473C19.0953 6.5915 14.9446 5.21026 10.7511 5.54817C10.4759 5.57035 10.2348 5.36519 10.2126 5.08994C10.1904 4.81469 10.3956 4.57358 10.6708 4.5514C15.1348 4.1917 19.5533 5.66204 22.9117 8.62484C23.1188 8.80752 23.1386 9.12348 22.9559 9.33056C22.7732 9.53764 22.4573 9.55741 22.2502 9.37473Z" fill="#414141"/>
<path fill-rule="evenodd" clip-rule="evenodd" d="M6.58702 5.93633C6.68832 6.19321 6.5622 6.48359 6.30532 6.5849C4.63714 7.24278 3.09659 8.18677 1.75302 9.37439C1.54612 9.55727 1.23014 9.53781 1.04725 9.3309C0.86437 9.124 0.883839 8.80802 1.09074 8.62514C2.5215 7.36045 4.16202 6.3552 5.93844 5.65463C6.19533 5.55332 6.48571 5.67944 6.58702 5.93633Z" fill="#414141"/>
<path fill-rule="evenodd" clip-rule="evenodd" d="M15.1917 16.5173C13.2843 15.1622 10.7283 15.1622 8.82087 16.5173C8.59576 16.6773 8.28362 16.6244 8.12369 16.3993C7.96375 16.1742 8.01659 15.862 8.24171 15.7021C10.4959 14.1006 13.5166 14.1006 15.7709 15.7021C15.996 15.862 16.0488 16.1742 15.8889 16.3993C15.729 16.6244 15.4168 16.6773 15.1917 16.5173Z" fill="#414141"/>
</svg>
