<svg width="24" height="24" viewBox="0 0 24 24" fill="none" xmlns="http://www.w3.org/2000/svg">
<path fill-rule="evenodd" clip-rule="evenodd" d="M11.7576 4.70059C11.1683 4.36081 10.4242 4.46012 9.9446 4.94255C9.74992 5.13839 9.43334 5.13932 9.2375 4.94464C9.04166 4.74996 9.04072 4.43338 9.2354 4.23754C10.0347 3.4335 11.275 3.26798 12.2572 3.83428C13.2393 4.40058 13.7175 5.55691 13.422 6.65148C13.1267 7.7457 12.1323 8.50432 10.999 8.50004C10.9986 8.50004 10.9983 8.50004 10.9979 8.50004L11 8.00004V8.50004H10.999H2C1.72386 8.50004 1.5 8.27619 1.5 8.00004C1.5 7.7239 1.72386 7.50004 2 7.50004H11L11.0021 7.50005C11.6823 7.5029 12.2793 7.04765 12.4566 6.39091C12.6338 5.73417 12.347 5.04037 11.7576 4.70059ZM20.496 7.76824C19.7128 7.31582 18.7235 7.44531 18.0831 8.08404C17.8876 8.27906 17.571 8.27866 17.376 8.08315C17.181 7.88764 17.1814 7.57106 17.3769 7.37604C18.3374 6.41794 19.8214 6.22371 20.9962 6.90234C22.1709 7.58097 22.744 8.96355 22.3939 10.2743C22.0438 11.585 20.8576 12.4976 19.5009 12.5L19.5 12.5H2C1.72386 12.5 1.5 12.2762 1.5 12C1.5 11.7239 1.72386 11.5 2 11.5H19.4996C20.4038 11.4982 21.1944 10.8899 21.4278 10.0162C21.6612 9.14238 21.2791 8.22066 20.496 7.76824ZM13.9989 15.5C15.1322 15.4957 16.1267 16.2543 16.422 17.3486C16.7175 18.4432 16.2393 19.5995 15.2572 20.1658C14.275 20.7321 13.0347 20.5666 12.2354 19.7625C12.0407 19.5667 12.0417 19.2501 12.2375 19.0554C12.4333 18.8608 12.7499 18.8617 12.9446 19.0575C13.4242 19.54 14.1683 19.6393 14.7576 19.2995C15.347 18.9597 15.6338 18.2659 15.4566 17.6092C15.2793 16.9524 14.6823 16.4972 14.0021 16.5L14 16.5H2C1.72386 16.5 1.5 16.2762 1.5 16C1.5 15.7239 1.72386 15.5 2 15.5H13.9989Z" fill="#414141"/>
</svg>
