<svg width="24" height="24" viewBox="0 0 24 24" fill="none" xmlns="http://www.w3.org/2000/svg">
<path fill-rule="evenodd" clip-rule="evenodd" d="M13.1991 1.54138C13.4027 1.62976 13.5237 1.8418 13.4961 2.06205L12.5664 9.50003H21C21.194 9.50003 21.3705 9.61226 21.4528 9.78795C21.5351 9.96364 21.5083 10.1711 21.3841 10.3201L11.3841 22.3201C11.242 22.4906 11.0045 22.5471 10.8009 22.4587C10.5973 22.3703 10.4763 22.1583 10.5039 21.938L11.4336 14.5H3.00001C2.806 14.5 2.6295 14.3878 2.54721 14.2121C2.46492 14.0364 2.49169 13.829 2.6159 13.6799L12.6159 1.67994C12.758 1.50942 12.9955 1.45299 13.1991 1.54138ZM4.06753 13.5H12C12.1434 13.5 12.2799 13.5616 12.3748 13.6691C12.4698 13.7766 12.5139 13.9197 12.4961 14.062L11.7077 20.3698L19.9325 10.5H12C11.8566 10.5 11.7201 10.4384 11.6252 10.3309C11.5303 10.2234 11.4861 10.0803 11.5039 9.93801L12.2923 3.63026L4.06753 13.5Z" fill="#414141"/>
</svg>
